<svg width="66" height="66" viewBox="0 0 66 66" fill="none" xmlns="http://www.w3.org/2000/svg">
<path fill-rule="evenodd" clip-rule="evenodd" d="M29.4855 0.0450537C29.1316 0.0592437 28.842 0.0993387 28.842 0.134319C28.842 0.169959 28.6088 0.198009 28.314 0.198009C28.0059 0.198009 27.786 0.225564 27.786 0.264009C27.786 0.300309 27.6375 0.330009 27.456 0.330009C27.2745 0.330009 27.126 0.359709 27.126 0.396009C27.126 0.432309 26.9626 0.462009 26.763 0.462009C26.5633 0.462009 26.4 0.491709 26.4 0.528009C26.4 0.564309 26.2812 0.594009 26.136 0.594009C25.9908 0.594009 25.872 0.623709 25.872 0.660009C25.872 0.696309 25.7235 0.726009 25.542 0.726009C25.3605 0.726009 25.212 0.755709 25.212 0.792009C25.212 0.828309 25.0932 0.858009 24.948 0.858009C24.8028 0.858009 24.684 0.887709 24.684 0.924009C24.684 0.960308 24.5652 0.990009 24.42 0.990009C24.2748 0.990009 24.156 1.01971 24.156 1.05601C24.156 1.09231 24.0669 1.12201 23.958 1.12201C23.8491 1.12201 23.76 1.15171 23.76 1.18801C23.76 1.22431 23.656 1.25401 23.529 1.25401C23.4019 1.25401 23.298 1.28371 23.298 1.32001C23.298 1.35631 23.2089 1.38601 23.1 1.38601C22.9911 1.38601 22.902 1.41571 22.902 1.45201C22.902 1.48831 22.8129 1.51801 22.704 1.51801C22.5951 1.51801 22.506 1.54474 22.506 1.57757C22.506 1.61024 22.3278 1.65776 22.11 1.68301C21.8922 1.70825 21.714 1.75577 21.714 1.78844C21.714 1.82128 21.6249 1.84801 21.516 1.84801C21.4071 1.84801 21.3178 1.87028 21.3175 1.89751C21.3168 1.9645 20.9903 2.11201 20.8428 2.11201C20.7774 2.11201 20.724 2.14171 20.724 2.17801C20.724 2.21431 20.6646 2.24401 20.592 2.24401C20.5194 2.24401 20.46 2.27371 20.46 2.31001C20.46 2.34631 20.3709 2.37601 20.262 2.37601C20.1531 2.37601 20.064 2.40571 20.064 2.44201C20.064 2.47831 20.0046 2.50801 19.932 2.50801C19.8594 2.50801 19.8 2.53771 19.8 2.57401C19.8 2.61031 19.7406 2.64001 19.668 2.64001C19.5954 2.64001 19.536 2.66971 19.536 2.70601C19.536 2.74231 19.4766 2.77201 19.404 2.77201C19.3314 2.77201 19.272 2.80171 19.272 2.83801C19.272 2.87431 19.1829 2.90401 19.074 2.90401C18.9651 2.90401 18.876 2.93371 18.876 2.97001C18.876 3.00631 18.8166 3.03601 18.744 3.03601C18.6714 3.03601 18.612 3.06571 18.612 3.10201C18.612 3.13831 18.5526 3.16801 18.48 3.16801C18.4074 3.16801 18.348 3.19771 18.348 3.23401C18.348 3.27031 18.3034 3.30001 18.249 3.30001C18.1945 3.30001 18.15 3.32971 18.15 3.36601C18.15 3.40231 18.0906 3.43201 18.018 3.43201C17.9454 3.43201 17.886 3.46171 17.886 3.49801C17.886 3.53431 17.8266 3.56401 17.754 3.56401C17.6814 3.56401 17.622 3.59371 17.622 3.63001C17.622 3.66631 17.5626 3.69601 17.49 3.69601C17.4174 3.69601 17.358 3.72571 17.358 3.76201C17.358 3.79831 17.3052 3.82801 17.2405 3.82801C17.176 3.82801 17.0803 3.88741 17.028 3.96001C16.9757 4.03261 16.88 4.09201 16.8155 4.09201C16.7508 4.09201 16.698 4.12171 16.698 4.15801C16.698 4.19431 16.6386 4.22401 16.566 4.22401C16.4934 4.22401 16.434 4.25371 16.434 4.29001C16.434 4.32631 16.3746 4.35601 16.302 4.35601C16.2294 4.35601 16.17 4.3801 16.17 4.40963C16.17 4.43917 16.0205 4.5286 15.8377 4.60846C15.6549 4.68815 15.4884 4.79771 15.4676 4.85183C15.4468 4.90579 15.3801 4.95001 15.3196 4.95001C15.2589 4.95001 15.1663 5.00941 15.114 5.08201C15.0617 5.15461 14.9726 5.21401 14.916 5.21401C14.8594 5.21401 14.7703 5.27341 14.718 5.34601C14.6657 5.41861 14.5766 5.47801 14.52 5.47801C14.4634 5.47801 14.3743 5.53741 14.322 5.61001C14.2697 5.68261 14.1806 5.74201 14.124 5.74201C14.0674 5.74201 13.9783 5.80141 13.926 5.87401C13.8737 5.94661 13.7899 6.00601 13.7399 6.00601C13.6899 6.00601 13.5658 6.09511 13.464 6.20401C13.3622 6.31291 13.2434 6.40201 13.2 6.40201C13.1566 6.40201 13.0378 6.49111 12.936 6.60001C12.8342 6.70891 12.7322 6.79801 12.7093 6.79801C12.6863 6.79801 12.5636 6.90196 12.4365 7.02901C12.3095 7.15606 12.1603 7.26001 12.1052 7.26001C12.0499 7.26001 11.8298 7.43821 11.616 7.65601C11.4021 7.87381 11.1947 8.05201 11.1551 8.05201C11.1154 8.05201 10.8171 8.32673 10.492 8.66251C9.7505 9.42844 9.42842 9.75052 8.66249 10.492C8.32671 10.8171 8.05199 11.1154 8.05199 11.1552C8.05199 11.1948 7.87379 11.4022 7.65599 11.616C7.43819 11.8298 7.25999 12.05 7.25999 12.1052C7.25999 12.1603 7.15604 12.3095 7.02899 12.4366C6.90194 12.5636 6.79799 12.6864 6.79799 12.7093C6.79799 12.7322 6.70889 12.8342 6.59999 12.936C6.49109 13.0378 6.40199 13.1566 6.40199 13.2C6.40199 13.2434 6.31289 13.3622 6.20399 13.464C6.09509 13.5658 6.00599 13.6899 6.00599 13.7399C6.00599 13.7899 5.94659 13.8737 5.87399 13.926C5.80139 13.9783 5.74199 14.0674 5.74199 14.124C5.74199 14.1806 5.68259 14.2697 5.60999 14.322C5.53739 14.3743 5.47799 14.4634 5.47799 14.52C5.47799 14.5766 5.41859 14.6657 5.34599 14.718C5.27339 14.7703 5.21399 14.8594 5.21399 14.916C5.21399 14.9726 5.15459 15.0617 5.08199 15.114C5.00939 15.1663 4.94999 15.2589 4.94999 15.3196C4.94999 15.3801 4.90577 15.4468 4.85181 15.4676C4.79769 15.4884 4.68813 15.6549 4.60844 15.8377C4.52858 16.0205 4.43915 16.17 4.40961 16.17C4.38008 16.17 4.35599 16.2294 4.35599 16.302C4.35599 16.3746 4.32629 16.434 4.28999 16.434C4.25369 16.434 4.22399 16.4934 4.22399 16.566C4.22399 16.6386 4.19429 16.698 4.15799 16.698C4.12169 16.698 4.09199 16.7508 4.09199 16.8155C4.09199 16.88 4.03259 16.9757 3.95999 17.028C3.88739 17.0803 3.82799 17.176 3.82799 17.2405C3.82799 17.3052 3.79829 17.358 3.76199 17.358C3.72569 17.358 3.69599 17.4174 3.69599 17.49C3.69599 17.5626 3.66629 17.622 3.62999 17.622C3.59369 17.622 3.56399 17.6814 3.56399 17.754C3.56399 17.8266 3.53429 17.886 3.49799 17.886C3.46169 17.886 3.43199 17.9454 3.43199 18.018C3.43199 18.0906 3.40229 18.15 3.36599 18.15C3.32969 18.15 3.29999 18.1946 3.29999 18.249C3.29999 18.3035 3.27029 18.348 3.23399 18.348C3.19769 18.348 3.16799 18.4074 3.16799 18.48C3.16799 18.5526 3.13829 18.612 3.10199 18.612C3.06569 18.612 3.03599 18.6714 3.03599 18.744C3.03599 18.8166 3.00629 18.876 2.96999 18.876C2.93369 18.876 2.90399 18.9651 2.90399 19.074C2.90399 19.1829 2.87429 19.272 2.83799 19.272C2.80169 19.272 2.77199 19.3314 2.77199 19.404C2.77199 19.4766 2.74229 19.536 2.70599 19.536C2.66969 19.536 2.63999 19.5954 2.63999 19.668C2.63999 19.7406 2.61029 19.8 2.57399 19.8C2.53769 19.8 2.50799 19.8594 2.50799 19.932C2.50799 20.0046 2.47829 20.064 2.44199 20.064C2.40569 20.064 2.37599 20.1531 2.37599 20.262C2.37599 20.3709 2.34629 20.46 2.30999 20.46C2.27369 20.46 2.24399 20.5194 2.24399 20.592C2.24399 20.6646 2.21429 20.724 2.17799 20.724C2.14169 20.724 2.11199 20.7775 2.11199 20.8428C2.11199 20.9903 1.96448 21.3169 1.89749 21.3175C1.87026 21.3178 1.84799 21.4071 1.84799 21.516C1.84799 21.6249 1.82126 21.714 1.78842 21.714C1.75575 21.714 1.70823 21.8922 1.68299 22.11C1.65774 22.3278 1.61022 22.506 1.57755 22.506C1.54472 22.506 1.51799 22.5951 1.51799 22.704C1.51799 22.8129 1.48829 22.902 1.45199 22.902C1.41569 22.902 1.38599 22.9911 1.38599 23.1C1.38599 23.2089 1.35629 23.298 1.31999 23.298C1.28369 23.298 1.25399 23.402 1.25399 23.529C1.25399 23.6561 1.22429 23.76 1.18799 23.76C1.15169 23.76 1.12199 23.8491 1.12199 23.958C1.12199 24.0669 1.09229 24.156 1.05599 24.156C1.01969 24.156 0.989987 24.2748 0.989987 24.42C0.989987 24.5652 0.960287 24.684 0.923987 24.684C0.887687 24.684 0.857987 24.8028 0.857987 24.948C0.857987 25.0932 0.828287 25.212 0.791987 25.212C0.755687 25.212 0.725987 25.3605 0.725987 25.542C0.725987 25.7235 0.696287 25.872 0.659987 25.872C0.623687 25.872 0.593987 25.9908 0.593987 26.136C0.593987 26.2812 0.564287 26.4 0.527987 26.4C0.491687 26.4 0.461987 26.5634 0.461987 26.763C0.461987 26.9627 0.432287 27.126 0.395987 27.126C0.359687 27.126 0.329987 27.2745 0.329987 27.456C0.329987 27.6375 0.300287 27.786 0.263987 27.786C0.225542 27.786 0.197987 28.0041 0.197987 28.3086C0.197987 28.6678 0.172247 28.8395 0.115487 28.8585C-0.00529265 28.8988 -0.00529265 37.1012 0.115487 37.1415C0.172247 37.1605 0.197987 37.3322 0.197987 37.6914C0.197987 37.9959 0.225542 38.214 0.263987 38.214C0.300287 38.214 0.329987 38.3625 0.329987 38.544C0.329987 38.7255 0.359687 38.874 0.395987 38.874C0.432617 38.874 0.461987 39.0501 0.461987 39.27C0.461987 39.4899 0.491357 39.666 0.527987 39.666C0.564287 39.666 0.593987 39.77 0.593987 39.897C0.593987 40.0241 0.623687 40.128 0.659987 40.128C0.696287 40.128 0.725987 40.2765 0.725987 40.458C0.725987 40.6395 0.755687 40.788 0.791987 40.788C0.828287 40.788 0.857987 40.9068 0.857987 41.052C0.857987 41.1972 0.887687 41.316 0.923987 41.316C0.960287 41.316 0.989987 41.4348 0.989987 41.58C0.989987 41.7252 1.01969 41.844 1.05599 41.844C1.09229 41.844 1.12199 41.9331 1.12199 42.042C1.12199 42.1509 1.15169 42.24 1.18799 42.24C1.22429 42.24 1.25399 42.3439 1.25399 42.471C1.25399 42.598 1.28369 42.702 1.31999 42.702C1.35629 42.702 1.38599 42.7911 1.38599 42.9C1.38599 43.0089 1.41569 43.098 1.45199 43.098C1.48829 43.098 1.51799 43.1871 1.51799 43.296C1.51799 43.4049 1.54472 43.494 1.57755 43.494C1.61022 43.494 1.65774 43.6722 1.68299 43.89C1.70823 44.1078 1.75575 44.286 1.78842 44.286C1.82126 44.286 1.84799 44.3751 1.84799 44.484C1.84799 44.5929 1.87769 44.682 1.91399 44.682C1.95029 44.682 1.97999 44.7414 1.97999 44.814C1.97999 44.8866 2.00969 44.946 2.04599 44.946C2.08229 44.946 2.11199 45.0351 2.11199 45.144C2.11199 45.2529 2.14169 45.342 2.17799 45.342C2.21429 45.342 2.24399 45.3865 2.24399 45.441C2.24399 45.4954 2.27369 45.54 2.30999 45.54C2.34629 45.54 2.37599 45.6291 2.37599 45.738C2.37599 45.8469 2.40569 45.936 2.44199 45.936C2.47829 45.936 2.50799 45.9954 2.50799 46.068C2.50799 46.1406 2.53769 46.2 2.57399 46.2C2.61029 46.2 2.63999 46.2594 2.63999 46.332C2.63999 46.4046 2.66969 46.464 2.70599 46.464C2.74229 46.464 2.77199 46.5234 2.77199 46.596C2.77199 46.6686 2.80169 46.728 2.83799 46.728C2.87429 46.728 2.90399 46.8171 2.90399 46.926C2.90399 47.0349 2.93369 47.124 2.96999 47.124C3.00629 47.124 3.03599 47.1834 3.03599 47.256C3.03599 47.3286 3.06569 47.388 3.10199 47.388C3.13829 47.388 3.16799 47.4474 3.16799 47.52C3.16799 47.5926 3.19769 47.652 3.23399 47.652C3.27029 47.652 3.29999 47.7114 3.29999 47.784C3.29999 47.8566 3.32969 47.916 3.36599 47.916C3.40229 47.916 3.43199 47.9605 3.43199 48.015C3.43199 48.0694 3.46169 48.114 3.49799 48.114C3.53429 48.114 3.56399 48.1734 3.56399 48.246C3.56399 48.3186 3.59369 48.378 3.62999 48.378C3.66629 48.378 3.69599 48.4374 3.69599 48.51C3.69599 48.5826 3.72569 48.642 3.76199 48.642C3.79829 48.642 3.82799 48.6948 3.82799 48.7595C3.82799 48.824 3.88739 48.9197 3.95999 48.972C4.03259 49.0243 4.09199 49.12 4.09199 49.1845C4.09199 49.2492 4.12169 49.302 4.15799 49.302C4.19429 49.302 4.22399 49.3614 4.22399 49.434C4.22399 49.5066 4.25369 49.566 4.28999 49.566C4.32629 49.566 4.35599 49.6127 4.35599 49.6698C4.35599 49.7267 4.40054 49.8179 4.45499 49.8724C4.50944 49.9268 4.55399 50.0287 4.55399 50.0988C4.55399 50.1687 4.58369 50.226 4.61999 50.226C4.65629 50.226 4.68599 50.2788 4.68599 50.3435C4.68599 50.408 4.74539 50.5037 4.81799 50.556C4.89059 50.6083 4.94999 50.702 4.94999 50.7641C4.94999 50.8263 5.00939 50.8959 5.08199 50.919C5.15459 50.9421 5.21399 51.0117 5.21399 51.0739C5.21399 51.136 5.27339 51.2297 5.34599 51.282C5.41859 51.3343 5.47799 51.4234 5.47799 51.48C5.47799 51.5366 5.53739 51.6257 5.60999 51.678C5.68259 51.7303 5.74199 51.8194 5.74199 51.876C5.74199 51.9326 5.80139 52.0217 5.87399 52.074C5.94659 52.1263 6.00599 52.2101 6.00599 52.2601C6.00599 52.3101 6.09509 52.4342 6.20399 52.536C6.31289 52.6378 6.40199 52.7566 6.40199 52.8C6.40199 52.8434 6.49109 52.9622 6.59999 53.064C6.70889 53.1658 6.79799 53.2856 6.79799 53.3303C6.79799 53.4176 7.04664 53.658 7.1369 53.658C7.16693 53.658 7.21164 53.7387 7.23639 53.8372C7.26114 53.9357 7.45485 54.1865 7.66671 54.3946C7.87857 54.6025 8.05199 54.8049 8.05199 54.8445C8.05199 54.8839 8.38611 55.242 8.79449 55.6403C9.72278 56.5455 9.77096 56.5937 10.4915 57.3375C10.8167 57.6733 11.1154 57.948 11.1551 57.948C11.1947 57.948 11.4021 58.1262 11.616 58.344C11.8298 58.5618 12.0371 58.74 12.0765 58.74C12.1161 58.74 12.2524 58.8439 12.3794 58.971C12.5065 59.098 12.642 59.202 12.6807 59.202C12.7193 59.202 12.8342 59.2911 12.936 59.4C13.0378 59.5089 13.1566 59.598 13.2 59.598C13.2434 59.598 13.3622 59.6871 13.464 59.796C13.5658 59.9049 13.6899 59.994 13.7399 59.994C13.7899 59.994 13.8737 60.0534 13.926 60.126C13.9783 60.1986 14.0674 60.258 14.124 60.258C14.1806 60.258 14.2697 60.3174 14.322 60.39C14.3743 60.4626 14.4634 60.522 14.52 60.522C14.5766 60.522 14.6657 60.5814 14.718 60.654C14.7703 60.7266 14.8594 60.786 14.916 60.786C14.9726 60.786 15.0617 60.8454 15.114 60.918C15.1663 60.9906 15.26 61.05 15.3221 61.05C15.3843 61.05 15.4539 61.1094 15.477 61.182C15.5001 61.2546 15.5763 61.314 15.6464 61.314C15.7166 61.314 15.774 61.3437 15.774 61.38C15.774 61.4163 15.8268 61.446 15.8915 61.446C15.956 61.446 16.0517 61.5054 16.104 61.578C16.1563 61.6506 16.252 61.71 16.3165 61.71C16.3812 61.71 16.434 61.7371 16.434 61.7702C16.434 61.8034 16.5475 61.8496 16.6861 61.873C16.8249 61.8964 16.98 61.9733 17.0308 62.0438C17.0816 62.1142 17.176 62.172 17.2405 62.172C17.3052 62.172 17.358 62.2017 17.358 62.238C17.358 62.2743 17.4174 62.304 17.49 62.304C17.5626 62.304 17.622 62.3337 17.622 62.37C17.622 62.4063 17.6814 62.436 17.754 62.436C17.8266 62.436 17.886 62.4657 17.886 62.502C17.886 62.5383 17.9454 62.568 18.018 62.568C18.0906 62.568 18.15 62.5977 18.15 62.634C18.15 62.6703 18.1945 62.7 18.249 62.7C18.3034 62.7 18.348 62.7297 18.348 62.766C18.348 62.8023 18.4074 62.832 18.48 62.832C18.5526 62.832 18.612 62.8617 18.612 62.898C18.612 62.9343 18.6714 62.964 18.744 62.964C18.8166 62.964 18.876 62.9937 18.876 63.03C18.876 63.0663 18.9651 63.096 19.074 63.096C19.1829 63.096 19.272 63.1257 19.272 63.162C19.272 63.1983 19.3314 63.228 19.404 63.228C19.4766 63.228 19.536 63.2577 19.536 63.294C19.536 63.3303 19.5954 63.36 19.668 63.36C19.7406 63.36 19.8 63.3897 19.8 63.426C19.8 63.4623 19.8594 63.492 19.932 63.492C20.0046 63.492 20.064 63.5217 20.064 63.558C20.064 63.5943 20.1531 63.624 20.262 63.624C20.3709 63.624 20.46 63.6537 20.46 63.69C20.46 63.7263 20.5194 63.756 20.592 63.756C20.6646 63.756 20.724 63.7857 20.724 63.822C20.724 63.8583 20.7982 63.888 20.889 63.888C20.9797 63.888 21.054 63.9177 21.054 63.954C21.054 63.9903 21.1134 64.02 21.186 64.02C21.2586 64.02 21.318 64.0497 21.318 64.086C21.318 64.1223 21.4071 64.152 21.516 64.152C21.6249 64.152 21.714 64.1817 21.714 64.218C21.714 64.2543 21.8031 64.284 21.912 64.284C22.0209 64.284 22.11 64.3137 22.11 64.35C22.11 64.3863 22.1991 64.416 22.308 64.416C22.4169 64.416 22.506 64.4427 22.506 64.4756C22.506 64.5082 22.6842 64.5557 22.902 64.581C23.1198 64.6062 23.298 64.6538 23.298 64.6864C23.298 64.7193 23.4019 64.746 23.529 64.746C23.656 64.746 23.76 64.7757 23.76 64.812C23.76 64.8483 23.8491 64.878 23.958 64.878C24.0669 64.878 24.156 64.9077 24.156 64.944C24.156 64.9803 24.2748 65.01 24.42 65.01C24.5652 65.01 24.684 65.0397 24.684 65.076C24.684 65.1123 24.8028 65.142 24.948 65.142C25.0932 65.142 25.212 65.1717 25.212 65.208C25.212 65.2443 25.3605 65.274 25.542 65.274C25.7235 65.274 25.872 65.3037 25.872 65.34C25.872 65.3763 25.9908 65.406 26.136 65.406C26.2812 65.406 26.4 65.4357 26.4 65.472C26.4 65.5083 26.5633 65.538 26.763 65.538C26.9626 65.538 27.126 65.5677 27.126 65.604C27.126 65.6403 27.2745 65.67 27.456 65.67C27.6375 65.67 27.786 65.6997 27.786 65.736C27.786 65.7744 28.0041 65.802 28.3085 65.802C28.6677 65.802 28.8395 65.8277 28.8585 65.8845C28.8987 66.0053 37.1012 66.0053 37.1415 65.8845C37.1605 65.8277 37.3322 65.802 37.6914 65.802C37.9959 65.802 38.214 65.7744 38.214 65.736C38.214 65.6997 38.3625 65.67 38.544 65.67C38.7255 65.67 38.874 65.6403 38.874 65.604C38.874 65.5674 39.05 65.538 39.27 65.538C39.4899 65.538 39.666 65.5086 39.666 65.472C39.666 65.4357 39.7699 65.406 39.897 65.406C40.024 65.406 40.128 65.3763 40.128 65.34C40.128 65.3037 40.2765 65.274 40.458 65.274C40.6395 65.274 40.788 65.2443 40.788 65.208C40.788 65.1717 40.9068 65.142 41.052 65.142C41.1972 65.142 41.316 65.1123 41.316 65.076C41.316 65.0397 41.4348 65.01 41.58 65.01C41.7252 65.01 41.844 64.9803 41.844 64.944C41.844 64.9077 41.9331 64.878 42.042 64.878C42.1509 64.878 42.24 64.8483 42.24 64.812C42.24 64.7757 42.3439 64.746 42.471 64.746C42.598 64.746 42.702 64.7193 42.702 64.6864C42.702 64.6538 42.8802 64.6062 43.098 64.581C43.3158 64.5557 43.494 64.5082 43.494 64.4756C43.494 64.4427 43.5831 64.416 43.692 64.416C43.8009 64.416 43.89 64.3863 43.89 64.35C43.89 64.3137 43.9791 64.284 44.088 64.284C44.1969 64.284 44.286 64.2543 44.286 64.218C44.286 64.1817 44.3751 64.152 44.484 64.152C44.5929 64.152 44.682 64.1223 44.682 64.086C44.682 64.0497 44.7414 64.02 44.814 64.02C44.8866 64.02 44.946 63.9903 44.946 63.954C44.946 63.9177 45.0351 63.888 45.144 63.888C45.2529 63.888 45.342 63.8583 45.342 63.822C45.342 63.7857 45.3865 63.756 45.441 63.756C45.4954 63.756 45.54 63.7263 45.54 63.69C45.54 63.6537 45.6291 63.624 45.738 63.624C45.8469 63.624 45.936 63.5943 45.936 63.558C45.936 63.5217 45.9954 63.492 46.068 63.492C46.1406 63.492 46.2 63.4623 46.2 63.426C46.2 63.3897 46.2594 63.36 46.332 63.36C46.4046 63.36 46.464 63.3303 46.464 63.294C46.464 63.2577 46.5234 63.228 46.596 63.228C46.6686 63.228 46.728 63.1983 46.728 63.162C46.728 63.1257 46.8171 63.096 46.926 63.096C47.0349 63.096 47.124 63.0663 47.124 63.03C47.124 62.9937 47.1834 62.964 47.256 62.964C47.3286 62.964 47.388 62.9343 47.388 62.898C47.388 62.8617 47.4474 62.832 47.52 62.832C47.5926 62.832 47.652 62.8023 47.652 62.766C47.652 62.7297 47.7114 62.7 47.784 62.7C47.8566 62.7 47.916 62.6703 47.916 62.634C47.916 62.5977 47.9605 62.568 48.015 62.568C48.0694 62.568 48.114 62.5383 48.114 62.502C48.114 62.4657 48.1734 62.436 48.246 62.436C48.3186 62.436 48.378 62.4063 48.378 62.37C48.378 62.3337 48.4374 62.304 48.51 62.304C48.5826 62.304 48.642 62.2743 48.642 62.238C48.642 62.2017 48.6948 62.172 48.7595 62.172C48.824 62.172 48.9184 62.1142 48.9692 62.0438C49.02 61.9733 49.1751 61.8964 49.3139 61.873C49.4525 61.8496 49.566 61.8034 49.566 61.7702C49.566 61.7371 49.6188 61.71 49.6835 61.71C49.748 61.71 49.8437 61.6506 49.896 61.578C49.9483 61.5054 50.044 61.446 50.1085 61.446C50.1732 61.446 50.226 61.4163 50.226 61.38C50.226 61.3437 50.2788 61.314 50.3435 61.314C50.408 61.314 50.5037 61.2546 50.556 61.182C50.6083 61.1094 50.702 61.05 50.764 61.05C50.8263 61.05 50.8959 60.9906 50.919 60.918C50.9421 60.8454 51.0117 60.786 51.0739 60.786C51.136 60.786 51.2297 60.7266 51.282 60.654C51.3343 60.5814 51.4234 60.522 51.48 60.522C51.5366 60.522 51.6257 60.4626 51.678 60.39C51.7303 60.3174 51.8194 60.258 51.876 60.258C51.9326 60.258 52.0217 60.1986 52.074 60.126C52.1263 60.0534 52.2101 59.994 52.2601 59.994C52.3101 59.994 52.4342 59.9049 52.536 59.796C52.6378 59.6871 52.7566 59.598 52.8 59.598C52.8434 59.598 52.9622 59.5089 53.064 59.4C53.1658 59.2911 53.2927 59.202 53.3461 59.202C53.3994 59.202 53.5319 59.098 53.6405 58.971C53.7491 58.8439 53.8733 58.74 53.9165 58.74C53.9599 58.74 54.1701 58.5618 54.384 58.344C54.5978 58.1262 54.8049 57.948 54.8445 57.948C54.8839 57.948 55.243 57.6139 55.6423 57.2055C56.5141 56.314 56.314 56.5141 57.2055 55.6423C57.6139 55.243 57.948 54.8839 57.948 54.8445C57.948 54.8049 58.1262 54.5978 58.344 54.384C58.5618 54.1702 58.74 53.9599 58.74 53.9165C58.74 53.8733 58.8439 53.7491 58.971 53.6405C59.098 53.5319 59.202 53.3994 59.202 53.3461C59.202 53.2927 59.2911 53.1658 59.4 53.064C59.5089 52.9622 59.598 52.8434 59.598 52.8C59.598 52.7566 59.6871 52.6378 59.796 52.536C59.9049 52.4342 59.994 52.3101 59.994 52.2601C59.994 52.2101 60.0534 52.1263 60.126 52.074C60.1986 52.0217 60.258 51.9326 60.258 51.876C60.258 51.8194 60.3174 51.7303 60.39 51.678C60.4626 51.6257 60.522 51.5366 60.522 51.48C60.522 51.4234 60.5814 51.3343 60.654 51.282C60.7266 51.2297 60.786 51.136 60.786 51.0739C60.786 51.0117 60.8454 50.9421 60.918 50.919C60.9906 50.8959 61.05 50.8263 61.05 50.7641C61.05 50.702 61.1094 50.6083 61.182 50.556C61.2546 50.5037 61.314 50.408 61.314 50.3435C61.314 50.2788 61.3437 50.226 61.38 50.226C61.4163 50.226 61.446 50.1732 61.446 50.1085C61.446 50.044 61.5054 49.9483 61.578 49.896C61.6506 49.8437 61.71 49.748 61.71 49.6835C61.71 49.6188 61.737 49.566 61.7702 49.566C61.8034 49.566 61.8496 49.4525 61.873 49.3139C61.8964 49.1751 61.9733 49.02 62.0438 48.9692C62.1142 48.9184 62.172 48.824 62.172 48.7595C62.172 48.6948 62.2017 48.642 62.238 48.642C62.2743 48.642 62.304 48.5826 62.304 48.51C62.304 48.4374 62.3337 48.378 62.37 48.378C62.4063 48.378 62.436 48.3186 62.436 48.246C62.436 48.1734 62.4657 48.114 62.502 48.114C62.5383 48.114 62.568 48.0694 62.568 48.015C62.568 47.9605 62.5977 47.916 62.634 47.916C62.6703 47.916 62.7 47.8566 62.7 47.784C62.7 47.7114 62.7297 47.652 62.766 47.652C62.8023 47.652 62.832 47.5926 62.832 47.52C62.832 47.4474 62.8617 47.388 62.898 47.388C62.9343 47.388 62.964 47.3286 62.964 47.256C62.964 47.1834 62.9937 47.124 63.03 47.124C63.0663 47.124 63.096 47.0349 63.096 46.926C63.096 46.8171 63.1257 46.728 63.162 46.728C63.1983 46.728 63.228 46.6686 63.228 46.596C63.228 46.5234 63.2577 46.464 63.294 46.464C63.3303 46.464 63.36 46.4046 63.36 46.332C63.36 46.2594 63.3897 46.2 63.426 46.2C63.4623 46.2 63.492 46.1406 63.492 46.068C63.492 45.9954 63.5217 45.936 63.558 45.936C63.5943 45.936 63.624 45.8469 63.624 45.738C63.624 45.6291 63.6537 45.54 63.69 45.54C63.7263 45.54 63.756 45.4954 63.756 45.441C63.756 45.3865 63.7857 45.342 63.822 45.342C63.8583 45.342 63.888 45.2529 63.888 45.144C63.888 45.0351 63.9177 44.946 63.954 44.946C63.9903 44.946 64.02 44.8866 64.02 44.814C64.02 44.7414 64.0497 44.682 64.086 44.682C64.1223 44.682 64.152 44.5929 64.152 44.484C64.152 44.3751 64.1817 44.286 64.218 44.286C64.2543 44.286 64.284 44.1969 64.284 44.088C64.284 43.9791 64.3137 43.89 64.35 43.89C64.3863 43.89 64.416 43.8009 64.416 43.692C64.416 43.5831 64.4427 43.494 64.4755 43.494C64.5082 43.494 64.5557 43.3158 64.581 43.098C64.6062 42.8802 64.6537 42.702 64.6864 42.702C64.7193 42.702 64.746 42.598 64.746 42.471C64.746 42.3439 64.7757 42.24 64.812 42.24C64.8483 42.24 64.878 42.1509 64.878 42.042C64.878 41.9331 64.9077 41.844 64.944 41.844C64.9803 41.844 65.01 41.7252 65.01 41.58C65.01 41.4348 65.0397 41.316 65.076 41.316C65.1123 41.316 65.142 41.1972 65.142 41.052C65.142 40.9068 65.1717 40.788 65.208 40.788C65.2443 40.788 65.274 40.6395 65.274 40.458C65.274 40.2765 65.3037 40.128 65.34 40.128C65.3763 40.128 65.406 40.0241 65.406 39.897C65.406 39.77 65.4357 39.666 65.472 39.666C65.5086 39.666 65.538 39.4899 65.538 39.27C65.538 39.0501 65.5674 38.874 65.604 38.874C65.6403 38.874 65.67 38.7255 65.67 38.544C65.67 38.3625 65.6997 38.214 65.736 38.214C65.7744 38.214 65.802 37.9959 65.802 37.6914C65.802 37.3322 65.8277 37.1605 65.8845 37.1415C65.9493 37.1199 65.967 36.2325 65.967 33C65.967 29.7675 65.9493 28.8801 65.8845 28.8585C65.8277 28.8395 65.802 28.6678 65.802 28.3086C65.802 28.0041 65.7744 27.786 65.736 27.786C65.6997 27.786 65.67 27.6375 65.67 27.456C65.67 27.2745 65.6403 27.126 65.604 27.126C65.5677 27.126 65.538 26.9627 65.538 26.763C65.538 26.5634 65.5083 26.4 65.472 26.4C65.4357 26.4 65.406 26.2812 65.406 26.136C65.406 25.9908 65.3763 25.872 65.34 25.872C65.3037 25.872 65.274 25.7235 65.274 25.542C65.274 25.3605 65.2443 25.212 65.208 25.212C65.1717 25.212 65.142 25.0932 65.142 24.948C65.142 24.8028 65.1123 24.684 65.076 24.684C65.0397 24.684 65.01 24.5652 65.01 24.42C65.01 24.2748 64.9803 24.156 64.944 24.156C64.9077 24.156 64.878 24.0669 64.878 23.958C64.878 23.8491 64.8483 23.76 64.812 23.76C64.7757 23.76 64.746 23.6561 64.746 23.529C64.746 23.402 64.7193 23.298 64.6864 23.298C64.6537 23.298 64.6062 23.1198 64.581 22.902C64.5557 22.6842 64.5082 22.506 64.4755 22.506C64.4427 22.506 64.416 22.4169 64.416 22.308C64.416 22.1991 64.3863 22.11 64.35 22.11C64.3137 22.11 64.284 22.0209 64.284 21.912C64.284 21.8031 64.2543 21.714 64.218 21.714C64.1817 21.714 64.152 21.6249 64.152 21.516C64.152 21.4071 64.1223 21.318 64.086 21.318C64.0497 21.318 64.02 21.2586 64.02 21.186C64.02 21.1134 63.9903 21.054 63.954 21.054C63.9177 21.054 63.888 20.9798 63.888 20.889C63.888 20.7983 63.8583 20.724 63.822 20.724C63.7857 20.724 63.756 20.6646 63.756 20.592C63.756 20.5194 63.7263 20.46 63.69 20.46C63.6537 20.46 63.624 20.3709 63.624 20.262C63.624 20.1531 63.5943 20.064 63.558 20.064C63.5217 20.064 63.492 20.0046 63.492 19.932C63.492 19.8594 63.4623 19.8 63.426 19.8C63.3897 19.8 63.36 19.7406 63.36 19.668C63.36 19.5954 63.3303 19.536 63.294 19.536C63.2577 19.536 63.228 19.4766 63.228 19.404C63.228 19.3314 63.1983 19.272 63.162 19.272C63.1257 19.272 63.096 19.1829 63.096 19.074C63.096 18.9651 63.0663 18.876 63.03 18.876C62.9937 18.876 62.964 18.8166 62.964 18.744C62.964 18.6714 62.9343 18.612 62.898 18.612C62.8617 18.612 62.832 18.5526 62.832 18.48C62.832 18.4074 62.8023 18.348 62.766 18.348C62.7297 18.348 62.7 18.3035 62.7 18.249C62.7 18.1946 62.6703 18.15 62.634 18.15C62.5977 18.15 62.568 18.0906 62.568 18.018C62.568 17.9454 62.5383 17.886 62.502 17.886C62.4657 17.886 62.436 17.8266 62.436 17.754C62.436 17.6814 62.4063 17.622 62.37 17.622C62.3337 17.622 62.304 17.5626 62.304 17.49C62.304 17.4174 62.2743 17.358 62.238 17.358C62.2017 17.358 62.172 17.3052 62.172 17.2405C62.172 17.176 62.1142 17.0816 62.0438 17.0308C61.9733 16.98 61.8964 16.8249 61.873 16.6861C61.8496 16.5475 61.8034 16.434 61.7702 16.434C61.737 16.434 61.71 16.3812 61.71 16.3165C61.71 16.252 61.6506 16.1563 61.578 16.104C61.5054 16.0517 61.446 15.956 61.446 15.8915C61.446 15.8268 61.4163 15.774 61.38 15.774C61.3437 15.774 61.314 15.7166 61.314 15.6465C61.314 15.5763 61.2546 15.5001 61.182 15.477C61.1094 15.4539 61.05 15.3843 61.05 15.3221C61.05 15.26 60.9906 15.1663 60.918 15.114C60.8454 15.0617 60.786 14.9726 60.786 14.916C60.786 14.8594 60.7266 14.7703 60.654 14.718C60.5814 14.6657 60.522 14.5766 60.522 14.52C60.522 14.4634 60.4626 14.3743 60.39 14.322C60.3174 14.2697 60.258 14.1806 60.258 14.124C60.258 14.0674 60.1986 13.9783 60.126 13.926C60.0534 13.8737 59.994 13.7899 59.994 13.7399C59.994 13.6899 59.9049 13.5658 59.796 13.464C59.6871 13.3622 59.598 13.2434 59.598 13.2C59.598 13.1566 59.5089 13.0378 59.4 12.936C59.2911 12.8342 59.202 12.7194 59.202 12.6807C59.202 12.642 59.098 12.5065 58.971 12.3795C58.8439 12.2524 58.74 12.1161 58.74 12.0765C58.74 12.0371 58.5618 11.8298 58.344 11.616C58.1262 11.4022 57.948 11.1948 57.948 11.1552C57.948 11.1154 57.6733 10.8167 57.3375 10.4915C56.5937 9.77098 56.5455 9.7228 55.6403 8.79451C55.242 8.38613 54.8839 8.05201 54.8445 8.05201C54.8049 8.05201 54.6024 7.87859 54.3945 7.66673C54.1865 7.45487 53.9357 7.26116 53.8372 7.23641C53.7387 7.21166 53.658 7.16695 53.658 7.13692C53.658 7.04666 53.4176 6.79801 53.3303 6.79801C53.2856 6.79801 53.1658 6.70891 53.064 6.60001C52.9622 6.49111 52.8434 6.40201 52.8 6.40201C52.7566 6.40201 52.6378 6.31291 52.536 6.20401C52.4342 6.09511 52.3101 6.00601 52.2601 6.00601C52.2101 6.00601 52.1263 5.94661 52.074 5.87401C52.0217 5.80141 51.9326 5.74201 51.876 5.74201C51.8194 5.74201 51.7303 5.68261 51.678 5.61001C51.6257 5.53741 51.5366 5.47801 51.48 5.47801C51.4234 5.47801 51.3343 5.41861 51.282 5.34601C51.2297 5.27341 51.136 5.21401 51.0739 5.21401C51.0117 5.21401 50.9421 5.15461 50.919 5.08201C50.8959 5.00941 50.8263 4.95001 50.764 4.95001C50.702 4.95001 50.6083 4.89061 50.556 4.81801C50.5037 4.74541 50.408 4.68601 50.3435 4.68601C50.2788 4.68601 50.226 4.65631 50.226 4.62001C50.226 4.58371 50.1687 4.55401 50.0988 4.55401C50.0286 4.55401 49.9268 4.50946 49.8724 4.45501C49.8179 4.40056 49.7267 4.35601 49.6698 4.35601C49.6127 4.35601 49.566 4.32631 49.566 4.29001C49.566 4.25371 49.5066 4.22401 49.434 4.22401C49.3614 4.22401 49.302 4.19431 49.302 4.15801C49.302 4.12171 49.2492 4.09201 49.1845 4.09201C49.12 4.09201 49.0243 4.03261 48.972 3.96001C48.9197 3.88741 48.824 3.82801 48.7595 3.82801C48.6948 3.82801 48.642 3.79831 48.642 3.76201C48.642 3.72571 48.5826 3.69601 48.51 3.69601C48.4374 3.69601 48.378 3.66631 48.378 3.63001C48.378 3.59371 48.3186 3.56401 48.246 3.56401C48.1734 3.56401 48.114 3.53431 48.114 3.49801C48.114 3.46171 48.0694 3.43201 48.015 3.43201C47.9605 3.43201 47.916 3.40231 47.916 3.36601C47.916 3.32971 47.8566 3.30001 47.784 3.30001C47.7114 3.30001 47.652 3.27031 47.652 3.23401C47.652 3.19771 47.5926 3.16801 47.52 3.16801C47.4474 3.16801 47.388 3.13831 47.388 3.10201C47.388 3.06571 47.3286 3.03601 47.256 3.03601C47.1834 3.03601 47.124 3.00631 47.124 2.97001C47.124 2.93371 47.0349 2.90401 46.926 2.90401C46.8171 2.90401 46.728 2.87431 46.728 2.83801C46.728 2.80171 46.6686 2.77201 46.596 2.77201C46.5234 2.77201 46.464 2.74231 46.464 2.70601C46.464 2.66971 46.4046 2.64001 46.332 2.64001C46.2594 2.64001 46.2 2.61031 46.2 2.57401C46.2 2.53771 46.1406 2.50801 46.068 2.50801C45.9954 2.50801 45.936 2.47831 45.936 2.44201C45.936 2.40571 45.8469 2.37601 45.738 2.37601C45.6291 2.37601 45.54 2.34631 45.54 2.31001C45.54 2.27371 45.4954 2.24401 45.441 2.24401C45.3865 2.24401 45.342 2.21431 45.342 2.17801C45.342 2.14171 45.2529 2.11201 45.144 2.11201C45.0351 2.11201 44.946 2.08231 44.946 2.04601C44.946 2.00971 44.8866 1.98001 44.814 1.98001C44.7414 1.98001 44.682 1.95031 44.682 1.91401C44.682 1.87771 44.5929 1.84801 44.484 1.84801C44.3751 1.84801 44.286 1.82128 44.286 1.78844C44.286 1.75577 44.1078 1.70825 43.89 1.68301C43.6722 1.65776 43.494 1.61024 43.494 1.57757C43.494 1.54474 43.4049 1.51801 43.296 1.51801C43.1871 1.51801 43.098 1.48831 43.098 1.45201C43.098 1.41571 43.0089 1.38601 42.9 1.38601C42.7911 1.38601 42.702 1.35631 42.702 1.32001C42.702 1.28371 42.598 1.25401 42.471 1.25401C42.3439 1.25401 42.24 1.22431 42.24 1.18801C42.24 1.15171 42.1509 1.12201 42.042 1.12201C41.9331 1.12201 41.844 1.09231 41.844 1.05601C41.844 1.01971 41.7252 0.990009 41.58 0.990009C41.4348 0.990009 41.316 0.960308 41.316 0.924009C41.316 0.887709 41.1972 0.858009 41.052 0.858009C40.9068 0.858009 40.788 0.828309 40.788 0.792009C40.788 0.755709 40.6395 0.726009 40.458 0.726009C40.2765 0.726009 40.128 0.696309 40.128 0.660009C40.128 0.623709 40.024 0.594009 39.897 0.594009C39.7699 0.594009 39.666 0.564309 39.666 0.528009C39.666 0.491379 39.4899 0.462009 39.27 0.462009C39.05 0.462009 38.874 0.432639 38.874 0.396009C38.874 0.359709 38.7255 0.330009 38.544 0.330009C38.3625 0.330009 38.214 0.300309 38.214 0.264009C38.214 0.225564 37.9959 0.198009 37.6914 0.198009C37.3439 0.198009 37.1601 0.171444 37.1426 0.118809C37.1164 0.0402687 31.068 -0.0179763 29.4855 0.0450537ZM27.39 18.216C27.39 18.2886 27.4197 18.348 27.456 18.348C27.4923 18.348 27.522 18.4074 27.522 18.48C27.522 18.5526 27.5517 18.612 27.588 18.612C27.6243 18.612 27.654 18.6714 27.654 18.744C27.654 18.8466 27.6099 18.876 27.456 18.876C27.3471 18.876 27.258 18.9057 27.258 18.942C27.258 18.9783 27.1392 19.008 26.994 19.008C26.8488 19.008 26.73 19.0377 26.73 19.074C26.73 19.1103 26.626 19.14 26.499 19.14C26.3719 19.14 26.268 19.1697 26.268 19.206C26.268 19.2423 26.1789 19.272 26.07 19.272C25.9611 19.272 25.872 19.3017 25.872 19.338C25.872 19.3743 25.7829 19.404 25.674 19.404C25.5651 19.404 25.476 19.4337 25.476 19.47C25.476 19.5063 25.3869 19.536 25.278 19.536C25.1691 19.536 25.08 19.5657 25.08 19.602C25.08 19.6383 25.0206 19.668 24.948 19.668C24.8754 19.668 24.816 19.6977 24.816 19.734C24.816 19.7703 24.7269 19.8 24.618 19.8C24.5091 19.8 24.42 19.8297 24.42 19.866C24.42 19.9023 24.3606 19.932 24.288 19.932C24.2154 19.932 24.156 19.9617 24.156 19.998C24.156 20.0343 24.0966 20.064 24.024 20.064C23.9514 20.064 23.892 20.0937 23.892 20.13C23.892 20.1663 23.8474 20.196 23.793 20.196C23.7385 20.196 23.694 20.2257 23.694 20.262C23.694 20.2983 23.6346 20.328 23.562 20.328C23.4894 20.328 23.43 20.3577 23.43 20.394C23.43 20.4303 23.3706 20.46 23.298 20.46C23.2254 20.46 23.166 20.4897 23.166 20.526C23.166 20.5623 23.1066 20.592 23.034 20.592C22.9614 20.592 22.902 20.6217 22.902 20.658C22.902 20.6943 22.8426 20.724 22.77 20.724C22.6974 20.724 22.638 20.7537 22.638 20.79C22.638 20.8263 22.5913 20.856 22.5342 20.856C22.4773 20.856 22.386 20.9006 22.3316 20.955C22.2771 21.0095 22.1753 21.054 22.1052 21.054C22.0352 21.054 21.978 21.0837 21.978 21.12C21.978 21.1563 21.9252 21.186 21.8605 21.186C21.796 21.186 21.7003 21.2454 21.648 21.318C21.5957 21.3906 21.5066 21.45 21.45 21.45C21.3934 21.45 21.3043 21.5094 21.252 21.582C21.1997 21.6546 21.1307 21.714 21.0989 21.714C21.067 21.714 20.9578 21.8031 20.856 21.912C20.7542 22.0209 20.636 22.11 20.5933 22.11C20.5506 22.11 20.4016 22.2288 20.262 22.374C20.1224 22.5192 19.9744 22.638 19.9328 22.638C19.8914 22.638 19.7127 22.7865 19.536 22.968C19.3593 23.1495 19.1807 23.298 19.1395 23.298C19.0446 23.298 18.876 23.464 18.876 23.5572C18.876 23.5962 18.9651 23.628 19.074 23.628C19.1829 23.628 19.272 23.5983 19.272 23.562C19.272 23.5257 19.3314 23.496 19.404 23.496C19.4766 23.496 19.536 23.4689 19.536 23.4358C19.536 23.4026 19.6548 23.3556 19.8 23.331C19.9452 23.3064 20.0641 23.2668 20.0645 23.2427C20.0651 23.188 20.3909 23.034 20.5062 23.034C20.5534 23.034 20.592 23.0043 20.592 22.968C20.592 22.9317 20.6365 22.902 20.691 22.902C20.7454 22.902 20.79 22.8723 20.79 22.836C20.79 22.7997 20.8494 22.77 20.922 22.77C20.9946 22.77 21.054 22.7403 21.054 22.704C21.054 22.6677 21.1431 22.638 21.252 22.638C21.3609 22.638 21.45 22.6083 21.45 22.572C21.45 22.5357 21.5094 22.506 21.582 22.506C21.6546 22.506 21.714 22.4763 21.714 22.44C21.714 22.4037 21.7734 22.374 21.846 22.374C21.9186 22.374 21.978 22.3443 21.978 22.308C21.978 22.2717 22.0374 22.242 22.11 22.242C22.1826 22.242 22.242 22.2123 22.242 22.176C22.242 22.1397 22.3311 22.11 22.44 22.11C22.5489 22.11 22.638 22.0803 22.638 22.044C22.638 22.0077 22.6974 21.978 22.77 21.978C22.8426 21.978 22.902 21.9483 22.902 21.912C22.902 21.8757 22.9614 21.846 23.034 21.846C23.1066 21.846 23.166 21.8163 23.166 21.78C23.166 21.7437 23.2402 21.714 23.331 21.714C23.4217 21.714 23.496 21.6843 23.496 21.648C23.496 21.6117 23.5851 21.582 23.694 21.582C23.8029 21.582 23.892 21.5523 23.892 21.516C23.892 21.4797 23.9811 21.45 24.09 21.45C24.1989 21.45 24.288 21.4203 24.288 21.384C24.288 21.3477 24.3474 21.318 24.42 21.318C24.4926 21.318 24.552 21.2883 24.552 21.252C24.552 21.2157 24.6411 21.186 24.75 21.186C24.8589 21.186 24.948 21.1563 24.948 21.12C24.948 21.0837 25.0668 21.054 25.212 21.054C25.3572 21.054 25.476 21.0243 25.476 20.988C25.476 20.9517 25.5651 20.922 25.674 20.922C25.7829 20.922 25.872 20.8923 25.872 20.856C25.872 20.8197 25.9759 20.79 26.103 20.79C26.23 20.79 26.334 20.7626 26.334 20.729C26.334 20.6955 26.6013 20.6469 26.928 20.6214C27.2547 20.596 27.522 20.5491 27.522 20.5174C27.522 20.4859 27.6705 20.46 27.852 20.46C28.0335 20.46 28.182 20.4303 28.182 20.394C28.182 20.3567 28.3689 20.328 28.611 20.328C28.853 20.328 29.04 20.2993 29.04 20.262C29.04 20.2229 29.282 20.196 29.634 20.196C29.9859 20.196 30.228 20.1691 30.228 20.13C30.228 20.0883 30.701 20.064 31.515 20.064C32.3289 20.064 32.802 20.0397 32.802 19.998C32.802 19.9617 32.9208 19.932 33.066 19.932C33.2112 19.932 33.33 19.9617 33.33 19.998C33.33 20.0397 33.803 20.064 34.617 20.064C35.4309 20.064 35.904 20.0883 35.904 20.13C35.904 20.1684 36.1239 20.196 36.432 20.196C36.74 20.196 36.96 20.2236 36.96 20.262C36.96 20.2993 37.1469 20.328 37.389 20.328C37.631 20.328 37.818 20.3567 37.818 20.394C37.818 20.4303 37.9665 20.46 38.148 20.46C38.3295 20.46 38.478 20.4859 38.478 20.5174C38.478 20.5491 38.7453 20.596 39.072 20.6214C39.3987 20.6469 39.666 20.6955 39.666 20.729C39.666 20.7626 39.7848 20.79 39.93 20.79C40.0752 20.79 40.194 20.8197 40.194 20.856C40.194 20.8923 40.2979 20.922 40.425 20.922C40.552 20.922 40.656 20.9517 40.656 20.988C40.656 21.0243 40.7451 21.054 40.854 21.054C40.9629 21.054 41.052 21.0837 41.052 21.12C41.052 21.1563 41.1411 21.186 41.25 21.186C41.3589 21.186 41.448 21.2157 41.448 21.252C41.448 21.2883 41.5371 21.318 41.646 21.318C41.7549 21.318 41.844 21.3477 41.844 21.384C41.844 21.4203 41.9034 21.45 41.976 21.45C42.0486 21.45 42.108 21.4797 42.108 21.516C42.108 21.5523 42.1971 21.582 42.306 21.582C42.4149 21.582 42.504 21.6117 42.504 21.648C42.504 21.6843 42.5931 21.714 42.702 21.714C42.8109 21.714 42.9 21.7437 42.9 21.78C42.9 21.8163 42.9445 21.846 42.999 21.846C43.0534 21.846 43.098 21.8757 43.098 21.912C43.098 21.9483 43.1871 21.978 43.296 21.978C43.4049 21.978 43.494 22.0077 43.494 22.044C43.494 22.0803 43.5534 22.11 43.626 22.11C43.6986 22.11 43.758 22.1397 43.758 22.176C43.758 22.2123 43.8174 22.242 43.89 22.242C43.9626 22.242 44.022 22.2717 44.022 22.308C44.022 22.3443 44.1111 22.374 44.22 22.374C44.3289 22.374 44.418 22.4037 44.418 22.44C44.418 22.4763 44.4774 22.506 44.55 22.506C44.6226 22.506 44.682 22.5357 44.682 22.572C44.682 22.6083 44.7414 22.638 44.814 22.638C44.8866 22.638 44.946 22.6677 44.946 22.704C44.946 22.7403 45.0054 22.77 45.078 22.77C45.1506 22.77 45.21 22.7997 45.21 22.836C45.21 22.8723 45.2694 22.902 45.342 22.902C45.4146 22.902 45.474 22.9317 45.474 22.968C45.474 23.0043 45.5334 23.034 45.606 23.034C45.6786 23.034 45.738 23.0568 45.738 23.0845C45.738 23.1457 46.2279 23.364 46.3655 23.364C46.4196 23.364 46.464 23.3937 46.464 23.43C46.464 23.4663 46.5234 23.496 46.596 23.496C46.6686 23.496 46.728 23.5257 46.728 23.562C46.728 23.5983 46.8171 23.628 46.926 23.628C47.0349 23.628 47.124 23.597 47.124 23.559C47.124 23.4675 46.8197 23.166 46.7273 23.166C46.6874 23.166 46.4798 22.9878 46.266 22.77C46.0521 22.5522 45.8431 22.374 45.8012 22.374C45.7593 22.374 45.6418 22.2849 45.54 22.176C45.4382 22.0671 45.3342 21.978 45.309 21.978C45.2837 21.978 45.1798 21.8889 45.078 21.78C44.9762 21.6711 44.8521 21.582 44.8021 21.582C44.7521 21.582 44.6683 21.5226 44.616 21.45C44.5637 21.3774 44.4789 21.318 44.4277 21.318C44.3764 21.318 44.2865 21.2626 44.2277 21.1949C44.169 21.1271 44.017 21.0489 43.89 21.021C43.7629 20.9931 43.611 20.9149 43.5522 20.8471C43.4935 20.7794 43.397 20.724 43.3377 20.724C43.2785 20.724 43.23 20.6943 43.23 20.658C43.23 20.6217 43.1706 20.592 43.098 20.592C43.0254 20.592 42.966 20.5623 42.966 20.526C42.966 20.4897 42.9066 20.46 42.834 20.46C42.7614 20.46 42.702 20.4303 42.702 20.394C42.702 20.3577 42.6574 20.328 42.603 20.328C42.5485 20.328 42.504 20.2983 42.504 20.262C42.504 20.2257 42.4149 20.196 42.306 20.196C42.1971 20.196 42.108 20.1663 42.108 20.13C42.108 20.0937 42.0486 20.064 41.976 20.064C41.9034 20.064 41.844 20.0343 41.844 19.998C41.844 19.9617 41.7846 19.932 41.712 19.932C41.6394 19.932 41.58 19.9023 41.58 19.866C41.58 19.8297 41.4909 19.8 41.382 19.8C41.2731 19.8 41.184 19.7703 41.184 19.734C41.184 19.6977 41.1246 19.668 41.052 19.668C40.9794 19.668 40.92 19.6383 40.92 19.602C40.92 19.5657 40.8309 19.536 40.722 19.536C40.6131 19.536 40.524 19.5063 40.524 19.47C40.524 19.4337 40.4349 19.404 40.326 19.404C40.2171 19.404 40.128 19.3743 40.128 19.338C40.128 19.3017 40.0537 19.272 39.963 19.272C39.8722 19.272 39.798 19.2423 39.798 19.206C39.798 19.1697 39.6792 19.14 39.534 19.14C39.3888 19.14 39.27 19.1103 39.27 19.074C39.27 19.0377 39.1512 19.008 39.006 19.008C38.8608 19.008 38.742 18.9783 38.742 18.942C38.742 18.9057 38.6529 18.876 38.544 18.876C38.4351 18.876 38.346 18.8463 38.346 18.81C38.346 18.7737 38.3757 18.744 38.412 18.744C38.4483 18.744 38.478 18.6846 38.478 18.612C38.478 18.5394 38.5077 18.48 38.544 18.48C38.5803 18.48 38.61 18.4333 38.61 18.3762C38.61 18.3193 38.6524 18.2302 38.7042 18.1782C38.811 18.0716 39.27 18.0487 39.27 18.15C39.27 18.1866 39.446 18.216 39.666 18.216C39.8859 18.216 40.062 18.2454 40.062 18.282C40.062 18.3183 40.1956 18.348 40.359 18.348C40.5223 18.348 40.656 18.3777 40.656 18.414C40.656 18.4503 40.7748 18.48 40.92 18.48C41.0652 18.48 41.184 18.5097 41.184 18.546C41.184 18.5823 41.2731 18.612 41.382 18.612C41.4909 18.612 41.58 18.6417 41.58 18.678C41.58 18.7143 41.6988 18.744 41.844 18.744C41.9892 18.744 42.108 18.7737 42.108 18.81C42.108 18.8463 42.1971 18.876 42.306 18.876C42.4149 18.876 42.504 18.9057 42.504 18.942C42.504 18.9783 42.5931 19.008 42.702 19.008C42.8109 19.008 42.9 19.0377 42.9 19.074C42.9 19.1103 42.9445 19.14 42.999 19.14C43.0534 19.14 43.098 19.1697 43.098 19.206C43.098 19.2423 43.1871 19.272 43.296 19.272C43.4049 19.272 43.494 19.3017 43.494 19.338C43.494 19.3743 43.5534 19.404 43.626 19.404C43.6986 19.404 43.758 19.4337 43.758 19.47C43.758 19.5063 43.8174 19.536 43.89 19.536C43.9626 19.536 44.022 19.5657 44.022 19.602C44.022 19.6383 44.0814 19.668 44.154 19.668C44.2266 19.668 44.286 19.6977 44.286 19.734C44.286 19.7703 44.3454 19.8 44.418 19.8C44.4906 19.8 44.55 19.8297 44.55 19.866C44.55 19.9023 44.6094 19.932 44.682 19.932C44.7546 19.932 44.814 19.9617 44.814 19.998C44.814 20.0343 44.8734 20.064 44.946 20.064C45.0186 20.064 45.078 20.0937 45.078 20.13C45.078 20.1663 45.1374 20.196 45.21 20.196C45.2826 20.196 45.342 20.2257 45.342 20.262C45.342 20.2983 45.4014 20.328 45.474 20.328C45.5466 20.328 45.606 20.3516 45.606 20.3805C45.606 20.4093 45.7396 20.4881 45.903 20.5554C46.0663 20.6229 46.2 20.703 46.2 20.7339C46.2 20.7648 46.2594 20.79 46.332 20.79C46.4046 20.79 46.464 20.8197 46.464 20.856C46.464 20.8923 46.5168 20.922 46.5815 20.922C46.646 20.922 46.7417 20.9814 46.794 21.054C46.8463 21.1266 46.9354 21.186 46.992 21.186C47.0486 21.186 47.1377 21.2454 47.19 21.318C47.2423 21.3906 47.3314 21.45 47.388 21.45C47.4446 21.45 47.5337 21.5094 47.586 21.582C47.6383 21.6546 47.734 21.714 47.7985 21.714C47.8671 21.714 47.916 21.7628 47.916 21.8315C47.916 21.896 47.9754 21.9917 48.048 22.044C48.1206 22.0963 48.18 22.192 48.18 22.2565C48.18 22.3212 48.2097 22.374 48.246 22.374C48.2823 22.374 48.312 22.4207 48.312 22.4778C48.312 22.5347 48.3565 22.626 48.411 22.6804C48.4654 22.7349 48.51 22.8367 48.51 22.9068C48.51 22.9767 48.5341 23.034 48.5636 23.034C48.5931 23.034 48.6582 23.138 48.708 23.265C48.7578 23.3921 48.8228 23.496 48.8524 23.496C48.8819 23.496 48.906 23.5554 48.906 23.628C48.906 23.7006 48.9357 23.76 48.972 23.76C49.0083 23.76 49.038 23.8194 49.038 23.892C49.038 23.9646 49.0677 24.024 49.104 24.024C49.1403 24.024 49.17 24.0834 49.17 24.156C49.17 24.2286 49.1997 24.288 49.236 24.288C49.2723 24.288 49.302 24.3474 49.302 24.42C49.302 24.4926 49.3317 24.552 49.368 24.552C49.4043 24.552 49.434 24.6114 49.434 24.684C49.434 24.7566 49.4637 24.816 49.5 24.816C49.5363 24.816 49.566 24.8754 49.566 24.948C49.566 25.0206 49.5957 25.08 49.632 25.08C49.6683 25.08 49.698 25.1691 49.698 25.278C49.698 25.3869 49.7277 25.476 49.764 25.476C49.8003 25.476 49.83 25.5354 49.83 25.608C49.83 25.6806 49.8597 25.74 49.896 25.74C49.9323 25.74 49.962 25.8291 49.962 25.938C49.962 26.0469 49.9917 26.136 50.028 26.136C50.0643 26.136 50.094 26.1806 50.094 26.235C50.094 26.2895 50.1237 26.334 50.16 26.334C50.1963 26.334 50.226 26.4231 50.226 26.532C50.226 26.6409 50.2557 26.73 50.292 26.73C50.3283 26.73 50.358 26.7894 50.358 26.862C50.358 26.9346 50.3877 26.994 50.424 26.994C50.4603 26.994 50.49 27.0831 50.49 27.192C50.49 27.3009 50.5197 27.39 50.556 27.39C50.5923 27.39 50.622 27.4791 50.622 27.588C50.622 27.6969 50.6517 27.786 50.688 27.786C50.7243 27.786 50.754 27.8454 50.754 27.918C50.754 27.9906 50.7837 28.05 50.82 28.05C50.8563 28.05 50.886 28.1391 50.886 28.248C50.886 28.3569 50.9157 28.446 50.952 28.446C50.9883 28.446 51.018 28.5351 51.018 28.644C51.018 28.7529 51.0442 28.842 51.0762 28.842C51.1084 28.842 51.1553 29.0351 51.1805 29.271C51.2058 29.507 51.2538 29.7 51.2873 29.7C51.3206 29.7 51.348 29.7891 51.348 29.898C51.348 30.0069 51.3777 30.096 51.414 30.096C51.4503 30.096 51.48 30.2148 51.48 30.36C51.48 30.5052 51.5097 30.624 51.546 30.624C51.5823 30.624 51.612 30.7131 51.612 30.822C51.612 30.9309 51.6417 31.02 51.678 31.02C51.7143 31.02 51.744 31.1388 51.744 31.284C51.744 31.4292 51.7737 31.548 51.81 31.548C51.8463 31.548 51.876 31.652 51.876 31.779C51.876 31.9061 51.9057 32.01 51.942 32.01C51.9783 32.01 52.008 32.1288 52.008 32.274C52.008 32.4192 52.0377 32.538 52.074 32.538C52.1103 32.538 52.14 32.6568 52.14 32.802C52.14 32.9472 52.1697 33.066 52.206 33.066C52.2423 33.066 52.272 33.1848 52.272 33.33C52.272 33.4752 52.3017 33.594 52.338 33.594C52.3743 33.594 52.404 33.7425 52.404 33.924C52.404 34.1055 52.4337 34.254 52.47 34.254C52.5063 34.254 52.536 34.3876 52.536 34.551C52.536 34.7144 52.5657 34.848 52.602 34.848C52.6386 34.848 52.668 35.0241 52.668 35.244C52.668 35.4639 52.6974 35.64 52.734 35.64C52.7706 35.64 52.8 35.8161 52.8 36.036C52.8 36.2559 52.8294 36.432 52.866 36.432C52.9023 36.432 52.932 36.5954 52.932 36.795C52.932 36.9947 52.9617 37.158 52.998 37.158C53.0358 37.158 53.064 37.356 53.064 37.62C53.064 37.884 53.0922 38.082 53.13 38.082C53.1684 38.082 53.196 38.3019 53.196 38.61C53.196 38.9181 53.2235 39.138 53.262 39.138C53.3008 39.138 53.328 39.369 53.328 39.699C53.328 40.029 53.3552 40.26 53.394 40.26C53.4346 40.26 53.46 40.59 53.46 41.118C53.46 41.646 53.4854 41.976 53.526 41.976C53.722 41.976 53.5669 42.3552 53.2559 42.636C53.075 42.7993 52.6761 43.178 52.3695 43.4775C52.0628 43.777 51.7788 44.022 51.7384 44.022C51.698 44.022 51.5818 44.1111 51.48 44.22C51.3782 44.3289 51.2742 44.418 51.249 44.418C51.2237 44.418 51.1198 44.5071 51.018 44.616C50.9162 44.7249 50.7921 44.814 50.7421 44.814C50.6921 44.814 50.6083 44.8734 50.556 44.946C50.5037 45.0186 50.4146 45.078 50.358 45.078C50.3014 45.078 50.2123 45.1374 50.16 45.21C50.1077 45.2826 50.012 45.342 49.9475 45.342C49.8828 45.342 49.83 45.3717 49.83 45.408C49.83 45.4443 49.7772 45.474 49.7125 45.474C49.648 45.474 49.5536 45.5317 49.5028 45.6022C49.452 45.6727 49.2969 45.7495 49.1581 45.773C49.0195 45.7964 48.906 45.8372 48.906 45.8636C48.906 45.8898 48.802 45.9522 48.675 46.002C48.5479 46.0518 48.444 46.1168 48.444 46.1464C48.444 46.1759 48.3549 46.2 48.246 46.2C48.1371 46.2 48.048 46.2297 48.048 46.266C48.048 46.3023 47.9886 46.332 47.916 46.332C47.8434 46.332 47.784 46.3617 47.784 46.398C47.784 46.4343 47.7246 46.464 47.652 46.464C47.5794 46.464 47.52 46.4937 47.52 46.53C47.52 46.5663 47.4309 46.596 47.322 46.596C47.2131 46.596 47.124 46.6257 47.124 46.662C47.124 46.6983 47.0646 46.728 46.992 46.728C46.9194 46.728 46.86 46.7577 46.86 46.794C46.86 46.8303 46.7709 46.86 46.662 46.86C46.5531 46.86 46.464 46.8897 46.464 46.926C46.464 46.9623 46.3749 46.992 46.266 46.992C46.1571 46.992 46.068 47.0217 46.068 47.058C46.068 47.0943 45.964 47.124 45.837 47.124C45.7099 47.124 45.606 47.1537 45.606 47.19C45.606 47.2263 45.5169 47.256 45.408 47.256C45.2991 47.256 45.21 47.2857 45.21 47.322C45.21 47.3583 45.0912 47.388 44.946 47.388C44.8008 47.388 44.682 47.4177 44.682 47.454C44.682 47.4903 44.5335 47.52 44.352 47.52C44.1705 47.52 44.022 47.5497 44.022 47.586C44.022 47.6226 43.8459 47.652 43.626 47.652C43.406 47.652 43.23 47.6814 43.23 47.718C43.23 47.7568 42.999 47.784 42.669 47.784C42.339 47.784 42.108 47.8112 42.108 47.85C42.108 47.8863 42.003 47.916 41.8748 47.916C41.64 47.916 41.184 47.5645 41.184 47.3837C41.184 47.3426 41.0949 47.2258 40.986 47.124C40.8771 47.0222 40.788 46.9034 40.788 46.86C40.788 46.8166 40.6989 46.6978 40.59 46.596C40.4811 46.4942 40.392 46.3701 40.392 46.3201C40.392 46.2701 40.3326 46.1863 40.26 46.134C40.1874 46.0817 40.128 46.0157 40.128 45.9875C40.128 45.9591 40.1874 45.936 40.26 45.936C40.3326 45.936 40.392 45.9063 40.392 45.87C40.392 45.8337 40.4811 45.804 40.59 45.804C40.6989 45.804 40.788 45.7743 40.788 45.738C40.788 45.7017 40.8474 45.672 40.92 45.672C40.9926 45.672 41.052 45.6423 41.052 45.606C41.052 45.5697 41.1411 45.54 41.25 45.54C41.3589 45.54 41.448 45.5129 41.448 45.4798C41.448 45.4466 41.5668 45.3996 41.712 45.375C41.8572 45.3504 41.976 45.3034 41.976 45.2702C41.976 45.2371 42.0354 45.21 42.108 45.21C42.1806 45.21 42.24 45.1859 42.24 45.1564C42.24 45.1268 42.3439 45.0618 42.471 45.012C42.598 44.9622 42.702 44.8972 42.702 44.8676C42.702 44.8381 42.7614 44.814 42.834 44.814C42.9066 44.814 42.966 44.7843 42.966 44.748C42.966 44.7117 43.0188 44.682 43.0835 44.682C43.148 44.682 43.2437 44.6226 43.296 44.55C43.3483 44.4774 43.444 44.418 43.5085 44.418C43.5732 44.418 43.626 44.3883 43.626 44.352C43.626 44.3157 43.6788 44.286 43.7435 44.286C43.808 44.286 43.9037 44.2266 43.956 44.154C44.0083 44.0814 44.0974 44.022 44.154 44.022C44.2106 44.022 44.2997 43.9626 44.352 43.89C44.4043 43.8174 44.4934 43.758 44.55 43.758C44.6066 43.758 44.6957 43.6986 44.748 43.626C44.8003 43.5534 44.8841 43.494 44.9341 43.494C44.9841 43.494 45.1082 43.4049 45.21 43.296C45.3118 43.1871 45.4138 43.098 45.4367 43.098C45.4596 43.098 45.5824 42.994 45.7094 42.867C45.8365 42.7399 45.9842 42.636 46.0378 42.636C46.1896 42.636 48.065 40.7293 48.0222 40.6184C47.9691 40.4798 47.6959 40.5034 47.586 40.656C47.5337 40.7286 47.4446 40.788 47.388 40.788C47.3314 40.788 47.2423 40.8474 47.19 40.92C47.1377 40.9926 47.0486 41.052 46.992 41.052C46.9354 41.052 46.8463 41.1114 46.794 41.184C46.7417 41.2566 46.6526 41.316 46.596 41.316C46.5394 41.316 46.4503 41.3754 46.398 41.448C46.3457 41.5206 46.25 41.58 46.1855 41.58C46.1208 41.58 46.068 41.6097 46.068 41.646C46.068 41.6823 46.0106 41.712 45.9404 41.712C45.8703 41.712 45.7941 41.7714 45.771 41.844C45.7479 41.9166 45.6783 41.976 45.6161 41.976C45.554 41.976 45.4603 42.0354 45.408 42.108C45.3557 42.1806 45.26 42.24 45.1955 42.24C45.1308 42.24 45.078 42.2697 45.078 42.306C45.078 42.3423 45.0186 42.372 44.946 42.372C44.8734 42.372 44.814 42.4017 44.814 42.438C44.814 42.4743 44.7546 42.504 44.682 42.504C44.6094 42.504 44.55 42.5337 44.55 42.57C44.55 42.6063 44.4906 42.636 44.418 42.636C44.3454 42.636 44.286 42.6657 44.286 42.702C44.286 42.7383 44.2266 42.768 44.154 42.768C44.0814 42.768 44.022 42.7967 44.022 42.8317C44.022 42.8668 43.8735 42.9152 43.692 42.9393C43.5105 42.9634 43.362 43.0033 43.362 43.0282C43.362 43.053 43.258 43.1142 43.131 43.164C43.0039 43.2138 42.9 43.2788 42.9 43.3084C42.9 43.3379 42.8109 43.362 42.702 43.362C42.5931 43.362 42.504 43.3917 42.504 43.428C42.504 43.4643 42.4149 43.494 42.306 43.494C42.1971 43.494 42.108 43.5237 42.108 43.56C42.108 43.5963 42.0189 43.626 41.91 43.626C41.8011 43.626 41.712 43.6557 41.712 43.692C41.712 43.7283 41.6526 43.758 41.58 43.758C41.5074 43.758 41.448 43.7877 41.448 43.824C41.448 43.8603 41.3292 43.89 41.184 43.89C41.0388 43.89 40.92 43.9197 40.92 43.956C40.92 43.9923 40.8309 44.022 40.722 44.022C40.6131 44.022 40.524 44.0517 40.524 44.088C40.524 44.1243 40.42 44.154 40.293 44.154C40.1659 44.154 40.062 44.1837 40.062 44.22C40.062 44.2563 39.9432 44.286 39.798 44.286C39.6528 44.286 39.534 44.3157 39.534 44.352C39.534 44.3883 39.4152 44.418 39.27 44.418C39.1248 44.418 39.006 44.4477 39.006 44.484C39.006 44.5203 38.8575 44.55 38.676 44.55C38.4945 44.55 38.346 44.5797 38.346 44.616C38.346 44.6526 38.1699 44.682 37.95 44.682C37.73 44.682 37.554 44.7114 37.554 44.748C37.554 44.7861 37.3449 44.814 37.059 44.814C36.773 44.814 36.564 44.8419 36.564 44.88C36.564 44.9196 36.3 44.946 35.904 44.946C35.508 44.946 35.244 44.9724 35.244 45.012C35.244 45.0547 34.4739 45.078 33.066 45.078C31.658 45.078 30.888 45.0547 30.888 45.012C30.888 44.9721 30.602 44.946 30.162 44.946C29.7219 44.946 29.436 44.9199 29.436 44.88C29.436 44.8427 29.249 44.814 29.007 44.814C28.7649 44.814 28.578 44.7853 28.578 44.748C28.578 44.7114 28.4019 44.682 28.182 44.682C27.962 44.682 27.786 44.6526 27.786 44.616C27.786 44.5797 27.6375 44.55 27.456 44.55C27.2745 44.55 27.126 44.5203 27.126 44.484C27.126 44.4477 26.9775 44.418 26.796 44.418C26.6145 44.418 26.466 44.3883 26.466 44.352C26.466 44.3157 26.362 44.286 26.235 44.286C26.1079 44.286 26.004 44.2563 26.004 44.22C26.004 44.1837 25.9149 44.154 25.806 44.154C25.6971 44.154 25.608 44.1243 25.608 44.088C25.608 44.0517 25.4892 44.022 25.344 44.022C25.1988 44.022 25.08 43.9923 25.08 43.956C25.08 43.9197 24.9909 43.89 24.882 43.89C24.7731 43.89 24.684 43.8603 24.684 43.824C24.684 43.7877 24.5949 43.758 24.486 43.758C24.3771 43.758 24.288 43.7283 24.288 43.692C24.288 43.6557 24.1989 43.626 24.09 43.626C23.9811 43.626 23.892 43.5963 23.892 43.56C23.892 43.5237 23.8029 43.494 23.694 43.494C23.5851 43.494 23.4958 43.4717 23.4955 43.4445C23.4948 43.3775 23.1683 43.23 23.0208 43.23C22.9554 43.23 22.902 43.2003 22.902 43.164C22.902 43.1277 22.8426 43.098 22.77 43.098C22.6974 43.098 22.638 43.0709 22.638 43.0378C22.638 43.0046 22.5192 42.9576 22.374 42.933C22.2288 42.9084 22.11 42.8614 22.11 42.8282C22.11 42.7951 22.0506 42.768 21.978 42.768C21.9054 42.768 21.846 42.7383 21.846 42.702C21.846 42.6657 21.7866 42.636 21.714 42.636C21.6414 42.636 21.582 42.6063 21.582 42.57C21.582 42.5337 21.5226 42.504 21.45 42.504C21.3774 42.504 21.318 42.4743 21.318 42.438C21.318 42.4017 21.2586 42.372 21.186 42.372C21.1134 42.372 21.054 42.3423 21.054 42.306C21.054 42.2697 20.9946 42.24 20.922 42.24C20.8494 42.24 20.79 42.2103 20.79 42.174C20.79 42.1377 20.752 42.108 20.7055 42.108C20.6591 42.108 20.5783 42.0486 20.526 41.976C20.4737 41.9034 20.378 41.844 20.3135 41.844C20.2488 41.844 20.196 41.8143 20.196 41.778C20.196 41.7417 20.1432 41.712 20.0785 41.712C20.014 41.712 19.9183 41.6526 19.866 41.58C19.8137 41.5074 19.718 41.448 19.6535 41.448C19.5888 41.448 19.536 41.4183 19.536 41.382C19.536 41.3457 19.4885 41.316 19.4304 41.316C19.3725 41.316 19.2418 41.2269 19.14 41.118C19.0382 41.0091 18.9141 40.92 18.8641 40.92C18.8141 40.92 18.7303 40.8606 18.678 40.788C18.6257 40.7154 18.5366 40.656 18.48 40.656C18.4234 40.656 18.3343 40.5966 18.282 40.524C18.1691 40.3674 18.018 40.3501 18.018 40.4938C18.018 40.589 18.0602 40.6557 18.2655 40.8845C18.3109 40.9352 18.348 41.0089 18.348 41.0484C18.348 41.1401 19.3131 42.108 19.4046 42.108C19.4424 42.108 19.6046 42.2342 19.7648 42.3885C20.1569 42.7659 20.2435 42.834 20.3303 42.834C20.371 42.834 20.5184 42.9528 20.658 43.098C20.7976 43.2432 20.9372 43.362 20.9682 43.362C20.9994 43.362 21.0677 43.4214 21.12 43.494C21.1723 43.5666 21.2561 43.626 21.3061 43.626C21.3561 43.626 21.4802 43.7151 21.582 43.824C21.6838 43.9329 21.8145 44.022 21.8724 44.022C21.9305 44.022 21.978 44.0517 21.978 44.088C21.978 44.1243 22.0308 44.154 22.0955 44.154C22.16 44.154 22.2557 44.2134 22.308 44.286C22.3603 44.3586 22.456 44.418 22.5205 44.418C22.5852 44.418 22.638 44.4477 22.638 44.484C22.638 44.5203 22.6908 44.55 22.7555 44.55C22.82 44.55 22.9157 44.6094 22.968 44.682C23.0203 44.7546 23.116 44.814 23.1805 44.814C23.2452 44.814 23.298 44.8437 23.298 44.88C23.298 44.9163 23.3549 44.946 23.4245 44.946C23.494 44.946 23.5608 44.9683 23.573 44.9955C23.6117 45.0825 24.1802 45.3354 24.4365 45.3798C24.5726 45.4034 24.684 45.4491 24.684 45.4814C24.684 45.5136 24.7434 45.54 24.816 45.54C24.8886 45.54 24.948 45.5697 24.948 45.606C24.948 45.6423 25.0371 45.672 25.146 45.672C25.2549 45.672 25.344 45.7017 25.344 45.738C25.344 45.7743 25.4034 45.804 25.476 45.804C25.5486 45.804 25.608 45.8337 25.608 45.87C25.608 45.9063 25.6674 45.936 25.74 45.936C25.9334 45.936 25.903 46.1182 25.674 46.332C25.5651 46.4338 25.476 46.5526 25.476 46.596C25.476 46.6394 25.3869 46.7582 25.278 46.86C25.1691 46.9618 25.08 47.0806 25.08 47.124C25.08 47.1674 24.9909 47.2862 24.882 47.388C24.7731 47.4898 24.684 47.6078 24.684 47.6502C24.684 47.8102 24.489 47.916 24.1938 47.916C24.0278 47.916 23.892 47.8863 23.892 47.85C23.892 47.8119 23.6829 47.784 23.397 47.784C23.111 47.784 22.902 47.7561 22.902 47.718C22.902 47.6802 22.704 47.652 22.44 47.652C22.176 47.652 21.978 47.6238 21.978 47.586C21.978 47.5497 21.8592 47.52 21.714 47.52C21.5688 47.52 21.45 47.4903 21.45 47.454C21.45 47.4177 21.3312 47.388 21.186 47.388C21.0408 47.388 20.922 47.3583 20.922 47.322C20.922 47.2857 20.818 47.256 20.691 47.256C20.5639 47.256 20.46 47.2263 20.46 47.19C20.46 47.1537 20.3709 47.124 20.262 47.124C20.1531 47.124 20.064 47.0943 20.064 47.058C20.064 47.0217 19.9749 46.992 19.866 46.992C19.7571 46.992 19.668 46.9623 19.668 46.926C19.668 46.8897 19.5789 46.86 19.47 46.86C19.3611 46.86 19.272 46.8303 19.272 46.794C19.272 46.7577 19.1829 46.728 19.074 46.728C18.9651 46.728 18.876 46.6983 18.876 46.662C18.876 46.6257 18.7869 46.596 18.678 46.596C18.5691 46.596 18.48 46.5663 18.48 46.53C18.48 46.4937 18.4206 46.464 18.348 46.464C18.2754 46.464 18.216 46.4343 18.216 46.398C18.216 46.3617 18.1566 46.332 18.084 46.332C18.0114 46.332 17.952 46.3023 17.952 46.266C17.952 46.2297 17.9074 46.2 17.853 46.2C17.7985 46.2 17.754 46.1703 17.754 46.134C17.754 46.0977 17.6946 46.068 17.622 46.068C17.5494 46.068 17.49 46.0383 17.49 46.002C17.49 45.9657 17.4306 45.936 17.358 45.936C17.2854 45.936 17.226 45.9089 17.226 45.8758C17.226 45.8426 17.1072 45.7956 16.962 45.771C16.8168 45.7464 16.698 45.6994 16.698 45.6662C16.698 45.6331 16.6386 45.606 16.566 45.606C16.4934 45.606 16.434 45.5763 16.434 45.54C16.434 45.5037 16.3812 45.474 16.3165 45.474C16.252 45.474 16.1563 45.4146 16.104 45.342C16.0517 45.2694 15.9626 45.21 15.906 45.21C15.8494 45.21 15.7603 45.1506 15.708 45.078C15.6557 45.0054 15.5666 44.946 15.51 44.946C15.4534 44.946 15.3643 44.8866 15.312 44.814C15.2597 44.7414 15.1907 44.682 15.1589 44.682C15.127 44.682 15.0178 44.5929 14.916 44.484C14.8142 44.3751 14.6965 44.286 14.6543 44.286C14.6121 44.286 14.4327 44.1375 14.256 43.956C14.0793 43.7745 13.9022 43.626 13.8628 43.626C13.8234 43.626 13.6298 43.4701 13.4326 43.2795C13.2356 43.0889 12.9555 42.829 12.8103 42.702L12.5461 42.471L12.543 41.6955C12.5411 41.2205 12.5656 40.92 12.606 40.92C12.6458 40.92 12.672 40.6449 12.672 40.227C12.672 39.8091 12.6982 39.534 12.738 39.534C12.7764 39.534 12.804 39.3141 12.804 39.006C12.804 38.6979 12.8315 38.478 12.87 38.478C12.9084 38.478 12.936 38.2581 12.936 37.95C12.936 37.6419 12.9635 37.422 13.002 37.422C13.0383 37.422 13.068 37.2587 13.068 37.059C13.068 36.8594 13.0977 36.696 13.134 36.696C13.1718 36.696 13.2 36.498 13.2 36.234C13.2 35.97 13.2282 35.772 13.266 35.772C13.3023 35.772 13.332 35.6235 13.332 35.442C13.332 35.2605 13.3617 35.112 13.398 35.112C13.4343 35.112 13.464 34.9635 13.464 34.782C13.464 34.6005 13.4937 34.452 13.53 34.452C13.5663 34.452 13.596 34.3184 13.596 34.155C13.596 33.9917 13.6257 33.858 13.662 33.858C13.6983 33.858 13.728 33.7095 13.728 33.528C13.728 33.3465 13.7577 33.198 13.794 33.198C13.8303 33.198 13.86 33.0792 13.86 32.934C13.86 32.7888 13.8897 32.67 13.926 32.67C13.9623 32.67 13.992 32.5512 13.992 32.406C13.992 32.2608 14.0217 32.142 14.058 32.142C14.0943 32.142 14.124 32.0232 14.124 31.878C14.124 31.7328 14.1537 31.614 14.19 31.614C14.2263 31.614 14.256 31.5101 14.256 31.383C14.256 31.256 14.2857 31.152 14.322 31.152C14.3583 31.152 14.388 31.0332 14.388 30.888C14.388 30.7428 14.4177 30.624 14.454 30.624C14.4903 30.624 14.52 30.5349 14.52 30.426C14.52 30.3171 14.5497 30.228 14.586 30.228C14.6223 30.228 14.652 30.1092 14.652 29.964C14.652 29.8188 14.6817 29.7 14.718 29.7C14.7543 29.7 14.784 29.6109 14.784 29.502C14.784 29.3931 14.8137 29.304 14.85 29.304C14.8863 29.304 14.916 29.2149 14.916 29.106C14.916 28.9971 14.9435 28.908 14.9772 28.908C15.0109 28.908 15.0589 28.7447 15.0838 28.545C15.1087 28.3454 15.1554 28.182 15.1876 28.182C15.2198 28.182 15.246 28.0929 15.246 27.984C15.246 27.8751 15.2757 27.786 15.312 27.786C15.3483 27.786 15.378 27.7266 15.378 27.654C15.378 27.5814 15.4077 27.522 15.444 27.522C15.4803 27.522 15.51 27.4329 15.51 27.324C15.51 27.2151 15.5397 27.126 15.576 27.126C15.6123 27.126 15.642 27.0369 15.642 26.928C15.642 26.8191 15.6717 26.73 15.708 26.73C15.7443 26.73 15.774 26.6706 15.774 26.598C15.774 26.5254 15.8037 26.466 15.84 26.466C15.8763 26.466 15.906 26.3918 15.906 26.301C15.906 26.2103 15.9357 26.136 15.972 26.136C16.0083 26.136 16.038 26.0766 16.038 26.004C16.038 25.9314 16.0677 25.872 16.104 25.872C16.1403 25.872 16.17 25.7829 16.17 25.674C16.17 25.5651 16.1997 25.476 16.236 25.476C16.2723 25.476 16.302 25.4166 16.302 25.344C16.302 25.2714 16.3317 25.212 16.368 25.212C16.4043 25.212 16.434 25.1526 16.434 25.08C16.434 25.0074 16.4637 24.948 16.5 24.948C16.5363 24.948 16.566 24.8589 16.566 24.75C16.566 24.6411 16.5957 24.552 16.632 24.552C16.6683 24.552 16.698 24.4926 16.698 24.42C16.698 24.3474 16.7277 24.288 16.764 24.288C16.8003 24.288 16.83 24.2286 16.83 24.156C16.83 24.0834 16.8597 24.024 16.896 24.024C16.9323 24.024 16.962 23.9646 16.962 23.892C16.962 23.8194 16.9917 23.76 17.028 23.76C17.0643 23.76 17.094 23.7006 17.094 23.628C17.094 23.5554 17.1237 23.496 17.16 23.496C17.1963 23.496 17.226 23.4515 17.226 23.397C17.226 23.3426 17.2557 23.298 17.292 23.298C17.3283 23.298 17.358 23.2452 17.358 23.1805C17.358 23.116 17.4174 23.0203 17.49 22.968C17.5626 22.9157 17.622 22.82 17.622 22.7555C17.622 22.6908 17.6517 22.638 17.688 22.638C17.7243 22.638 17.754 22.5786 17.754 22.506C17.754 22.4334 17.7832 22.374 17.8187 22.374C17.8543 22.374 17.9035 22.2945 17.9279 22.1971C17.9772 22.0006 18.4937 21.45 18.6287 21.45C18.676 21.45 18.7577 21.3906 18.81 21.318C18.8623 21.2454 18.9514 21.186 19.008 21.186C19.0646 21.186 19.1537 21.1266 19.206 21.054C19.2583 20.9814 19.354 20.922 19.4185 20.922C19.4832 20.922 19.536 20.8923 19.536 20.856C19.536 20.8197 19.5827 20.79 19.6398 20.79C19.6967 20.79 19.7879 20.7455 19.8424 20.691C19.8968 20.6366 19.9986 20.592 20.0688 20.592C20.1387 20.592 20.196 20.5679 20.196 20.5384C20.196 20.5088 20.2999 20.4438 20.427 20.394C20.554 20.3442 20.658 20.2792 20.658 20.2496C20.658 20.2201 20.7174 20.196 20.79 20.196C20.8626 20.196 20.922 20.1663 20.922 20.13C20.922 20.0937 20.9814 20.064 21.054 20.064C21.1266 20.064 21.186 20.0343 21.186 19.998C21.186 19.9617 21.2454 19.932 21.318 19.932C21.3906 19.932 21.45 19.9023 21.45 19.866C21.45 19.8297 21.5094 19.8 21.582 19.8C21.6546 19.8 21.714 19.7703 21.714 19.734C21.714 19.6977 21.7734 19.668 21.846 19.668C21.9186 19.668 21.978 19.6383 21.978 19.602C21.978 19.5657 22.0374 19.536 22.11 19.536C22.1826 19.536 22.242 19.5063 22.242 19.47C22.242 19.4337 22.3311 19.404 22.44 19.404C22.5489 19.404 22.638 19.3743 22.638 19.338C22.638 19.3017 22.6974 19.272 22.77 19.272C22.8426 19.272 22.902 19.2423 22.902 19.206C22.902 19.1697 22.9911 19.14 23.1 19.14C23.2089 19.14 23.298 19.1103 23.298 19.074C23.298 19.0377 23.3722 19.008 23.463 19.008C23.5537 19.008 23.628 18.9783 23.628 18.942C23.628 18.9057 23.7171 18.876 23.826 18.876C23.9349 18.876 24.024 18.8463 24.024 18.81C24.024 18.7737 24.1131 18.744 24.222 18.744C24.3309 18.744 24.42 18.7143 24.42 18.678C24.42 18.6417 24.5388 18.612 24.684 18.612C24.8292 18.612 24.948 18.5823 24.948 18.546C24.948 18.5097 25.0668 18.48 25.212 18.48C25.3572 18.48 25.476 18.4503 25.476 18.414C25.476 18.3777 25.6245 18.348 25.806 18.348C25.9875 18.348 26.136 18.3183 26.136 18.282C26.136 18.2457 26.2993 18.216 26.499 18.216C26.6986 18.216 26.862 18.1863 26.862 18.15C26.862 18.1137 26.9808 18.084 27.126 18.084C27.3459 18.084 27.39 18.1059 27.39 18.216ZM26.268 31.086C26.268 31.1223 26.1789 31.152 26.07 31.152C25.9611 31.152 25.872 31.1817 25.872 31.218C25.872 31.2543 25.7895 31.284 25.6885 31.284C25.5808 31.284 25.4659 31.3385 25.41 31.416C25.3577 31.4886 25.2758 31.548 25.2282 31.548C25.1806 31.548 25.0399 31.6445 24.9155 31.7625C24.7912 31.8805 24.5708 32.081 24.4258 32.208C24.2807 32.3351 24.1608 32.491 24.159 32.5545C24.1573 32.618 24.1263 32.67 24.09 32.67C24.0537 32.67 24.024 32.7294 24.024 32.802C24.024 32.8746 23.9943 32.934 23.958 32.934C23.9217 32.934 23.892 32.9909 23.892 33.0606C23.892 33.13 23.8608 33.1973 23.8229 33.21C23.7847 33.2228 23.7361 33.4034 23.7146 33.6115C23.6932 33.8197 23.6499 33.99 23.6187 33.99C23.5876 33.99 23.562 34.3909 23.562 34.881C23.562 35.3711 23.5876 35.772 23.6187 35.772C23.6499 35.772 23.6928 35.94 23.7141 36.1454C23.7352 36.3507 23.777 36.5363 23.8067 36.5579C23.8364 36.5793 23.9346 36.7452 24.0248 36.9263C24.1954 37.2687 25.0797 38.214 25.2293 38.214C25.2763 38.214 25.3577 38.2734 25.41 38.346C25.4659 38.4235 25.5808 38.478 25.6885 38.478C25.7895 38.478 25.872 38.5077 25.872 38.544C25.872 38.5803 25.9611 38.61 26.07 38.61C26.1789 38.61 26.268 38.6397 26.268 38.676C26.268 38.7154 26.5209 38.742 26.895 38.742C27.269 38.742 27.522 38.7154 27.522 38.676C27.522 38.6397 27.6408 38.61 27.786 38.61C27.9312 38.61 28.05 38.5803 28.05 38.544C28.05 38.5077 28.1094 38.478 28.182 38.478C28.2546 38.478 28.314 38.4483 28.314 38.412C28.314 38.3757 28.3668 38.346 28.4315 38.346C28.496 38.346 28.5917 38.2866 28.644 38.214C28.6963 38.1414 28.7631 38.082 28.7923 38.082C28.8804 38.082 29.436 37.4981 29.436 37.4053C29.436 37.358 29.4954 37.2763 29.568 37.224C29.6406 37.1717 29.7 37.0908 29.7 37.0445C29.7 36.998 29.7297 36.96 29.766 36.96C29.8023 36.96 29.832 36.9006 29.832 36.828C29.832 36.7554 29.8617 36.696 29.898 36.696C29.9343 36.696 29.964 36.6366 29.964 36.564C29.964 36.4914 29.9937 36.432 30.03 36.432C30.0663 36.432 30.096 36.3429 30.096 36.234C30.096 36.1251 30.1257 36.036 30.162 36.036C30.1998 36.036 30.228 35.838 30.228 35.574C30.228 35.31 30.2562 35.112 30.294 35.112C30.3303 35.112 30.36 35.008 30.36 34.881C30.36 34.754 30.3303 34.65 30.294 34.65C30.2562 34.65 30.228 34.452 30.228 34.188C30.228 33.924 30.1998 33.726 30.162 33.726C30.1257 33.726 30.096 33.6369 30.096 33.528C30.096 33.4191 30.0663 33.33 30.03 33.33C29.9937 33.33 29.964 33.2706 29.964 33.198C29.964 33.1254 29.9343 33.066 29.898 33.066C29.8617 33.066 29.832 33.0066 29.832 32.934C29.832 32.8614 29.8023 32.802 29.766 32.802C29.7297 32.802 29.7 32.7492 29.7 32.6845C29.7 32.62 29.6406 32.5243 29.568 32.472C29.4954 32.4197 29.436 32.3306 29.436 32.274C29.436 32.2174 29.3725 32.1275 29.2949 32.074C29.2172 32.0207 29.085 31.9102 29.0009 31.8285C28.9167 31.7468 28.8235 31.68 28.7935 31.68C28.7636 31.68 28.6963 31.6206 28.644 31.548C28.5917 31.4754 28.496 31.416 28.4315 31.416C28.3668 31.416 28.314 31.3863 28.314 31.35C28.314 31.3137 28.2546 31.284 28.182 31.284C28.1094 31.284 28.05 31.2543 28.05 31.218C28.05 31.1817 27.9312 31.152 27.786 31.152C27.6408 31.152 27.522 31.1223 27.522 31.086C27.522 31.0466 27.269 31.02 26.895 31.02C26.5209 31.02 26.268 31.0466 26.268 31.086ZM38.478 31.086C38.478 31.1223 38.3592 31.152 38.214 31.152C38.0688 31.152 37.95 31.1817 37.95 31.218C37.95 31.2543 37.8906 31.284 37.818 31.284C37.7454 31.284 37.686 31.3137 37.686 31.35C37.686 31.3863 37.648 31.416 37.6015 31.416C37.5551 31.416 37.4743 31.4754 37.422 31.548C37.3697 31.6206 37.2875 31.68 37.2395 31.68C37.1913 31.68 37.0832 31.7468 36.9991 31.8285C36.9149 31.9102 36.7828 32.0207 36.7051 32.074C36.6275 32.1275 36.564 32.2174 36.564 32.274C36.564 32.3306 36.5046 32.4197 36.432 32.472C36.3594 32.5243 36.3 32.62 36.3 32.6845C36.3 32.7492 36.2703 32.802 36.234 32.802C36.1977 32.802 36.168 32.8614 36.168 32.934C36.168 33.0066 36.1383 33.066 36.102 33.066C36.0657 33.066 36.036 33.1254 36.036 33.198C36.036 33.2706 36.0063 33.33 35.97 33.33C35.9337 33.33 35.904 33.4191 35.904 33.528C35.904 33.6369 35.8743 33.726 35.838 33.726C35.8002 33.726 35.772 33.924 35.772 34.188C35.772 34.452 35.7438 34.65 35.706 34.65C35.6697 34.65 35.64 34.754 35.64 34.881C35.64 35.008 35.6697 35.112 35.706 35.112C35.7438 35.112 35.772 35.31 35.772 35.574C35.772 35.838 35.8002 36.036 35.838 36.036C35.8743 36.036 35.904 36.1251 35.904 36.234C35.904 36.3429 35.9337 36.432 35.97 36.432C36.0063 36.432 36.036 36.4914 36.036 36.564C36.036 36.6366 36.0657 36.696 36.102 36.696C36.1383 36.696 36.168 36.7554 36.168 36.828C36.168 36.9006 36.1977 36.96 36.234 36.96C36.2703 36.96 36.3 36.998 36.3 37.0445C36.3 37.0908 36.3594 37.1717 36.432 37.224C36.5046 37.2763 36.564 37.358 36.564 37.4053C36.564 37.5174 37.1286 38.082 37.2407 38.082C37.288 38.082 37.3697 38.1414 37.422 38.214C37.4743 38.2866 37.5551 38.346 37.6015 38.346C37.648 38.346 37.686 38.3757 37.686 38.412C37.686 38.4483 37.7454 38.478 37.818 38.478C37.8906 38.478 37.95 38.5077 37.95 38.544C37.95 38.5803 38.0688 38.61 38.214 38.61C38.3592 38.61 38.478 38.6397 38.478 38.676C38.478 38.7156 38.742 38.742 39.138 38.742C39.534 38.742 39.798 38.7156 39.798 38.676C39.798 38.6397 39.8722 38.61 39.963 38.61C40.0537 38.61 40.128 38.5803 40.128 38.544C40.128 38.5077 40.2105 38.478 40.3115 38.478C40.4192 38.478 40.534 38.4235 40.59 38.346C40.6423 38.2734 40.7236 38.214 40.7707 38.214C40.871 38.214 41.844 37.2577 41.844 37.159C41.844 37.1222 41.8737 37.092 41.91 37.092C41.9463 37.092 41.976 37.0326 41.976 36.96C41.976 36.8874 42.0057 36.828 42.042 36.828C42.0783 36.828 42.108 36.7686 42.108 36.696C42.108 36.6234 42.1377 36.564 42.174 36.564C42.2103 36.564 42.24 36.5046 42.24 36.432C42.24 36.3594 42.2697 36.3 42.306 36.3C42.3423 36.3 42.372 36.1812 42.372 36.036C42.372 35.8908 42.4017 35.772 42.438 35.772C42.4787 35.772 42.504 35.4309 42.504 34.881C42.504 34.3311 42.4787 33.99 42.438 33.99C42.4017 33.99 42.372 33.8712 42.372 33.726C42.372 33.5808 42.3423 33.462 42.306 33.462C42.2697 33.462 42.24 33.4026 42.24 33.33C42.24 33.2574 42.2103 33.198 42.174 33.198C42.1377 33.198 42.108 33.1386 42.108 33.066C42.108 32.9934 42.0783 32.934 42.042 32.934C42.0057 32.934 41.976 32.8746 41.976 32.802C41.976 32.7294 41.9463 32.67 41.91 32.67C41.8737 32.67 41.8427 32.618 41.841 32.5545C41.8392 32.491 41.7192 32.3351 41.5742 32.208C41.4292 32.081 41.2087 31.8805 41.0845 31.7625C40.9601 31.6445 40.8193 31.548 40.7718 31.548C40.7241 31.548 40.6423 31.4886 40.59 31.416C40.534 31.3385 40.4192 31.284 40.3115 31.284C40.2105 31.284 40.128 31.2543 40.128 31.218C40.128 31.1817 40.0537 31.152 39.963 31.152C39.8722 31.152 39.798 31.1223 39.798 31.086C39.798 31.0464 39.534 31.02 39.138 31.02C38.742 31.02 38.478 31.0464 38.478 31.086Z" fill="white"/>
</svg>
