<svg width="66" height="66" viewBox="0 0 66 66" fill="none" xmlns="http://www.w3.org/2000/svg">
<path fill-rule="evenodd" clip-rule="evenodd" d="M30.492 0.791998C30.492 0.831433 30.239 0.857998 29.865 0.857998C29.4909 0.857998 29.238 0.884563 29.238 0.923998C29.238 0.962443 29.018 0.989998 28.71 0.989998C28.4019 0.989998 28.182 1.01755 28.182 1.056C28.182 1.09378 27.984 1.122 27.72 1.122C27.456 1.122 27.258 1.15021 27.258 1.188C27.258 1.22463 27.0819 1.254 26.862 1.254C26.642 1.254 26.466 1.28337 26.466 1.32C26.466 1.3563 26.362 1.386 26.235 1.386C26.1079 1.386 26.004 1.4157 26.004 1.452C26.004 1.4883 25.8555 1.518 25.674 1.518C25.4925 1.518 25.344 1.54456 25.344 1.57707C25.344 1.60957 25.1064 1.65726 24.816 1.683C24.5256 1.70874 24.288 1.75642 24.288 1.78893C24.288 1.82143 24.1859 1.848 24.0609 1.848C23.936 1.848 23.8154 1.8777 23.793 1.914C23.7705 1.9503 23.6796 1.98 23.591 1.98C23.5024 1.98 23.43 2.0097 23.43 2.046C23.43 2.0823 23.3409 2.112 23.232 2.112C23.1231 2.112 23.034 2.1417 23.034 2.178C23.034 2.2143 22.9449 2.244 22.836 2.244C22.7271 2.244 22.638 2.2737 22.638 2.31C22.638 2.3463 22.5192 2.376 22.374 2.376C22.2288 2.376 22.11 2.4057 22.11 2.442C22.11 2.4783 22.0506 2.508 21.978 2.508C21.9054 2.508 21.846 2.5377 21.846 2.574C21.846 2.6103 21.7569 2.64 21.648 2.64C21.5391 2.64 21.45 2.6697 21.45 2.706C21.45 2.7423 21.3609 2.772 21.252 2.772C21.1431 2.772 21.054 2.8017 21.054 2.838C21.054 2.8743 21.0094 2.904 20.955 2.904C20.9005 2.904 20.856 2.9337 20.856 2.97C20.856 3.0063 20.7669 3.036 20.658 3.036C20.5491 3.036 20.46 3.0657 20.46 3.102C20.46 3.1383 20.4006 3.168 20.328 3.168C20.2554 3.168 20.196 3.1977 20.196 3.234C20.196 3.2703 20.1069 3.3 19.998 3.3C19.8891 3.3 19.8 3.3297 19.8 3.366C19.8 3.4023 19.7406 3.432 19.668 3.432C19.5954 3.432 19.536 3.4617 19.536 3.498C19.536 3.5343 19.4766 3.564 19.404 3.564C19.3314 3.564 19.272 3.5937 19.272 3.63C19.272 3.6663 19.2126 3.696 19.14 3.696C19.0674 3.696 19.008 3.7257 19.008 3.762C19.008 3.7983 18.9486 3.828 18.876 3.828C18.8034 3.828 18.744 3.8577 18.744 3.894C18.744 3.9303 18.6846 3.96 18.612 3.96C18.5394 3.96 18.48 3.9897 18.48 4.026C18.48 4.0623 18.4206 4.092 18.348 4.092C18.2754 4.092 18.216 4.1217 18.216 4.158C18.216 4.1943 18.1714 4.224 18.117 4.224C18.0625 4.224 18.018 4.2537 18.018 4.29C18.018 4.3263 17.9586 4.356 17.886 4.356C17.8134 4.356 17.754 4.38306 17.754 4.41622C17.754 4.44939 17.6352 4.49641 17.49 4.521C17.3448 4.54558 17.226 4.59261 17.226 4.62577C17.226 4.65894 17.1666 4.686 17.094 4.686C17.0214 4.686 16.962 4.7157 16.962 4.752C16.962 4.7883 16.9092 4.818 16.8445 4.818C16.78 4.818 16.6843 4.8774 16.632 4.95C16.5797 5.0226 16.484 5.082 16.4195 5.082C16.3548 5.082 16.302 5.1117 16.302 5.148C16.302 5.1843 16.2492 5.214 16.1845 5.214C16.12 5.214 16.0243 5.2734 15.972 5.346C15.9197 5.4186 15.824 5.478 15.7595 5.478C15.6948 5.478 15.642 5.5077 15.642 5.544C15.642 5.5803 15.604 5.61 15.5575 5.61C15.5111 5.61 15.4303 5.6694 15.378 5.742C15.3257 5.8146 15.2366 5.874 15.18 5.874C15.1234 5.874 15.0343 5.9334 14.982 6.006C14.9297 6.0786 14.834 6.138 14.7695 6.138C14.7048 6.138 14.652 6.1677 14.652 6.204C14.652 6.2403 14.6045 6.27 14.5464 6.27C14.4885 6.27 14.3578 6.3591 14.256 6.468C14.1542 6.5769 14.0354 6.666 13.992 6.666C13.9486 6.666 13.8298 6.7551 13.728 6.864C13.6262 6.9729 13.4955 7.062 13.4376 7.062C13.3795 7.062 13.332 7.0912 13.332 7.12668C13.332 7.16232 13.2576 7.21017 13.1668 7.23294C13.0759 7.25571 12.9294 7.36032 12.8411 7.46526C12.7527 7.5702 12.6469 7.656 12.606 7.656C12.5649 7.656 12.3867 7.8045 12.21 7.986C12.0333 8.1675 11.8546 8.316 11.8132 8.316C11.7716 8.316 11.6236 8.4348 11.484 8.58C11.3444 8.7252 11.1979 8.844 11.1581 8.844C11.0649 8.844 8.05199 11.8566 8.05199 11.9498C8.05199 11.9887 7.90349 12.1653 7.72199 12.342C7.54049 12.5187 7.39199 12.6888 7.39199 12.72C7.39199 12.751 7.28804 12.8867 7.16099 13.0215C7.03394 13.1561 6.92999 13.2988 6.92999 13.3386C6.92999 13.3785 6.84089 13.4942 6.73199 13.596C6.62309 13.6978 6.53399 13.8166 6.53399 13.86C6.53399 13.9034 6.44489 14.0222 6.33599 14.124C6.22709 14.2258 6.13799 14.3499 6.13799 14.3999C6.13799 14.4499 6.07859 14.5337 6.00599 14.586C5.93339 14.6383 5.87399 14.7221 5.87399 14.7721C5.87399 14.8221 5.78489 14.9462 5.67599 15.048C5.56709 15.1498 5.47799 15.2785 5.47799 15.3341C5.47799 15.3895 5.41859 15.4539 5.34599 15.477C5.27339 15.5001 5.21399 15.5763 5.21399 15.6465C5.21399 15.7166 5.18429 15.774 5.14799 15.774C5.11169 15.774 5.08199 15.8268 5.08199 15.8915C5.08199 15.956 5.02259 16.0517 4.94999 16.104C4.87739 16.1563 4.81799 16.2411 4.81799 16.2923C4.81799 16.3436 4.76255 16.4335 4.6949 16.4922C4.62708 16.551 4.54887 16.7029 4.52099 16.83C4.4931 16.957 4.41489 17.109 4.34708 17.1678C4.27943 17.2265 4.22399 17.323 4.22399 17.3823C4.22399 17.4415 4.19429 17.49 4.15799 17.49C4.12169 17.49 4.09199 17.5494 4.09199 17.622C4.09199 17.6946 4.06229 17.754 4.02599 17.754C3.98969 17.754 3.95999 17.8134 3.95999 17.886C3.95999 17.9586 3.93029 18.018 3.89399 18.018C3.85769 18.018 3.82799 18.0625 3.82799 18.117C3.82799 18.1714 3.79829 18.216 3.76199 18.216C3.72569 18.216 3.69599 18.2688 3.69599 18.3335C3.69599 18.398 3.63659 18.4937 3.56399 18.546C3.49139 18.5983 3.43199 18.694 3.43199 18.7585C3.43199 18.8232 3.40229 18.876 3.36599 18.876C3.32969 18.876 3.29999 18.9354 3.29999 19.008C3.29999 19.0806 3.27029 19.14 3.23399 19.14C3.19769 19.14 3.16799 19.1994 3.16799 19.272C3.16799 19.3446 3.13829 19.404 3.10199 19.404C3.06569 19.404 3.03599 19.4931 3.03599 19.602C3.03599 19.7109 3.00629 19.8 2.96999 19.8C2.93369 19.8 2.90399 19.8594 2.90399 19.932C2.90399 20.0046 2.87429 20.064 2.83799 20.064C2.80169 20.064 2.77199 20.1234 2.77199 20.196C2.77199 20.2686 2.74229 20.328 2.70599 20.328C2.66969 20.328 2.63999 20.3874 2.63999 20.46C2.63999 20.5326 2.61029 20.592 2.57399 20.592C2.53769 20.592 2.50799 20.6514 2.50799 20.724C2.50799 20.7966 2.47829 20.856 2.44199 20.856C2.40569 20.856 2.37599 20.9302 2.37599 21.021C2.37599 21.1117 2.34629 21.186 2.30999 21.186C2.27369 21.186 2.24399 21.2454 2.24399 21.318C2.24399 21.3906 2.21429 21.45 2.17799 21.45C2.14169 21.45 2.11199 21.5391 2.11199 21.648C2.11199 21.7569 2.08229 21.846 2.04599 21.846C2.00969 21.846 1.97999 21.9351 1.97999 22.044C1.97999 22.1529 1.95029 22.242 1.91399 22.242C1.87769 22.242 1.84799 22.3014 1.84799 22.374C1.84799 22.4466 1.82126 22.506 1.78842 22.506C1.75575 22.506 1.70823 22.6842 1.68299 22.902C1.65774 23.1198 1.61022 23.298 1.57755 23.298C1.54472 23.298 1.51799 23.3871 1.51799 23.496C1.51799 23.6049 1.48829 23.694 1.45199 23.694C1.41569 23.694 1.38599 23.798 1.38599 23.925C1.38599 24.052 1.35629 24.156 1.31999 24.156C1.28369 24.156 1.25399 24.2451 1.25399 24.354C1.25399 24.4629 1.22429 24.552 1.18799 24.552C1.15169 24.552 1.12199 24.6411 1.12199 24.75C1.12199 24.8589 1.09229 24.948 1.05599 24.948C1.01969 24.948 0.989987 25.0668 0.989987 25.212C0.989987 25.3572 0.960287 25.476 0.923987 25.476C0.887687 25.476 0.857987 25.5948 0.857987 25.74C0.857987 25.8852 0.828287 26.004 0.791987 26.004C0.755687 26.004 0.725987 26.1376 0.725987 26.301C0.725987 26.4643 0.696287 26.598 0.659987 26.598C0.623687 26.598 0.593987 26.7168 0.593987 26.862C0.593987 27.0072 0.564287 27.126 0.527987 27.126C0.491357 27.126 0.461987 27.3021 0.461987 27.522C0.461987 27.7419 0.432617 27.918 0.395987 27.918C0.359357 27.918 0.329987 28.0941 0.329987 28.314C0.329987 28.5339 0.300617 28.71 0.263987 28.71C0.226862 28.71 0.197987 28.8951 0.197987 29.1336C0.197987 29.4136 0.170102 29.5664 0.115487 29.5845C-0.00529265 29.6248 -0.00529265 37.7612 0.115487 37.8015C0.173237 37.8208 0.197987 38.0054 0.197987 38.4174C0.197987 38.7658 0.224882 39.006 0.263987 39.006C0.300617 39.006 0.329987 39.1821 0.329987 39.402C0.329987 39.6219 0.359357 39.798 0.395987 39.798C0.432287 39.798 0.461987 39.9317 0.461987 40.095C0.461987 40.2584 0.491687 40.392 0.527987 40.392C0.564287 40.392 0.593987 40.5405 0.593987 40.722C0.593987 40.9035 0.623687 41.052 0.659987 41.052C0.696287 41.052 0.725987 41.2005 0.725987 41.382C0.725987 41.5635 0.755687 41.712 0.791987 41.712C0.828287 41.712 0.857987 41.8011 0.857987 41.91C0.857987 42.0189 0.887687 42.108 0.923987 42.108C0.960287 42.108 0.989987 42.2268 0.989987 42.372C0.989987 42.5172 1.01969 42.636 1.05599 42.636C1.09229 42.636 1.12199 42.7399 1.12199 42.867C1.12199 42.994 1.15169 43.098 1.18799 43.098C1.22429 43.098 1.25399 43.1871 1.25399 43.296C1.25399 43.4049 1.28369 43.494 1.31999 43.494C1.35629 43.494 1.38599 43.6128 1.38599 43.758C1.38599 43.9032 1.41569 44.022 1.45199 44.022C1.48829 44.022 1.51799 44.1111 1.51799 44.22C1.51799 44.3289 1.54587 44.418 1.57986 44.418C1.61402 44.418 1.66203 44.552 1.68662 44.7158C1.7112 44.8797 1.75757 45.0298 1.78958 45.0498C1.82175 45.0696 1.84799 45.1584 1.84799 45.247C1.84799 45.3356 1.87769 45.408 1.91399 45.408C1.95029 45.408 1.97999 45.4971 1.97999 45.606C1.97999 45.7149 2.00969 45.804 2.04599 45.804C2.08229 45.804 2.11199 45.8634 2.11199 45.936C2.11199 46.0086 2.14169 46.068 2.17799 46.068C2.21429 46.068 2.24399 46.1571 2.24399 46.266C2.24399 46.3749 2.27369 46.464 2.30999 46.464C2.34629 46.464 2.37599 46.5234 2.37599 46.596C2.37599 46.6686 2.40569 46.728 2.44199 46.728C2.47829 46.728 2.50799 46.7874 2.50799 46.86C2.50799 46.9326 2.53769 46.992 2.57399 46.992C2.61029 46.992 2.63999 47.0811 2.63999 47.19C2.63999 47.2989 2.66969 47.388 2.70599 47.388C2.74229 47.388 2.77199 47.4474 2.77199 47.52C2.77199 47.5926 2.80169 47.652 2.83799 47.652C2.87429 47.652 2.90399 47.7114 2.90399 47.784C2.90399 47.8566 2.93369 47.916 2.96999 47.916C3.00629 47.916 3.03599 47.9606 3.03599 48.015C3.03599 48.0695 3.06569 48.114 3.10199 48.114C3.13829 48.114 3.16799 48.1734 3.16799 48.246C3.16799 48.3186 3.19769 48.378 3.23399 48.378C3.27029 48.378 3.29999 48.4374 3.29999 48.51C3.29999 48.5826 3.32969 48.642 3.36599 48.642C3.40229 48.642 3.43199 48.7014 3.43199 48.774C3.43199 48.8466 3.46169 48.906 3.49799 48.906C3.53429 48.906 3.56399 48.9654 3.56399 49.038C3.56399 49.1106 3.59369 49.17 3.62999 49.17C3.66629 49.17 3.69599 49.2294 3.69599 49.302C3.69599 49.3746 3.72569 49.434 3.76199 49.434C3.79829 49.434 3.82799 49.4868 3.82799 49.5515C3.82799 49.616 3.88739 49.7117 3.95999 49.764C4.03259 49.8163 4.09199 49.912 4.09199 49.9765C4.09199 50.0412 4.12169 50.094 4.15799 50.094C4.19429 50.094 4.22399 50.1534 4.22399 50.226C4.22399 50.2986 4.25369 50.358 4.28999 50.358C4.32629 50.358 4.35599 50.4174 4.35599 50.49C4.35599 50.5626 4.38519 50.622 4.42067 50.622C4.45631 50.622 4.50416 50.6962 4.52693 50.787C4.5497 50.8778 4.59474 50.952 4.62708 50.952C4.65959 50.952 4.68599 51.0048 4.68599 51.0695C4.68599 51.134 4.74539 51.2297 4.81799 51.282C4.89059 51.3343 4.94999 51.4234 4.94999 51.48C4.94999 51.5366 5.00939 51.6257 5.08199 51.678C5.15459 51.7303 5.21399 51.8194 5.21399 51.876C5.21399 51.9326 5.27339 52.0217 5.34599 52.074C5.41859 52.1263 5.47799 52.2154 5.47799 52.272C5.47799 52.3286 5.53739 52.4177 5.60999 52.47C5.68259 52.5223 5.74199 52.6114 5.74199 52.668C5.74199 52.7246 5.80139 52.8137 5.87399 52.866C5.94659 52.9183 6.00599 53.0021 6.00599 53.0521C6.00599 53.1021 6.09509 53.2262 6.20399 53.328C6.31289 53.4298 6.40199 53.5331 6.40199 53.5577C6.40199 53.5823 6.52079 53.7164 6.66599 53.856C6.81119 53.9956 6.92999 54.1431 6.92999 54.1839C6.92999 54.2246 6.99681 54.3296 7.07849 54.4168C7.32896 54.6848 7.39199 54.7714 7.39199 54.8483C7.39199 54.8891 7.51079 55.0364 7.65599 55.176C7.80119 55.3156 7.91999 55.4633 7.91999 55.5045C7.91999 55.576 8.41136 56.0705 8.97087 56.562C9.11558 56.689 9.2352 56.8308 9.23702 56.877C9.23982 56.9582 9.92589 57.684 9.99965 57.684C10.0198 57.684 10.361 58.0107 10.758 58.41C11.155 58.8093 11.5242 59.136 11.5787 59.136C11.6331 59.136 11.7815 59.2399 11.9085 59.367C12.0356 59.494 12.1725 59.598 12.213 59.598C12.2534 59.598 12.4004 59.7168 12.54 59.862C12.6796 60.0072 12.8132 60.126 12.837 60.126C12.8607 60.126 12.9944 60.2448 13.134 60.39C13.2736 60.5352 13.428 60.654 13.4772 60.654C13.5265 60.654 13.6097 60.7134 13.662 60.786C13.7143 60.8586 13.8034 60.918 13.86 60.918C13.9166 60.918 14.0057 60.9774 14.058 61.05C14.1103 61.1226 14.1994 61.182 14.256 61.182C14.3126 61.182 14.4017 61.2414 14.454 61.314C14.5063 61.3866 14.5954 61.446 14.652 61.446C14.7086 61.446 14.7977 61.5054 14.85 61.578C14.9023 61.6506 14.998 61.71 15.0625 61.71C15.1272 61.71 15.18 61.7377 15.18 61.7715C15.18 61.8054 15.2468 61.8542 15.3285 61.88C15.4102 61.9059 15.525 61.9821 15.5837 62.0494C15.6425 62.1169 15.739 62.172 15.7982 62.172C15.8575 62.172 15.906 62.2017 15.906 62.238C15.906 62.2743 15.9654 62.304 16.038 62.304C16.1106 62.304 16.17 62.3337 16.17 62.37C16.17 62.4063 16.2228 62.436 16.2875 62.436C16.352 62.436 16.4477 62.4954 16.5 62.568C16.5523 62.6406 16.648 62.7 16.7125 62.7C16.7772 62.7 16.83 62.7297 16.83 62.766C16.83 62.8023 16.8894 62.832 16.962 62.832C17.0346 62.832 17.094 62.8617 17.094 62.898C17.094 62.9343 17.1534 62.964 17.226 62.964C17.2986 62.964 17.358 62.9937 17.358 63.03C17.358 63.0663 17.4108 63.096 17.4755 63.096C17.54 63.096 17.6357 63.1554 17.688 63.228C17.7439 63.3056 17.8588 63.36 17.9665 63.36C18.0675 63.36 18.15 63.3897 18.15 63.426C18.15 63.4623 18.1945 63.492 18.249 63.492C18.3034 63.492 18.348 63.5217 18.348 63.558C18.348 63.5943 18.4074 63.624 18.48 63.624C18.5526 63.624 18.612 63.6537 18.612 63.69C18.612 63.7263 18.6714 63.756 18.744 63.756C18.8166 63.756 18.876 63.7857 18.876 63.822C18.876 63.8583 18.9354 63.888 19.008 63.888C19.0806 63.888 19.14 63.9177 19.14 63.954C19.14 63.9903 19.1994 64.02 19.272 64.02C19.3446 64.02 19.404 64.0497 19.404 64.086C19.404 64.1223 19.4931 64.152 19.602 64.152C19.7109 64.152 19.8 64.1817 19.8 64.218C19.8 64.2543 19.8594 64.284 19.932 64.284C20.0046 64.284 20.064 64.3137 20.064 64.35C20.064 64.3863 20.1234 64.416 20.196 64.416C20.2686 64.416 20.328 64.4422 20.328 64.4744C20.328 64.5066 20.4913 64.5533 20.691 64.5782C20.8906 64.6031 21.054 64.6511 21.054 64.6848C21.054 64.7184 21.1134 64.746 21.186 64.746C21.2586 64.746 21.318 64.7757 21.318 64.812C21.318 64.8483 21.4071 64.878 21.516 64.878C21.6249 64.878 21.714 64.9077 21.714 64.944C21.714 64.9803 21.8031 65.01 21.912 65.01C22.0209 65.01 22.11 65.0397 22.11 65.076C22.11 65.1123 22.1694 65.142 22.242 65.142C22.3146 65.142 22.374 65.1717 22.374 65.208C22.374 65.2478 22.649 65.274 23.067 65.274C23.4849 65.274 23.76 65.2478 23.76 65.208C23.76 65.1717 23.8351 65.142 23.9268 65.142C24.0933 65.142 24.684 64.6285 24.684 64.4838C24.684 64.4465 24.7137 64.416 24.75 64.416C24.7863 64.416 24.816 64.3566 24.816 64.284C24.816 64.2114 24.8457 64.152 24.882 64.152C24.9252 64.152 24.948 62.964 24.948 60.72V57.288H24.552C24.332 57.288 24.156 57.3174 24.156 57.354C24.156 57.3903 23.9926 57.42 23.793 57.42C23.5933 57.42 23.43 57.4497 23.43 57.486C23.43 57.5284 22.803 57.552 21.681 57.552C20.559 57.552 19.932 57.5284 19.932 57.486C19.932 57.4482 19.734 57.42 19.47 57.42C19.206 57.42 19.008 57.3918 19.008 57.354C19.008 57.3174 18.8319 57.288 18.612 57.288C18.392 57.288 18.216 57.2586 18.216 57.222C18.216 57.1857 18.1139 57.156 17.9889 57.156C17.864 57.156 17.7434 57.1263 17.721 57.09C17.6985 57.0537 17.6076 57.024 17.519 57.024C17.4304 57.024 17.358 56.9943 17.358 56.958C17.358 56.9217 17.2986 56.892 17.226 56.892C17.1534 56.892 17.094 56.8649 17.094 56.8318C17.094 56.7986 16.9752 56.7516 16.83 56.727C16.6848 56.7024 16.566 56.6554 16.566 56.6222C16.566 56.5891 16.5132 56.562 16.4485 56.562C16.384 56.562 16.2883 56.5026 16.236 56.43C16.1837 56.3574 16.0946 56.298 16.038 56.298C15.9814 56.298 15.8923 56.2386 15.84 56.166C15.7877 56.0934 15.6994 56.0327 15.644 56.031C15.5884 56.0292 15.439 55.9093 15.312 55.7642C15.1849 55.6192 14.9845 55.3988 14.8665 55.2745C14.7485 55.1501 14.652 55.0093 14.652 54.9618C14.652 54.9141 14.5926 54.8323 14.52 54.78C14.4474 54.7277 14.388 54.6386 14.388 54.582C14.388 54.5254 14.3286 54.4363 14.256 54.384C14.1834 54.3317 14.124 54.236 14.124 54.1715C14.124 54.1068 14.0943 54.054 14.058 54.054C14.0217 54.054 13.992 53.9798 13.992 53.889C13.992 53.7983 13.9623 53.724 13.926 53.724C13.8897 53.724 13.86 53.6646 13.86 53.592C13.86 53.5194 13.8303 53.46 13.794 53.46C13.7577 53.46 13.728 53.4006 13.728 53.328C13.728 53.2554 13.6983 53.196 13.662 53.196C13.6257 53.196 13.596 53.1069 13.596 52.998C13.596 52.8891 13.5663 52.8 13.53 52.8C13.4937 52.8 13.464 52.7406 13.464 52.668C13.464 52.5954 13.4343 52.536 13.398 52.536C13.3617 52.536 13.332 52.4766 13.332 52.404C13.332 52.3314 13.3023 52.272 13.266 52.272C13.2297 52.272 13.2 52.2126 13.2 52.14C13.2 52.0674 13.1703 52.008 13.134 52.008C13.0977 52.008 13.068 51.9486 13.068 51.876C13.068 51.8034 13.0383 51.744 13.002 51.744C12.9657 51.744 12.936 51.6912 12.936 51.6265C12.936 51.562 12.8766 51.4663 12.804 51.414C12.7314 51.3617 12.672 51.2917 12.672 51.2587C12.672 51.2256 12.6174 51.1505 12.5505 51.0918C12.4837 51.033 12.409 50.9033 12.3842 50.8035C12.3596 50.7037 12.3103 50.622 12.2747 50.622C12.2392 50.622 12.21 50.5751 12.21 50.5179C12.21 50.4605 12.0912 50.2996 11.946 50.16C11.8008 50.0204 11.682 49.8736 11.682 49.8335C11.682 49.7378 11.1131 49.17 11.0172 49.17C10.9763 49.17 10.8598 49.0809 10.758 48.972C10.6562 48.8631 10.5255 48.774 10.4676 48.774C10.4095 48.774 10.362 48.7443 10.362 48.708C10.362 48.6717 10.3153 48.642 10.2582 48.642C10.2013 48.642 10.1132 48.6049 10.0625 48.5595C9.86534 48.3826 9.77211 48.312 9.73565 48.312C9.65909 48.312 9.23999 47.8518 9.23999 47.7678C9.23999 47.7201 9.18059 47.6383 9.10799 47.586C9.03539 47.5337 8.97599 47.4405 8.97599 47.3789C8.97599 47.3174 8.93919 47.2547 8.89415 47.2397C8.78508 47.2034 8.99166 46.992 9.1362 46.992C9.19329 46.992 9.23999 46.9623 9.23999 46.926C9.23999 46.8897 9.40334 46.86 9.60299 46.86C9.80264 46.86 9.96599 46.8303 9.96599 46.794C9.96599 46.7577 10.0254 46.728 10.098 46.728C10.1706 46.728 10.23 46.7577 10.23 46.794C10.23 46.8306 10.406 46.86 10.626 46.86C10.8459 46.86 11.022 46.8894 11.022 46.926C11.022 46.9623 11.1111 46.992 11.22 46.992C11.3289 46.992 11.418 47.0217 11.418 47.058C11.418 47.0943 11.5071 47.124 11.616 47.124C11.7249 47.124 11.814 47.1537 11.814 47.19C11.814 47.2263 11.8734 47.256 11.946 47.256C12.0186 47.256 12.078 47.2857 12.078 47.322C12.078 47.3583 12.1374 47.388 12.21 47.388C12.2826 47.388 12.342 47.4177 12.342 47.454C12.342 47.4903 12.3905 47.52 12.4497 47.52C12.509 47.52 12.6055 47.5721 12.6642 47.636C12.723 47.6997 12.8601 47.7962 12.969 47.8505C13.1926 47.9617 13.2709 48.018 13.4972 48.2295C13.5844 48.3112 13.6879 48.378 13.7267 48.378C13.8201 48.378 14.388 48.9477 14.388 49.0415C14.388 49.0816 14.5068 49.2284 14.652 49.368C14.7972 49.5076 14.916 49.662 14.916 49.7112C14.916 49.7605 14.9754 49.8437 15.048 49.896C15.1206 49.9483 15.18 50.0331 15.18 50.0843C15.18 50.1356 15.2354 50.2255 15.3031 50.2842C15.3709 50.343 15.4471 50.4859 15.4725 50.6015C15.4979 50.7174 15.6055 50.8807 15.7118 50.9645C15.8179 51.0484 15.905 51.1545 15.9053 51.2003C15.9062 51.3105 17.2661 52.668 17.3756 52.668C17.4225 52.668 17.5037 52.7274 17.556 52.8C17.6083 52.8726 17.6931 52.932 17.7443 52.932C17.7956 52.932 17.8858 52.984 17.9449 53.0475C18.095 53.2087 18.3221 53.328 18.4792 53.328C18.5523 53.328 18.612 53.3577 18.612 53.394C18.612 53.4303 18.6689 53.46 18.7385 53.46C18.808 53.46 18.8755 53.4917 18.8885 53.5305C18.9017 53.5701 19.1916 53.6174 19.554 53.639C19.9071 53.6601 20.196 53.7027 20.196 53.7337C20.196 53.7646 20.4187 53.79 20.691 53.79C20.9632 53.79 21.186 53.7648 21.186 53.7341C21.186 53.7032 21.6353 53.6608 22.1846 53.6397C22.7528 53.6179 23.2135 53.5709 23.2538 53.5306C23.2925 53.4918 23.4224 53.46 23.5422 53.46C23.662 53.46 23.76 53.4303 23.76 53.394C23.76 53.3577 23.8491 53.328 23.958 53.328C24.0669 53.328 24.156 53.2983 24.156 53.262C24.156 53.2257 24.2154 53.196 24.288 53.196C24.3606 53.196 24.42 53.1663 24.42 53.13C24.42 53.0937 24.4956 53.064 24.588 53.064C24.8643 53.064 25.08 52.7906 25.08 52.44C25.08 52.275 25.1097 52.14 25.146 52.14C25.1823 52.14 25.212 51.9915 25.212 51.81C25.212 51.6285 25.2417 51.48 25.278 51.48C25.3143 51.48 25.344 51.4206 25.344 51.348C25.344 51.2754 25.3737 51.216 25.41 51.216C25.4463 51.216 25.476 51.1418 25.476 51.051C25.476 50.9603 25.5057 50.886 25.542 50.886C25.5783 50.886 25.608 50.7969 25.608 50.688C25.608 50.5791 25.6377 50.49 25.674 50.49C25.7103 50.49 25.74 50.4306 25.74 50.358C25.74 50.2854 25.7697 50.226 25.806 50.226C25.8423 50.226 25.872 50.1775 25.872 50.1183C25.872 50.059 25.9274 49.9625 25.9951 49.9038C26.0629 49.845 26.1406 49.6954 26.1678 49.5713C26.2008 49.4213 26.3477 49.2177 26.6057 48.9644C27.0078 48.5697 27.109 48.312 26.862 48.312C26.7894 48.312 26.73 48.2823 26.73 48.246C26.73 48.2087 26.543 48.18 26.301 48.18C26.0589 48.18 25.872 48.1513 25.872 48.114C25.872 48.0762 25.674 48.048 25.41 48.048C25.146 48.048 24.948 48.0198 24.948 47.982C24.948 47.9457 24.7995 47.916 24.618 47.916C24.4365 47.916 24.288 47.8863 24.288 47.85C24.288 47.8137 24.1395 47.784 23.958 47.784C23.7765 47.784 23.628 47.7543 23.628 47.718C23.628 47.6817 23.4943 47.652 23.331 47.652C23.1676 47.652 23.034 47.6223 23.034 47.586C23.034 47.5497 22.9152 47.52 22.77 47.52C22.6248 47.52 22.506 47.4903 22.506 47.454C22.506 47.4177 22.4169 47.388 22.308 47.388C22.1991 47.388 22.11 47.3583 22.11 47.322C22.11 47.2857 22.0209 47.256 21.912 47.256C21.8031 47.256 21.714 47.2263 21.714 47.19C21.714 47.1537 21.6249 47.124 21.516 47.124C21.4071 47.124 21.318 47.0943 21.318 47.058C21.318 47.0217 21.2289 46.992 21.12 46.992C21.0111 46.992 20.922 46.9623 20.922 46.926C20.922 46.8897 20.8626 46.86 20.79 46.86C20.7174 46.86 20.658 46.8303 20.658 46.794C20.658 46.7577 20.6134 46.728 20.559 46.728C20.5045 46.728 20.46 46.6983 20.46 46.662C20.46 46.6257 20.3709 46.596 20.262 46.596C20.1531 46.596 20.064 46.5663 20.064 46.53C20.064 46.4937 20.0046 46.464 19.932 46.464C19.8594 46.464 19.8 46.4343 19.8 46.398C19.8 46.3617 19.7406 46.332 19.668 46.332C19.5954 46.332 19.536 46.3023 19.536 46.266C19.536 46.2297 19.4766 46.2 19.404 46.2C19.3314 46.2 19.272 46.1703 19.272 46.134C19.272 46.0977 19.2126 46.068 19.14 46.068C19.0674 46.068 19.008 46.0383 19.008 46.002C19.008 45.9657 18.9486 45.936 18.876 45.936C18.8034 45.936 18.744 45.9063 18.744 45.87C18.744 45.8337 18.6867 45.804 18.6168 45.804C18.5466 45.804 18.4448 45.7594 18.3904 45.705C18.3359 45.6506 18.2513 45.606 18.2023 45.606C18.1533 45.606 18.0703 45.5466 18.018 45.474C17.9657 45.4014 17.8914 45.342 17.853 45.342C17.8145 45.342 17.7403 45.2826 17.688 45.21C17.6357 45.1374 17.5519 45.078 17.5019 45.078C17.4519 45.078 17.3278 44.9889 17.226 44.88C17.1242 44.7711 17.0082 44.682 16.9679 44.682C16.8783 44.682 15.114 42.9266 15.114 42.8376C15.114 42.8027 15.0397 42.6997 14.949 42.6089C14.8582 42.5182 14.784 42.4047 14.784 42.3565C14.784 42.3085 14.7246 42.2263 14.652 42.174C14.5794 42.1217 14.52 42.026 14.52 41.9615C14.52 41.8968 14.4903 41.844 14.454 41.844C14.4177 41.844 14.388 41.7912 14.388 41.7265C14.388 41.662 14.3286 41.5663 14.256 41.514C14.1834 41.4617 14.124 41.366 14.124 41.3015C14.124 41.2368 14.0943 41.184 14.058 41.184C14.0217 41.184 13.992 41.1246 13.992 41.052C13.992 40.9794 13.9623 40.92 13.926 40.92C13.8897 40.92 13.86 40.8606 13.86 40.788C13.86 40.7154 13.8303 40.656 13.794 40.656C13.7577 40.656 13.728 40.5669 13.728 40.458C13.728 40.3491 13.6983 40.26 13.662 40.26C13.6257 40.26 13.596 40.2155 13.596 40.161C13.596 40.1065 13.5663 40.062 13.53 40.062C13.4937 40.062 13.464 40.0026 13.464 39.93C13.464 39.8574 13.4343 39.798 13.398 39.798C13.3617 39.798 13.332 39.7089 13.332 39.6C13.332 39.4911 13.3023 39.402 13.266 39.402C13.2297 39.402 13.2 39.3129 13.2 39.204C13.2 39.0951 13.1703 39.006 13.134 39.006C13.0977 39.006 13.068 38.9169 13.068 38.808C13.068 38.6991 13.0383 38.61 13.002 38.61C12.9657 38.61 12.936 38.5209 12.936 38.412C12.936 38.3031 12.9063 38.214 12.87 38.214C12.8337 38.214 12.804 38.0952 12.804 37.95C12.804 37.8048 12.7743 37.686 12.738 37.686C12.7017 37.686 12.672 37.6117 12.672 37.521C12.672 37.4302 12.6423 37.356 12.606 37.356C12.5697 37.356 12.54 37.2075 12.54 37.026C12.54 36.8445 12.5133 36.696 12.4806 36.696C12.4479 36.696 12.3999 36.3243 12.3737 35.87C12.3474 35.4156 12.2999 35.0279 12.2681 35.008C12.2361 34.9884 12.21 34.6917 12.21 34.349C12.21 33.9776 12.1833 33.726 12.144 33.726C12.1021 33.726 12.078 33.2091 12.078 32.307C12.078 31.4049 12.1021 30.888 12.144 30.888C12.1824 30.888 12.21 30.6681 12.21 30.36C12.21 30.0696 12.2354 29.832 12.2664 29.832C12.2976 29.832 12.3433 29.587 12.3682 29.2875C12.393 28.988 12.4418 28.7331 12.4766 28.7211C12.5114 28.7088 12.54 28.5826 12.54 28.4406C12.54 28.2983 12.5697 28.182 12.606 28.182C12.6423 28.182 12.672 28.0929 12.672 27.984C12.672 27.8751 12.7017 27.786 12.738 27.786C12.7743 27.786 12.804 27.6969 12.804 27.588C12.804 27.4791 12.8337 27.39 12.87 27.39C12.9063 27.39 12.936 27.3306 12.936 27.258C12.936 27.1854 12.9657 27.126 13.002 27.126C13.0383 27.126 13.068 27.0666 13.068 26.994C13.068 26.9214 13.0977 26.862 13.134 26.862C13.1703 26.862 13.2 26.7729 13.2 26.664C13.2 26.5551 13.2297 26.466 13.266 26.466C13.3023 26.466 13.332 26.4066 13.332 26.334C13.332 26.2614 13.3617 26.202 13.398 26.202C13.4343 26.202 13.464 26.164 13.464 26.1175C13.464 26.0712 13.5234 25.9903 13.596 25.938C13.6686 25.8857 13.728 25.79 13.728 25.7255C13.728 25.6608 13.7577 25.608 13.794 25.608C13.8303 25.608 13.86 25.5486 13.86 25.476C13.86 25.4034 13.8897 25.344 13.926 25.344C13.9623 25.344 13.992 25.2965 13.992 25.2384C13.992 25.1805 14.0811 25.0498 14.19 24.948C14.2989 24.8462 14.388 24.7221 14.388 24.6721C14.388 24.6221 14.4474 24.5383 14.52 24.486C14.5926 24.4337 14.652 24.3519 14.652 24.3042C14.652 24.2567 14.7485 24.1151 14.8665 23.99C15.3803 23.4447 15.378 23.4485 15.378 23.1023C15.378 22.9195 15.3483 22.77 15.312 22.77C15.2757 22.77 15.246 22.7106 15.246 22.638C15.246 22.5654 15.2194 22.506 15.1869 22.506C15.1544 22.506 15.1067 22.2684 15.081 21.978C15.0552 21.6876 15.0076 21.45 14.9751 21.45C14.9426 21.45 14.916 21.2866 14.916 21.087C14.916 20.8873 14.8863 20.724 14.85 20.724C14.8082 20.724 14.784 20.2401 14.784 19.404C14.784 18.5679 14.8082 18.084 14.85 18.084C14.8863 18.084 14.916 17.9206 14.916 17.721C14.916 17.5213 14.9419 17.358 14.9734 17.358C15.0051 17.358 15.0519 17.0907 15.0774 16.764C15.1029 16.4373 15.1514 16.17 15.1849 16.17C15.2186 16.17 15.246 16.0809 15.246 15.972C15.246 15.8631 15.2757 15.774 15.312 15.774C15.3483 15.774 15.378 15.6849 15.378 15.576C15.378 15.4671 15.4077 15.378 15.444 15.378C15.4803 15.378 15.51 15.3037 15.51 15.213C15.51 15.1222 15.5397 15.048 15.576 15.048C15.6123 15.048 15.642 14.9589 15.642 14.85C15.642 14.6961 15.6714 14.652 15.774 14.652C15.8466 14.652 15.906 14.6223 15.906 14.586C15.906 14.5464 16.17 14.52 16.566 14.52C16.962 14.52 17.226 14.5464 17.226 14.586C17.226 14.6223 17.3448 14.652 17.49 14.652C17.6352 14.652 17.754 14.6817 17.754 14.718C17.754 14.7543 17.8561 14.784 17.981 14.784C18.1059 14.784 18.2265 14.8137 18.249 14.85C18.2714 14.8863 18.3623 14.916 18.4509 14.916C18.5396 14.916 18.612 14.9427 18.612 14.9756C18.612 15.0082 18.7902 15.0558 19.008 15.081C19.2258 15.1062 19.404 15.1538 19.404 15.1864C19.404 15.2193 19.4634 15.246 19.536 15.246C19.6086 15.246 19.668 15.2757 19.668 15.312C19.668 15.3483 19.7274 15.378 19.8 15.378C19.8726 15.378 19.932 15.4077 19.932 15.444C19.932 15.4803 20.0211 15.51 20.13 15.51C20.2389 15.51 20.328 15.5397 20.328 15.576C20.328 15.6123 20.3874 15.642 20.46 15.642C20.5326 15.642 20.592 15.6717 20.592 15.708C20.592 15.7443 20.6514 15.774 20.724 15.774C20.7966 15.774 20.856 15.8037 20.856 15.84C20.856 15.8763 20.9302 15.906 21.021 15.906C21.1117 15.906 21.186 15.9357 21.186 15.972C21.186 16.0083 21.2454 16.038 21.318 16.038C21.3906 16.038 21.45 16.0677 21.45 16.104C21.45 16.1403 21.5094 16.17 21.582 16.17C21.6546 16.17 21.714 16.1997 21.714 16.236C21.714 16.2723 21.7734 16.302 21.846 16.302C21.9186 16.302 21.978 16.3317 21.978 16.368C21.978 16.4043 22.0374 16.434 22.11 16.434C22.1826 16.434 22.242 16.4637 22.242 16.5C22.242 16.5363 22.3014 16.566 22.374 16.566C22.4466 16.566 22.506 16.5957 22.506 16.632C22.506 16.6683 22.5588 16.698 22.6235 16.698C22.688 16.698 22.7837 16.7574 22.836 16.83C22.8883 16.9026 22.984 16.962 23.0485 16.962C23.1132 16.962 23.166 16.9917 23.166 17.028C23.166 17.0643 23.2188 17.094 23.2835 17.094C23.348 17.094 23.4437 17.1534 23.496 17.226C23.5483 17.2986 23.6291 17.358 23.6755 17.358C23.722 17.358 23.76 17.3827 23.76 17.4128C23.76 17.443 23.8417 17.5096 23.9415 17.5609C24.0413 17.6121 24.1776 17.7137 24.2443 17.7865C24.3819 17.9368 25.5468 17.9705 25.5951 17.8256C25.6083 17.7862 25.7187 17.754 25.8406 17.754C25.9624 17.754 26.0805 17.7243 26.103 17.688C26.1254 17.6517 26.2757 17.622 26.4369 17.622C26.5982 17.622 26.73 17.5923 26.73 17.556C26.73 17.5197 26.8785 17.49 27.06 17.49C27.2415 17.49 27.39 17.4603 27.39 17.424C27.39 17.3874 27.566 17.358 27.786 17.358C28.0059 17.358 28.182 17.3286 28.182 17.292C28.182 17.2557 28.3453 17.226 28.545 17.226C28.7446 17.226 28.908 17.1963 28.908 17.16C28.908 17.1204 29.172 17.094 29.568 17.094C29.964 17.094 30.228 17.0676 30.228 17.028C30.228 16.9866 30.635 16.962 31.317 16.962C31.9989 16.962 32.406 16.9374 32.406 16.896C32.406 16.8569 32.648 16.83 33 16.83C33.3519 16.83 33.594 16.8569 33.594 16.896C33.594 16.9374 34.001 16.962 34.683 16.962C35.3649 16.962 35.772 16.9866 35.772 17.028C35.772 17.0676 36.036 17.094 36.432 17.094C36.828 17.094 37.092 17.1204 37.092 17.16C37.092 17.1963 37.2553 17.226 37.455 17.226C37.6546 17.226 37.818 17.2557 37.818 17.292C37.818 17.3286 37.994 17.358 38.214 17.358C38.4339 17.358 38.61 17.3874 38.61 17.424C38.61 17.4603 38.7585 17.49 38.94 17.49C39.1215 17.49 39.27 17.5197 39.27 17.556C39.27 17.5923 39.4185 17.622 39.6 17.622C39.7815 17.622 39.93 17.6517 39.93 17.688C39.93 17.7243 40.028 17.754 40.1478 17.754C40.2676 17.754 40.3989 17.7873 40.4397 17.8281C40.593 17.9814 41.6191 17.9368 41.7635 17.7705C41.8344 17.6888 41.9344 17.622 41.9857 17.622C42.0369 17.622 42.1217 17.5626 42.174 17.49C42.2263 17.4174 42.3154 17.358 42.372 17.358C42.4286 17.358 42.5177 17.2986 42.57 17.226C42.6223 17.1534 42.7031 17.094 42.7495 17.094C42.796 17.094 42.834 17.0643 42.834 17.028C42.834 16.9917 42.8934 16.962 42.966 16.962C43.0386 16.962 43.098 16.9323 43.098 16.896C43.098 16.8597 43.1508 16.83 43.2155 16.83C43.28 16.83 43.3757 16.7706 43.428 16.698C43.4803 16.6254 43.576 16.566 43.6405 16.566C43.7052 16.566 43.758 16.5363 43.758 16.5C43.758 16.4637 43.8174 16.434 43.89 16.434C43.9626 16.434 44.022 16.4043 44.022 16.368C44.022 16.3317 44.0814 16.302 44.154 16.302C44.2266 16.302 44.286 16.2723 44.286 16.236C44.286 16.1997 44.3454 16.17 44.418 16.17C44.4906 16.17 44.55 16.1403 44.55 16.104C44.55 16.0677 44.6094 16.038 44.682 16.038C44.7546 16.038 44.814 16.0083 44.814 15.972C44.814 15.9357 44.8734 15.906 44.946 15.906C45.0186 15.906 45.078 15.8763 45.078 15.84C45.078 15.8037 45.1374 15.774 45.21 15.774C45.2826 15.774 45.342 15.7443 45.342 15.708C45.342 15.6717 45.4162 15.642 45.507 15.642C45.5977 15.642 45.672 15.6123 45.672 15.576C45.672 15.5397 45.7314 15.51 45.804 15.51C45.8766 15.51 45.936 15.4803 45.936 15.444C45.936 15.4077 45.9954 15.378 46.068 15.378C46.1406 15.378 46.2 15.3483 46.2 15.312C46.2 15.2757 46.2891 15.246 46.398 15.246C46.5069 15.246 46.596 15.2173 46.596 15.1823C46.596 15.1472 46.7445 15.0988 46.926 15.0747C47.1075 15.0506 47.256 15.0051 47.256 14.9734C47.256 14.9419 47.3451 14.916 47.454 14.916C47.5629 14.916 47.652 14.8863 47.652 14.85C47.652 14.8137 47.7411 14.784 47.85 14.784C47.9589 14.784 48.048 14.7543 48.048 14.718C48.048 14.6817 48.1816 14.652 48.345 14.652C48.5083 14.652 48.642 14.6223 48.642 14.586C48.642 14.5462 48.918 14.52 49.338 14.52C50.0904 14.52 50.358 14.6404 50.358 14.979C50.358 15.0533 50.3877 15.114 50.424 15.114C50.4603 15.114 50.49 15.2031 50.49 15.312C50.49 15.4209 50.5197 15.51 50.556 15.51C50.5923 15.51 50.622 15.5991 50.622 15.708C50.622 15.8169 50.6517 15.906 50.688 15.906C50.7243 15.906 50.754 15.9951 50.754 16.104C50.754 16.2129 50.7837 16.302 50.82 16.302C50.8563 16.302 50.886 16.4208 50.886 16.566C50.886 16.7112 50.9157 16.83 50.952 16.83C50.9883 16.83 51.018 16.976 51.018 17.1546C51.018 17.3554 51.0493 17.4895 51.1005 17.5065C51.164 17.5276 51.183 17.9799 51.183 19.47C51.183 20.9601 51.164 21.4124 51.1005 21.4335C51.0531 21.4492 51.018 21.5714 51.018 21.7194C51.018 21.8617 50.9883 21.978 50.952 21.978C50.9157 21.978 50.886 22.0968 50.886 22.242C50.886 22.3872 50.8563 22.506 50.82 22.506C50.7837 22.506 50.754 22.5654 50.754 22.638C50.754 22.7106 50.7243 22.77 50.688 22.77C50.4758 22.77 50.6256 23.4373 50.9025 23.7249C51.2888 24.1261 51.348 24.2032 51.348 24.3037C51.348 24.3517 51.4074 24.4337 51.48 24.486C51.5526 24.5383 51.612 24.6274 51.612 24.684C51.612 24.7406 51.6714 24.8297 51.744 24.882C51.8166 24.9343 51.876 25.0234 51.876 25.08C51.876 25.1366 51.9354 25.2257 52.008 25.278C52.0806 25.3303 52.14 25.426 52.14 25.4905C52.14 25.5552 52.1697 25.608 52.206 25.608C52.2423 25.608 52.272 25.6608 52.272 25.7255C52.272 25.79 52.3314 25.8857 52.404 25.938C52.4766 25.9903 52.536 26.0712 52.536 26.1175C52.536 26.164 52.5657 26.202 52.602 26.202C52.6383 26.202 52.668 26.2614 52.668 26.334C52.668 26.4066 52.6977 26.466 52.734 26.466C52.7703 26.466 52.8 26.5551 52.8 26.664C52.8 26.7729 52.8297 26.862 52.866 26.862C52.9023 26.862 52.932 26.9214 52.932 26.994C52.932 27.0666 52.9617 27.126 52.998 27.126C53.0343 27.126 53.064 27.1854 53.064 27.258C53.064 27.3306 53.0937 27.39 53.13 27.39C53.1663 27.39 53.196 27.4791 53.196 27.588C53.196 27.6969 53.2257 27.786 53.262 27.786C53.2983 27.786 53.328 27.8751 53.328 27.984C53.328 28.0929 53.3577 28.182 53.394 28.182C53.4303 28.182 53.46 28.3008 53.46 28.446C53.46 28.5912 53.4897 28.71 53.526 28.71C53.5623 28.71 53.592 28.8139 53.592 28.941C53.592 29.068 53.6217 29.172 53.658 29.172C53.6943 29.172 53.724 29.3205 53.724 29.502C53.724 29.6835 53.7537 29.832 53.79 29.832C53.8291 29.832 53.856 30.0741 53.856 30.426C53.856 30.7779 53.8829 31.02 53.922 31.02C53.9639 31.02 53.988 31.515 53.988 32.373C53.988 33.231 53.9639 33.726 53.922 33.726C53.8826 33.726 53.856 33.9789 53.856 34.353C53.856 34.7271 53.8294 34.98 53.79 34.98C53.7515 34.98 53.724 35.1999 53.724 35.508C53.724 35.8161 53.6964 36.036 53.658 36.036C53.6217 36.036 53.592 36.1845 53.592 36.366C53.592 36.5475 53.5623 36.696 53.526 36.696C53.4897 36.696 53.46 36.8445 53.46 37.026C53.46 37.2075 53.4303 37.356 53.394 37.356C53.3577 37.356 53.328 37.4599 53.328 37.587C53.328 37.7141 53.2983 37.818 53.262 37.818C53.2257 37.818 53.196 37.9071 53.196 38.016C53.196 38.1249 53.1663 38.214 53.13 38.214C53.0937 38.214 53.064 38.3328 53.064 38.478C53.064 38.6232 53.0343 38.742 52.998 38.742C52.9617 38.742 52.932 38.8014 52.932 38.874C52.932 38.9466 52.9023 39.006 52.866 39.006C52.8297 39.006 52.8 39.0951 52.8 39.204C52.8 39.3129 52.7703 39.402 52.734 39.402C52.6977 39.402 52.668 39.4911 52.668 39.6C52.668 39.7089 52.6383 39.798 52.602 39.798C52.5657 39.798 52.536 39.8574 52.536 39.93C52.536 40.0026 52.5063 40.062 52.47 40.062C52.4337 40.062 52.404 40.1362 52.404 40.227C52.404 40.3178 52.3743 40.392 52.338 40.392C52.3017 40.392 52.272 40.4514 52.272 40.524C52.272 40.5966 52.2423 40.656 52.206 40.656C52.1697 40.656 52.14 40.7154 52.14 40.788C52.14 40.8606 52.1103 40.92 52.074 40.92C52.0377 40.92 52.008 40.9794 52.008 41.052C52.008 41.1246 51.9783 41.184 51.942 41.184C51.9057 41.184 51.876 41.2368 51.876 41.3015C51.876 41.366 51.8166 41.4617 51.744 41.514C51.6714 41.5663 51.612 41.662 51.612 41.7265C51.612 41.7912 51.5823 41.844 51.546 41.844C51.5097 41.844 51.48 41.8968 51.48 41.9615C51.48 42.026 51.4206 42.1217 51.348 42.174C51.2754 42.2263 51.216 42.3207 51.216 42.3835C51.216 42.4466 51.1417 42.5723 51.051 42.6631C50.9602 42.7538 50.886 42.8444 50.886 42.8645C50.886 42.9355 49.1043 44.682 49.0321 44.682C48.9918 44.682 48.8758 44.7711 48.774 44.88C48.6722 44.9889 48.563 45.078 48.5311 45.078C48.4993 45.078 48.4303 45.1374 48.378 45.21C48.3257 45.2826 48.23 45.342 48.1655 45.342C48.1008 45.342 48.048 45.3717 48.048 45.408C48.048 45.4443 47.9952 45.474 47.9305 45.474C47.866 45.474 47.7716 45.5318 47.7208 45.6022C47.67 45.6727 47.5149 45.7495 47.3761 45.773C47.2375 45.7964 47.124 45.8426 47.124 45.8758C47.124 45.9089 47.0712 45.936 47.0065 45.936C46.942 45.936 46.8463 45.9954 46.794 46.068C46.7417 46.1406 46.646 46.2 46.5815 46.2C46.5168 46.2 46.464 46.2297 46.464 46.266C46.464 46.3023 46.4046 46.332 46.332 46.332C46.2594 46.332 46.2 46.3617 46.2 46.398C46.2 46.4343 46.1109 46.464 46.002 46.464C45.8931 46.464 45.804 46.4937 45.804 46.53C45.804 46.5663 45.7594 46.596 45.705 46.596C45.6505 46.596 45.606 46.6257 45.606 46.662C45.606 46.6983 45.5466 46.728 45.474 46.728C45.4014 46.728 45.342 46.7577 45.342 46.794C45.342 46.8303 45.2529 46.86 45.144 46.86C45.0351 46.86 44.946 46.8897 44.946 46.926C44.946 46.9623 44.8866 46.992 44.814 46.992C44.7414 46.992 44.682 47.0217 44.682 47.058C44.682 47.0943 44.5929 47.124 44.484 47.124C44.3751 47.124 44.286 47.1537 44.286 47.19C44.286 47.2263 44.1969 47.256 44.088 47.256C43.9791 47.256 43.89 47.2857 43.89 47.322C43.89 47.3583 43.7712 47.388 43.626 47.388C43.4808 47.388 43.362 47.4177 43.362 47.454C43.362 47.4903 43.258 47.52 43.131 47.52C43.0039 47.52 42.9 47.5497 42.9 47.586C42.9 47.6223 42.7812 47.652 42.636 47.652C42.4908 47.652 42.372 47.6817 42.372 47.718C42.372 47.7543 42.2235 47.784 42.042 47.784C41.8605 47.784 41.712 47.8137 41.712 47.85C41.712 47.8863 41.5635 47.916 41.382 47.916C41.2005 47.916 41.052 47.9457 41.052 47.982C41.052 48.0193 40.865 48.048 40.623 48.048C40.3809 48.048 40.194 48.0767 40.194 48.114C40.194 48.1518 39.996 48.18 39.732 48.18C39.468 48.18 39.27 48.2082 39.27 48.246C39.27 48.2823 39.1809 48.312 39.072 48.312C38.7892 48.312 38.8225 48.4008 39.27 48.84C39.4878 49.0538 39.666 49.2683 39.666 49.3169C39.666 49.3652 39.7254 49.4477 39.798 49.5C39.8706 49.5523 39.93 49.6414 39.93 49.698C39.93 49.7546 39.9877 49.8424 40.0582 49.8932C40.1286 49.944 40.2055 50.0991 40.229 50.2379C40.2524 50.3765 40.2986 50.49 40.3318 50.49C40.3649 50.49 40.392 50.5624 40.392 50.651C40.392 50.7396 40.4217 50.8306 40.458 50.853C40.4943 50.8754 40.524 50.9664 40.524 51.055C40.524 51.1436 40.5537 51.216 40.59 51.216C40.6263 51.216 40.656 51.3051 40.656 51.414C40.656 51.5229 40.6857 51.612 40.722 51.612C40.7583 51.612 40.788 51.7308 40.788 51.876C40.788 52.0212 40.8177 52.14 40.854 52.14C40.8918 52.14 40.92 52.338 40.92 52.602C40.92 52.866 40.9482 53.064 40.986 53.064C41.0294 53.064 41.052 54.9339 41.052 58.542C41.052 62.1501 41.0746 64.02 41.118 64.02C41.1543 64.02 41.184 64.1091 41.184 64.218C41.184 64.3269 41.2137 64.416 41.25 64.416C41.2863 64.416 41.316 64.4465 41.316 64.4838C41.316 64.6285 41.9067 65.142 42.0732 65.142C42.1649 65.142 42.24 65.1717 42.24 65.208C42.24 65.2478 42.515 65.274 42.933 65.274C43.3509 65.274 43.626 65.2478 43.626 65.208C43.626 65.1717 43.6854 65.142 43.758 65.142C43.8306 65.142 43.89 65.1123 43.89 65.076C43.89 65.0397 43.9791 65.01 44.088 65.01C44.1969 65.01 44.286 64.9803 44.286 64.944C44.286 64.9077 44.3751 64.878 44.484 64.878C44.5929 64.878 44.682 64.8483 44.682 64.812C44.682 64.7757 44.7414 64.746 44.814 64.746C44.8866 64.746 44.946 64.7198 44.946 64.6876C44.946 64.6554 45.1093 64.6087 45.309 64.5838C45.5086 64.5589 45.672 64.5109 45.672 64.4772C45.672 64.4436 45.7314 64.416 45.804 64.416C45.8766 64.416 45.936 64.3863 45.936 64.35C45.936 64.3137 45.9954 64.284 46.068 64.284C46.1406 64.284 46.2 64.2543 46.2 64.218C46.2 64.1817 46.2891 64.152 46.398 64.152C46.5069 64.152 46.596 64.1223 46.596 64.086C46.596 64.0497 46.6554 64.02 46.728 64.02C46.8006 64.02 46.86 63.9903 46.86 63.954C46.86 63.9177 46.9194 63.888 46.992 63.888C47.0646 63.888 47.124 63.8583 47.124 63.822C47.124 63.7857 47.1834 63.756 47.256 63.756C47.3286 63.756 47.388 63.7263 47.388 63.69C47.388 63.6537 47.4474 63.624 47.52 63.624C47.5926 63.624 47.652 63.5943 47.652 63.558C47.652 63.5217 47.7114 63.492 47.784 63.492C47.8566 63.492 47.916 63.4623 47.916 63.426C47.916 63.3897 47.9836 63.36 48.0665 63.36C48.1491 63.36 48.2597 63.3006 48.312 63.228C48.3643 63.1554 48.46 63.096 48.5245 63.096C48.5892 63.096 48.642 63.0663 48.642 63.03C48.642 62.9937 48.7014 62.964 48.774 62.964C48.8466 62.964 48.906 62.9343 48.906 62.898C48.906 62.8617 48.9588 62.832 49.0235 62.832C49.088 62.832 49.1837 62.7726 49.236 62.7C49.2883 62.6274 49.384 62.568 49.4485 62.568C49.5132 62.568 49.566 62.5383 49.566 62.502C49.566 62.4657 49.6254 62.436 49.698 62.436C49.7706 62.436 49.83 62.4063 49.83 62.37C49.83 62.3337 49.8894 62.304 49.962 62.304C50.0346 62.304 50.094 62.2743 50.094 62.238C50.094 62.2017 50.1468 62.172 50.2115 62.172C50.276 62.172 50.3717 62.1126 50.424 62.04C50.4763 61.9674 50.5684 61.908 50.6284 61.908C50.6886 61.908 50.7748 61.8635 50.82 61.809C50.8652 61.7546 50.9365 61.71 50.9786 61.71C51.0205 61.71 51.0977 61.6506 51.15 61.578C51.2023 61.5054 51.2914 61.446 51.348 61.446C51.4046 61.446 51.4937 61.3866 51.546 61.314C51.5983 61.2414 51.6874 61.182 51.744 61.182C51.8006 61.182 51.8897 61.1226 51.942 61.05C51.9943 60.9774 52.0834 60.918 52.14 60.918C52.1966 60.918 52.2857 60.8586 52.338 60.786C52.3903 60.7134 52.4735 60.654 52.5228 60.654C52.572 60.654 52.7264 60.5352 52.866 60.39C53.0056 60.2448 53.1546 60.126 53.1973 60.126C53.2856 60.126 53.658 59.747 53.658 59.6571C53.658 59.6246 53.7035 59.598 53.7591 59.598C53.8149 59.598 53.9644 59.494 54.0914 59.367C54.2185 59.2399 54.3668 59.136 54.4213 59.136C54.4757 59.136 54.845 58.8093 55.242 58.41C55.639 58.0107 56.0026 57.684 56.0503 57.684C56.0978 57.684 56.1805 57.6203 56.234 57.5424C56.2873 57.4646 56.4275 57.3022 56.5455 57.1816C56.6635 57.0611 56.7613 56.9243 56.763 56.8776C56.7648 56.8311 56.8844 56.689 57.0291 56.562C57.5886 56.0705 58.08 55.576 58.08 55.5045C58.08 55.4633 58.1988 55.3156 58.344 55.176C58.4892 55.0364 58.608 54.8879 58.608 54.846C58.608 54.8041 58.7268 54.6556 58.872 54.516C59.0172 54.3764 59.136 54.2165 59.136 54.1604C59.136 54.1043 59.2399 53.9545 59.367 53.8275C59.494 53.7004 59.598 53.5776 59.598 53.5547C59.598 53.5318 59.6871 53.4298 59.796 53.328C59.9049 53.2262 59.994 53.1021 59.994 53.0521C59.994 53.0021 60.0534 52.9183 60.126 52.866C60.1986 52.8137 60.258 52.7246 60.258 52.668C60.258 52.6114 60.3174 52.5223 60.39 52.47C60.4626 52.4177 60.522 52.3286 60.522 52.272C60.522 52.2154 60.5814 52.1263 60.654 52.074C60.7266 52.0217 60.786 51.9326 60.786 51.876C60.786 51.8194 60.8454 51.7303 60.918 51.678C60.9906 51.6257 61.05 51.5366 61.05 51.48C61.05 51.4234 61.1094 51.3343 61.182 51.282C61.2546 51.2297 61.314 51.134 61.314 51.0695C61.314 51.0048 61.3437 50.952 61.38 50.952C61.4163 50.952 61.446 50.9121 61.446 50.8632C61.446 50.8144 61.5054 50.7207 61.578 50.655C61.6506 50.5893 61.71 50.4956 61.71 50.4468C61.71 50.3979 61.737 50.358 61.7702 50.358C61.8034 50.358 61.8496 50.2445 61.873 50.1059C61.8964 49.9671 61.9733 49.812 62.0438 49.7612C62.1142 49.7104 62.172 49.616 62.172 49.5515C62.172 49.4868 62.2017 49.434 62.238 49.434C62.2743 49.434 62.304 49.3746 62.304 49.302C62.304 49.2294 62.3337 49.17 62.37 49.17C62.4063 49.17 62.436 49.1106 62.436 49.038C62.436 48.9654 62.4657 48.906 62.502 48.906C62.5383 48.906 62.568 48.8466 62.568 48.774C62.568 48.7014 62.5977 48.642 62.634 48.642C62.6703 48.642 62.7 48.5826 62.7 48.51C62.7 48.4374 62.7297 48.378 62.766 48.378C62.8023 48.378 62.832 48.3186 62.832 48.246C62.832 48.1734 62.8617 48.114 62.898 48.114C62.9343 48.114 62.964 48.0695 62.964 48.015C62.964 47.9606 62.9937 47.916 63.03 47.916C63.0663 47.916 63.096 47.8566 63.096 47.784C63.096 47.7114 63.1257 47.652 63.162 47.652C63.1983 47.652 63.228 47.5629 63.228 47.454C63.228 47.3451 63.2577 47.256 63.294 47.256C63.3303 47.256 63.36 47.1966 63.36 47.124C63.36 47.0514 63.3897 46.992 63.426 46.992C63.4623 46.992 63.492 46.9326 63.492 46.86C63.492 46.7874 63.5217 46.728 63.558 46.728C63.5943 46.728 63.624 46.6686 63.624 46.596C63.624 46.5234 63.6537 46.464 63.69 46.464C63.7263 46.464 63.756 46.3749 63.756 46.266C63.756 46.1571 63.7857 46.068 63.822 46.068C63.8583 46.068 63.888 46.0086 63.888 45.936C63.888 45.8634 63.9177 45.804 63.954 45.804C63.9903 45.804 64.02 45.7149 64.02 45.606C64.02 45.4971 64.0497 45.408 64.086 45.408C64.1223 45.408 64.152 45.3338 64.152 45.243C64.152 45.1523 64.1817 45.078 64.218 45.078C64.2543 45.078 64.284 44.9889 64.284 44.88C64.284 44.7711 64.3137 44.682 64.35 44.682C64.3863 44.682 64.416 44.6226 64.416 44.55C64.416 44.4774 64.4439 44.418 64.478 44.418C64.512 44.418 64.5605 44.2101 64.5854 43.956C64.6105 43.7019 64.6569 43.494 64.6886 43.494C64.7201 43.494 64.746 43.4049 64.746 43.296C64.746 43.1871 64.7757 43.098 64.812 43.098C64.8483 43.098 64.878 42.994 64.878 42.867C64.878 42.7399 64.9077 42.636 64.944 42.636C64.9803 42.636 65.01 42.5172 65.01 42.372C65.01 42.2268 65.0397 42.108 65.076 42.108C65.1123 42.108 65.142 42.0189 65.142 41.91C65.142 41.8011 65.1717 41.712 65.208 41.712C65.2443 41.712 65.274 41.5635 65.274 41.382C65.274 41.2005 65.3037 41.052 65.34 41.052C65.3763 41.052 65.406 40.9035 65.406 40.722C65.406 40.5405 65.4357 40.392 65.472 40.392C65.5083 40.392 65.538 40.2584 65.538 40.095C65.538 39.9317 65.5677 39.798 65.604 39.798C65.6406 39.798 65.67 39.6219 65.67 39.402C65.67 39.1821 65.6994 39.006 65.736 39.006C65.7751 39.006 65.802 38.7658 65.802 38.4174C65.802 38.0054 65.8267 37.8208 65.8845 37.8015C66.0053 37.7612 66.0053 29.6248 65.8845 29.5845C65.8299 29.5664 65.802 29.4136 65.802 29.1336C65.802 28.8951 65.7731 28.71 65.736 28.71C65.6994 28.71 65.67 28.5339 65.67 28.314C65.67 28.0941 65.6406 27.918 65.604 27.918C65.5674 27.918 65.538 27.7419 65.538 27.522C65.538 27.3021 65.5086 27.126 65.472 27.126C65.4357 27.126 65.406 27.0072 65.406 26.862C65.406 26.7168 65.3763 26.598 65.34 26.598C65.3037 26.598 65.274 26.4643 65.274 26.301C65.274 26.1376 65.2443 26.004 65.208 26.004C65.1717 26.004 65.142 25.8852 65.142 25.74C65.142 25.5948 65.1123 25.476 65.076 25.476C65.0397 25.476 65.01 25.3572 65.01 25.212C65.01 25.0668 64.9803 24.948 64.944 24.948C64.9077 24.948 64.878 24.8589 64.878 24.75C64.878 24.6411 64.8483 24.552 64.812 24.552C64.7757 24.552 64.746 24.4629 64.746 24.354C64.746 24.2451 64.7198 24.156 64.6877 24.156C64.6556 24.156 64.6087 23.9629 64.5835 23.727C64.5582 23.4911 64.5102 23.298 64.4767 23.298C64.4434 23.298 64.416 23.2089 64.416 23.1C64.416 22.9911 64.3863 22.902 64.35 22.902C64.3137 22.902 64.284 22.8129 64.284 22.704C64.284 22.5951 64.2543 22.506 64.218 22.506C64.1817 22.506 64.152 22.4466 64.152 22.374C64.152 22.3014 64.1223 22.242 64.086 22.242C64.0497 22.242 64.02 22.1529 64.02 22.044C64.02 21.9351 63.9903 21.846 63.954 21.846C63.9177 21.846 63.888 21.7569 63.888 21.648C63.888 21.5391 63.8583 21.45 63.822 21.45C63.7857 21.45 63.756 21.3906 63.756 21.318C63.756 21.2454 63.7263 21.186 63.69 21.186C63.6537 21.186 63.624 21.1117 63.624 21.021C63.624 20.9302 63.5943 20.856 63.558 20.856C63.5217 20.856 63.492 20.7966 63.492 20.724C63.492 20.6514 63.4623 20.592 63.426 20.592C63.3897 20.592 63.36 20.5326 63.36 20.46C63.36 20.3874 63.3303 20.328 63.294 20.328C63.2577 20.328 63.228 20.2686 63.228 20.196C63.228 20.1234 63.1983 20.064 63.162 20.064C63.1257 20.064 63.096 20.0046 63.096 19.932C63.096 19.8594 63.0663 19.8 63.03 19.8C62.9937 19.8 62.964 19.7406 62.964 19.668C62.964 19.5954 62.9343 19.536 62.898 19.536C62.8617 19.536 62.832 19.4469 62.832 19.338C62.832 19.2291 62.8023 19.14 62.766 19.14C62.7297 19.14 62.7 19.0806 62.7 19.008C62.7 18.9354 62.6703 18.876 62.634 18.876C62.5977 18.876 62.568 18.8232 62.568 18.7585C62.568 18.694 62.5086 18.5983 62.436 18.546C62.3634 18.4937 62.304 18.398 62.304 18.3335C62.304 18.2688 62.2743 18.216 62.238 18.216C62.2017 18.216 62.172 18.1714 62.172 18.117C62.172 18.0625 62.1423 18.018 62.106 18.018C62.0697 18.018 62.04 17.9586 62.04 17.886C62.04 17.8134 62.0129 17.754 61.9798 17.754C61.9466 17.754 61.9004 17.6405 61.877 17.5019C61.8535 17.3631 61.7766 17.208 61.7062 17.1572C61.6357 17.1064 61.578 17.012 61.578 16.9475C61.578 16.8828 61.5483 16.83 61.512 16.83C61.4757 16.83 61.446 16.7772 61.446 16.7125C61.446 16.648 61.3866 16.5523 61.314 16.5C61.2414 16.4477 61.182 16.3586 61.182 16.302C61.182 16.2454 61.1226 16.1563 61.05 16.104C60.9774 16.0517 60.918 15.956 60.918 15.8915C60.918 15.8268 60.8883 15.774 60.852 15.774C60.8157 15.774 60.786 15.7166 60.786 15.6465C60.786 15.5763 60.7266 15.5001 60.654 15.477C60.5814 15.4539 60.522 15.3895 60.522 15.3341C60.522 15.2785 60.4329 15.1498 60.324 15.048C60.2151 14.9462 60.126 14.8221 60.126 14.7721C60.126 14.7221 60.0666 14.6383 59.994 14.586C59.9214 14.5337 59.862 14.4499 59.862 14.3999C59.862 14.3499 59.7729 14.2258 59.664 14.124C59.5551 14.0222 59.466 13.905 59.466 13.8635C59.466 13.822 59.3917 13.7138 59.301 13.6231C59.2102 13.5323 59.136 13.4137 59.136 13.3594C59.136 13.3051 59.0172 13.1477 58.872 13.0096C58.7268 12.8715 58.608 12.737 58.608 12.7109C58.608 12.6849 58.4595 12.5187 58.278 12.342C58.0965 12.1653 57.948 11.9884 57.948 11.9491C57.948 11.8539 54.939 8.844 54.8438 8.844C54.8031 8.844 54.6556 8.7252 54.516 8.58C54.3764 8.4348 54.2279 8.316 54.186 8.316C54.0971 8.316 53.592 7.80631 53.592 7.71655C53.592 7.68322 53.5369 7.656 53.4696 7.656C53.4022 7.656 53.276 7.57135 53.1891 7.46806C53.1021 7.36461 52.9493 7.26016 52.8495 7.23574C52.7497 7.21149 52.668 7.16232 52.668 7.12668C52.668 7.0912 52.6205 7.062 52.5624 7.062C52.5045 7.062 52.3738 6.9729 52.272 6.864C52.1702 6.7551 52.0514 6.666 52.008 6.666C51.9646 6.666 51.8458 6.5769 51.744 6.468C51.6422 6.3591 51.5115 6.27 51.4536 6.27C51.3955 6.27 51.348 6.2403 51.348 6.204C51.348 6.1677 51.2952 6.138 51.2305 6.138C51.166 6.138 51.0703 6.0786 51.018 6.006C50.9657 5.9334 50.8914 5.874 50.853 5.874C50.8145 5.874 50.7403 5.8146 50.688 5.742C50.6357 5.6694 50.54 5.61 50.4755 5.61C50.4108 5.61 50.358 5.5803 50.358 5.544C50.358 5.5077 50.3052 5.478 50.2405 5.478C50.176 5.478 50.0803 5.4186 50.028 5.346C49.9757 5.2734 49.88 5.214 49.8155 5.214C49.7508 5.214 49.698 5.1843 49.698 5.148C49.698 5.1117 49.6452 5.082 49.5805 5.082C49.516 5.082 49.4203 5.0226 49.368 4.95C49.3157 4.8774 49.22 4.818 49.1555 4.818C49.0908 4.818 49.038 4.7883 49.038 4.752C49.038 4.7157 48.9786 4.686 48.906 4.686C48.8334 4.686 48.774 4.65894 48.774 4.62577C48.774 4.59261 48.6552 4.54558 48.51 4.521C48.3648 4.49641 48.246 4.44939 48.246 4.41622C48.246 4.38306 48.2014 4.356 48.147 4.356C48.0925 4.356 48.048 4.3263 48.048 4.29C48.048 4.2537 47.9886 4.224 47.916 4.224C47.8434 4.224 47.784 4.1943 47.784 4.158C47.784 4.1217 47.7246 4.092 47.652 4.092C47.5794 4.092 47.52 4.0623 47.52 4.026C47.52 3.9897 47.4606 3.96 47.388 3.96C47.3154 3.96 47.256 3.9303 47.256 3.894C47.256 3.8577 47.1966 3.828 47.124 3.828C47.0514 3.828 46.992 3.7983 46.992 3.762C46.992 3.7257 46.9326 3.696 46.86 3.696C46.7874 3.696 46.728 3.6663 46.728 3.63C46.728 3.5937 46.6686 3.564 46.596 3.564C46.5234 3.564 46.464 3.5343 46.464 3.498C46.464 3.4617 46.4046 3.432 46.332 3.432C46.2594 3.432 46.2 3.4023 46.2 3.366C46.2 3.3297 46.1109 3.3 46.002 3.3C45.8931 3.3 45.804 3.2703 45.804 3.234C45.804 3.1977 45.7446 3.168 45.672 3.168C45.5994 3.168 45.54 3.1383 45.54 3.102C45.54 3.0657 45.4657 3.036 45.375 3.036C45.2842 3.036 45.21 3.0063 45.21 2.97C45.21 2.9337 45.1506 2.904 45.078 2.904C45.0054 2.904 44.946 2.8743 44.946 2.838C44.946 2.8017 44.8569 2.772 44.748 2.772C44.6391 2.772 44.55 2.7423 44.55 2.706C44.55 2.6697 44.4609 2.64 44.352 2.64C44.2431 2.64 44.154 2.6103 44.154 2.574C44.154 2.5377 44.0946 2.508 44.022 2.508C43.9494 2.508 43.89 2.4783 43.89 2.442C43.89 2.4057 43.7712 2.376 43.626 2.376C43.4808 2.376 43.362 2.3463 43.362 2.31C43.362 2.2737 43.2729 2.244 43.164 2.244C43.0551 2.244 42.966 2.2143 42.966 2.178C42.966 2.1417 42.8936 2.112 42.805 2.112C42.7163 2.112 42.6254 2.0823 42.603 2.046C42.5806 2.0097 42.4896 1.98 42.401 1.98C42.3124 1.98 42.24 1.9503 42.24 1.914C42.24 1.8777 42.1212 1.848 41.976 1.848C41.8308 1.848 41.712 1.82143 41.712 1.78893C41.712 1.75642 41.4744 1.70874 41.184 1.683C40.8936 1.65726 40.656 1.60957 40.656 1.57707C40.656 1.54456 40.5075 1.518 40.326 1.518C40.1445 1.518 39.996 1.4883 39.996 1.452C39.996 1.4157 39.892 1.386 39.765 1.386C39.6379 1.386 39.534 1.3563 39.534 1.32C39.534 1.28337 39.3579 1.254 39.138 1.254C38.918 1.254 38.742 1.22463 38.742 1.188C38.742 1.15021 38.544 1.122 38.28 1.122C38.016 1.122 37.818 1.09378 37.818 1.056C37.818 1.01788 37.6089 0.989998 37.323 0.989998C37.037 0.989998 36.828 0.962113 36.828 0.923998C36.828 0.884398 36.564 0.857998 36.168 0.857998C35.772 0.857998 35.508 0.831598 35.508 0.791998C35.508 0.749098 34.628 0.725998 33 0.725998C31.3719 0.725998 30.492 0.749098 30.492 0.791998ZM42.1905 44.3847C42.0506 44.5436 42.1649 44.814 42.372 44.814C42.4134 44.814 42.4898 44.7716 42.5418 44.7198C42.5936 44.6678 42.636 44.5914 42.636 44.55C42.636 44.3334 42.3342 44.2215 42.1905 44.3847Z" fill="white"/>
</svg>
