<svg width="66" height="66" viewBox="0 0 66 66" fill="none" xmlns="http://www.w3.org/2000/svg">
<g clip-path="url(#clip0)">
<path fill-rule="evenodd" clip-rule="evenodd" d="M31.53 0.0179755C31.4393 0.0237505 31.1288 0.0432205 30.84 0.0612055C15.6268 1.00765 2.92663 12.4991 0.435459 27.572C0.268149 28.5844 0.0193287 30.7792 0.0665187 30.8264C0.0810387 30.841 17.7877 38.13 17.8086 38.13C17.8169 38.13 17.9712 38.0425 18.1513 37.9355C19.5489 37.106 21.0017 36.6877 22.657 36.6386L23.2489 36.6209L27.277 30.7698L31.305 24.9186L31.3249 24.3317C31.6094 15.9687 39.8259 10.2133 47.7519 12.8253C54.9675 15.2033 58.4249 23.4724 55.0533 30.288C52.9692 34.5007 48.8849 37.1073 44.1001 37.2784L43.515 37.2994L37.755 41.416L31.995 45.5327L31.9757 46.0838C31.7607 52.2431 25.6884 56.4316 19.867 54.4361C17.0307 53.4639 14.7918 51.0589 14.0324 48.1691C13.9765 47.9562 13.9118 47.7729 13.8881 47.7597C13.8643 47.7465 11.0573 46.5858 7.65008 45.18C4.24283 43.7742 1.44493 42.6178 1.43255 42.6102C1.42034 42.6028 1.42199 42.6277 1.43651 42.6658C1.45103 42.7038 1.46357 42.7417 1.46456 42.75C1.46654 42.7688 1.45681 42.7388 1.69903 43.4701C1.81106 43.8083 1.90495 44.0951 1.90759 44.1075C1.91023 44.1198 1.91584 44.1367 1.91996 44.1449C1.92409 44.1532 1.93036 44.1702 1.93382 44.1825C1.93729 44.1949 1.95709 44.2456 1.97804 44.2951C1.99883 44.3446 2.01929 44.3985 2.02342 44.415C2.02754 44.4315 2.04767 44.4855 2.06846 44.535C2.08909 44.5845 2.10938 44.6384 2.11334 44.6549C2.11747 44.6714 2.13776 44.7255 2.15839 44.775C2.17901 44.8245 2.19931 44.8785 2.20343 44.895C2.22274 44.9719 2.3026 45.1668 2.36035 45.2775C2.38411 45.3228 2.39566 45.36 2.38609 45.36C2.37652 45.36 2.39071 45.3938 2.41777 45.435C2.44483 45.4763 2.45836 45.51 2.4478 45.51C2.43724 45.51 2.44862 45.5403 2.47288 45.5774C2.49713 45.6146 2.51743 45.6553 2.51792 45.6679C2.51842 45.6804 2.53954 45.7309 2.56495 45.7801C2.59052 45.8291 2.61065 45.8764 2.60999 45.885C2.60933 45.8936 2.62963 45.9408 2.65504 45.9899C2.68045 46.0391 2.70074 46.0865 2.70008 46.095C2.69942 46.1036 2.71955 46.1508 2.74496 46.2C2.77037 46.2492 2.78951 46.297 2.78737 46.3064C2.78357 46.3229 2.82911 46.4203 3.00698 46.7768C3.05417 46.8712 3.09146 46.9558 3.08998 46.9649C3.08635 46.9865 3.83281 48.4842 3.87026 48.5308C3.8861 48.5504 3.92966 48.6314 3.96712 48.7108C4.00441 48.79 4.0511 48.872 4.07074 48.8928C4.09037 48.9136 4.12337 48.9778 4.14416 49.0353C4.16512 49.0929 4.19201 49.1399 4.20406 49.1399C4.21627 49.1399 4.24316 49.1873 4.26412 49.2451C4.28491 49.3028 4.31197 49.35 4.32418 49.35C4.33622 49.35 4.36328 49.3972 4.38407 49.4549C4.40503 49.5127 4.43126 49.56 4.44248 49.56C4.45354 49.56 4.48076 49.6039 4.50254 49.6576C4.52449 49.7112 4.55996 49.7729 4.58125 49.7947C4.60253 49.8165 4.62002 49.8536 4.62002 49.8772C4.62002 49.9008 4.63256 49.9199 4.64807 49.9199C4.66342 49.9199 4.68536 49.9498 4.69691 49.9861C4.70846 50.0224 4.73635 50.0707 4.75895 50.0932C4.78156 50.1158 4.80004 50.1535 4.80004 50.1771C4.80004 50.2007 4.81142 50.22 4.82528 50.22C4.83914 50.22 4.87627 50.2702 4.90778 50.3316C4.9393 50.3931 4.98913 50.4705 5.01866 50.5035C5.0482 50.5367 5.08004 50.5944 5.08945 50.6319C5.09885 50.6693 5.11849 50.7 5.13334 50.7C5.14802 50.7 5.16007 50.7192 5.16007 50.7424C5.16007 50.7659 5.17178 50.7895 5.1863 50.7949C5.22128 50.8083 5.49007 51.2265 5.49007 51.2678C5.49007 51.2854 5.5036 51.3 5.5201 51.3C5.5366 51.3 5.54996 51.3191 5.54996 51.3425C5.54996 51.3658 5.56151 51.3896 5.57537 51.395C5.61316 51.4099 5.82007 51.7069 5.82007 51.7461C5.82007 51.7648 5.8336 51.7799 5.8501 51.7799C5.8666 51.7799 5.87996 51.7941 5.87996 51.8113C5.87996 51.8285 5.91379 51.879 5.95504 51.9235C5.99629 51.9681 6.02995 52.0152 6.02995 52.0284C6.02995 52.0418 6.06377 52.089 6.10502 52.1335C6.14627 52.1779 6.1801 52.2253 6.1801 52.2385C6.1801 52.2517 6.21376 52.299 6.25501 52.3434C6.29626 52.388 6.33008 52.44 6.33008 52.4589C6.33008 52.4781 6.35021 52.5013 6.37496 52.5109C6.39971 52.5203 6.42001 52.5474 6.42001 52.5708C6.42001 52.5944 6.4403 52.6213 6.46505 52.6309C6.4898 52.6403 6.5101 52.6688 6.5101 52.6941C6.5101 52.7193 6.52396 52.7399 6.54095 52.7399C6.55795 52.7399 6.58022 52.7615 6.59029 52.7878C6.60035 52.8142 6.64721 52.8779 6.6944 52.9295C6.74143 52.9812 6.78004 53.0331 6.78004 53.045C6.78004 53.0569 6.82723 53.1179 6.88481 53.1808C6.94256 53.2437 6.98975 53.3118 6.98992 53.3324C6.98992 53.3531 7.00064 53.3701 7.01368 53.3701C7.02655 53.3701 7.0805 53.4273 7.13347 53.4974C7.18643 53.5676 7.25359 53.6562 7.28246 53.6943C7.31134 53.7324 7.36546 53.7923 7.40258 53.8273C7.43971 53.8623 7.47007 53.9012 7.47007 53.9141C7.47007 53.9268 7.50043 53.97 7.53755 54.0099C7.60553 54.0832 7.71344 54.2078 7.86986 54.394C7.91656 54.4495 8.00021 54.5465 8.05549 54.6094C8.11093 54.6722 8.20514 54.7801 8.26504 54.8493C8.71714 55.3712 10.0282 56.7187 10.5472 57.1949C10.709 57.3434 10.8699 57.4919 10.9049 57.5249C11.2481 57.8488 12.396 58.8015 12.99 59.2554C19.9218 64.5531 28.7417 66.8826 37.4398 65.7132C43.7397 64.8663 49.6145 62.2273 54.4921 58.0533C54.7546 57.8287 55.012 57.6045 55.0643 57.555C55.1166 57.5055 55.2915 57.3434 55.4531 57.1949C55.7839 56.8907 56.8084 55.8635 57.1501 55.4933C57.5068 55.1068 57.6187 54.9836 57.735 54.8493C57.7949 54.7801 57.8888 54.6722 57.9439 54.6094C58.1038 54.4266 58.2193 54.2924 58.3102 54.1837C58.3569 54.1281 58.4254 54.0499 58.4625 54.0099C58.4996 53.97 58.53 53.9251 58.53 53.9103C58.53 53.8956 58.5547 53.8657 58.5848 53.8441C58.615 53.8227 58.6521 53.7829 58.6673 53.7557C58.6961 53.7047 58.8659 53.4941 58.9575 53.3961C58.9864 53.3653 59.0101 53.3298 59.0101 53.3174C59.0103 53.305 59.0555 53.2458 59.1108 53.1856C59.1661 53.1255 59.2195 53.0546 59.2297 53.0282C59.2398 53.0016 59.2621 52.98 59.2791 52.98C59.2961 52.98 59.3101 52.9594 59.3101 52.934C59.3101 52.9087 59.3302 52.8803 59.355 52.8708C59.3797 52.8614 59.4 52.8378 59.4 52.8185C59.4 52.7992 59.4386 52.7411 59.4857 52.6896C59.5329 52.638 59.5797 52.5741 59.5898 52.5479C59.5998 52.5215 59.6221 52.5 59.6391 52.5C59.6561 52.5 59.67 52.483 59.67 52.4622C59.67 52.4414 59.7038 52.388 59.745 52.3434C59.7863 52.299 59.82 52.2492 59.82 52.2327C59.82 52.2164 59.8369 52.1921 59.8576 52.1789C59.8782 52.1657 59.9133 52.1197 59.9354 52.0766C59.9577 52.0334 60.0082 51.9631 60.048 51.9204C60.0876 51.8776 60.1201 51.8336 60.1201 51.8224C60.1201 51.793 60.3348 51.4968 60.3646 51.4849C60.3786 51.4795 60.39 51.4559 60.39 51.4325C60.39 51.409 60.4036 51.3901 60.4201 51.3901C60.4366 51.3901 60.4501 51.3698 60.4501 51.345C60.4501 51.3203 60.4635 51.3 60.48 51.3C60.4965 51.3 60.51 51.2797 60.51 51.2549C60.51 51.2302 60.5235 51.21 60.54 51.21C60.5565 51.21 60.57 51.1959 60.57 51.1785C60.57 51.1378 60.7798 50.8081 60.8139 50.7949C60.8283 50.7895 60.84 50.7659 60.84 50.7424C60.84 50.7192 60.852 50.7 60.8667 50.7C60.8816 50.7 60.9012 50.6693 60.9106 50.6319C60.92 50.5944 60.9519 50.5367 60.9814 50.5035C61.0109 50.4705 61.0608 50.3931 61.0923 50.3316C61.1238 50.2702 61.1609 50.22 61.1748 50.22C61.1886 50.22 61.2 50.2007 61.2 50.1771C61.2 50.1535 61.2185 50.1158 61.2411 50.0932C61.2637 50.0707 61.2916 50.0224 61.3031 49.9861C61.3147 49.9498 61.3366 49.9199 61.352 49.9199C61.3675 49.9199 61.38 49.9008 61.38 49.8772C61.38 49.8536 61.3975 49.8165 61.4188 49.7947C61.4401 49.7729 61.4756 49.7112 61.4975 49.6576C61.5193 49.6039 61.5477 49.56 61.5604 49.56C61.5731 49.56 61.592 49.5262 61.6023 49.485C61.6127 49.4437 61.6353 49.4101 61.6524 49.4101C61.6696 49.4101 61.6752 49.3965 61.665 49.38C61.6547 49.3635 61.6581 49.35 61.6722 49.35C61.6864 49.35 61.7151 49.3028 61.7359 49.2451C61.7569 49.1873 61.7838 49.1399 61.796 49.1399C61.808 49.1399 61.8349 49.0929 61.8559 49.0353C61.8767 48.9778 61.9097 48.9136 61.9293 48.8928C61.9489 48.872 61.9956 48.79 62.0329 48.7108C62.0704 48.6314 62.1141 48.5504 62.1301 48.5308C62.1695 48.4823 62.9198 46.9748 62.9282 46.927C62.9319 46.906 62.9766 46.8149 63.0277 46.7245C63.0787 46.6339 63.1133 46.56 63.1046 46.56C63.096 46.56 63.1181 46.5026 63.1538 46.4325C63.1896 46.3623 63.2166 46.3015 63.2138 46.2972C63.211 46.2929 63.2297 46.2492 63.2551 46.2C63.2805 46.1508 63.3019 46.1003 63.3029 46.0878C63.3039 46.0752 63.329 46.0177 63.3587 45.9599C63.4163 45.848 63.4854 45.6847 63.4858 45.6599C63.4859 45.6517 63.5008 45.618 63.5191 45.585C63.5372 45.552 63.5551 45.5114 63.5587 45.4949C63.5643 45.469 63.5988 45.3832 63.758 44.9999C63.7752 44.9587 63.7928 44.9115 63.7973 44.895C63.809 44.8519 63.978 44.4016 64.0225 44.2951C64.0431 44.2456 64.0628 44.1949 64.0662 44.1825C64.0697 44.1702 64.076 44.1532 64.0801 44.1449C64.0842 44.1367 64.0898 44.1198 64.0925 44.1075C64.1114 44.022 64.2134 43.7482 64.2377 43.7176C64.254 43.6969 64.2573 43.6799 64.2451 43.6799C64.2327 43.6799 64.2395 43.6598 64.2601 43.6351C64.2806 43.6103 64.2873 43.59 64.275 43.59C64.2627 43.59 64.2695 43.5697 64.29 43.545C64.3106 43.5202 64.3174 43.4999 64.305 43.4999C64.2928 43.4999 64.2995 43.4798 64.32 43.455C64.3406 43.4303 64.3474 43.41 64.335 43.41C64.3228 43.41 64.3268 43.3932 64.3438 43.3725C64.3609 43.3519 64.3761 43.3249 64.3774 43.3125C64.3789 43.3001 64.3811 43.2866 64.3824 43.2825C64.3835 43.2783 64.3893 43.25 64.3951 43.2194C64.4008 43.1887 64.4353 43.0741 64.4718 42.9643C64.5464 42.7396 64.5649 42.6784 64.5616 42.6673C64.5604 42.6632 64.5792 42.6122 64.6033 42.5543C64.6276 42.4964 64.648 42.4424 64.6487 42.4345C64.6495 42.4264 64.651 42.4165 64.6523 42.4124C64.6558 42.401 64.679 42.3047 64.6884 42.2624C64.6929 42.2418 64.7073 42.2081 64.7201 42.1875C64.733 42.1669 64.7363 42.1501 64.7275 42.1501C64.7188 42.1501 64.7259 42.1129 64.7434 42.0676C64.7759 41.9834 64.7919 41.9237 64.8175 41.79C64.8254 41.7488 64.8402 41.6947 64.8505 41.6699C64.8757 41.6092 64.8838 41.5803 64.9051 41.475C64.9152 41.4255 64.9704 41.2028 65.028 40.98C65.0854 40.7573 65.1395 40.5345 65.1481 40.485C65.1569 40.4355 65.1785 40.341 65.1965 40.275C65.2145 40.209 65.2328 40.128 65.2372 40.095C65.2417 40.062 65.2603 39.9742 65.2786 39.9C65.2971 39.8257 65.3184 39.7312 65.3262 39.6899C65.3339 39.6487 65.3461 39.5879 65.3536 39.5549C65.3785 39.4432 65.3963 39.3454 65.4139 39.2249C65.4237 39.1589 65.4392 39.0807 65.4483 39.0512C65.4573 39.0217 65.4709 38.9474 65.4783 38.8862C65.4856 38.825 65.4991 38.7509 65.5082 38.7217C65.5172 38.6923 65.5309 38.6248 65.5388 38.5717C65.5466 38.5184 65.558 38.448 65.5639 38.415C65.5699 38.382 65.5831 38.2874 65.5933 38.2049C65.6034 38.1224 65.6202 38.0145 65.6306 37.965C65.6412 37.9155 65.6525 37.848 65.6563 37.815C65.6875 37.5314 65.7029 37.4134 65.7174 37.3434C65.7268 37.2987 65.7392 37.2177 65.7451 37.1634C65.751 37.1093 65.7639 36.9974 65.7735 36.9149C65.8345 36.3917 65.8614 36.1186 65.8972 35.655C65.9061 35.5395 65.9187 35.3775 65.9251 35.295C65.9721 34.694 65.9839 34.2068 65.9844 32.85C65.985 31.2843 65.9736 31.0236 65.8479 29.7315C64.3733 14.5716 52.5514 2.31874 37.44 0.287585C35.8887 0.0790255 35.0754 0.0262255 33.2549 0.0161605C32.3969 0.0113755 31.6208 0.0122005 31.53 0.0179755ZM43.2028 16.3802C36.0662 16.9777 32.8905 25.6085 37.9475 30.6621C42.5466 35.2578 50.4062 33.0442 51.9622 26.715C53.3087 21.237 48.7956 15.9121 43.2028 16.3802ZM44.4644 18.4813C49.7031 19.0083 51.991 25.4321 48.2666 29.1565C44.6794 32.7437 38.5391 30.771 37.6794 25.755C36.9874 21.7171 40.3884 18.0711 44.4644 18.4813ZM22.425 38.7197C21.6939 38.7789 20.3701 39.0745 20.3701 39.1786C20.3701 39.1908 21.3251 39.5957 22.4925 40.0782C23.6599 40.5608 24.7494 41.0229 24.9135 41.1053C27.4608 42.3827 28.4822 45.5045 27.1942 48.075C26.1545 50.1498 23.8193 51.2845 21.5439 50.8208C21.0712 50.7244 20.84 50.6372 18.6155 49.7146C17.4607 49.236 16.5114 48.8486 16.506 48.854C16.471 48.8892 16.9033 49.6308 17.1671 49.9881C20.6673 54.7297 28.153 53.3232 29.6672 47.6394C30.9108 42.9719 27.1476 38.3372 22.425 38.7197Z" fill="white"/>
</g>
<defs>
<clipPath id="clip0">
<rect width="66" height="66" fill="white"/>
</clipPath>
</defs>
</svg>
