<svg width="66" height="66" viewBox="0 0 66 66" fill="none" xmlns="http://www.w3.org/2000/svg">
<g clip-path="url(#clip0)">
<path fill-rule="evenodd" clip-rule="evenodd" d="M29.6251 0.0482964C29.1707 0.0684264 29.1169 0.0849264 29.0829 0.215276C29.0529 0.329951 29.0282 0.343151 28.9636 0.278636C28.8642 0.179141 27.8527 0.165116 27.8527 0.263291C27.8527 0.300581 27.6658 0.329291 27.4237 0.329291C27.1816 0.329291 26.9947 0.358002 26.9947 0.395292C26.9947 0.431592 26.8462 0.461291 26.6647 0.461291C26.4832 0.461291 26.3347 0.490992 26.3347 0.527292C26.3347 0.563592 26.2456 0.593292 26.1367 0.593292C26.0224 0.593292 25.9456 0.625301 25.9552 0.668862C25.9664 0.720507 25.8409 0.739811 25.5592 0.730241C25.3011 0.721331 25.1467 0.742451 25.1467 0.786672C25.1467 0.825446 25.0279 0.857292 24.8827 0.857292C24.7375 0.857292 24.6187 0.886992 24.6187 0.923292C24.6187 0.959592 24.5017 0.989292 24.3587 0.989292C24.2156 0.989292 24.0801 1.01899 24.0577 1.05529C24.0353 1.09159 23.9295 1.12129 23.8227 1.12129C23.6942 1.12129 23.6287 1.15479 23.6287 1.22029C23.6287 1.29174 23.5554 1.31929 23.3647 1.31929C23.2195 1.31929 23.1007 1.34899 23.1007 1.38529C23.1007 1.42159 23.0413 1.45129 22.9687 1.45129C22.8961 1.45129 22.8367 1.48099 22.8367 1.51729C22.8367 1.55359 22.7476 1.58329 22.6387 1.58329C22.5298 1.58329 22.4407 1.61299 22.4407 1.64929C22.4407 1.68559 22.3516 1.71529 22.2427 1.71529C22.1338 1.71529 22.0447 1.74499 22.0447 1.78129C22.0447 1.81759 21.9556 1.84729 21.8467 1.84729C21.7378 1.84729 21.6487 1.87699 21.6487 1.91329C21.6487 1.94959 21.5596 1.97929 21.4507 1.97929C21.3418 1.97929 21.2527 2.00899 21.2527 2.04529C21.2527 2.08159 21.1488 2.11129 21.0217 2.11129C20.8947 2.11129 20.7907 2.14099 20.7907 2.17729C20.7907 2.21359 20.7313 2.24329 20.6587 2.24329C20.5861 2.24329 20.5267 2.27299 20.5267 2.30929C20.5267 2.34559 20.4376 2.37529 20.3287 2.37529C20.2198 2.37529 20.1307 2.40499 20.1307 2.44129C20.1307 2.47759 20.0713 2.50729 19.9987 2.50729C19.9261 2.50729 19.8667 2.53699 19.8667 2.57329C19.8667 2.60959 19.8073 2.63929 19.7347 2.63929C19.6621 2.63929 19.6027 2.66899 19.6027 2.70529C19.6027 2.74159 19.5433 2.77129 19.4707 2.77129C19.3981 2.77129 19.3387 2.80099 19.3387 2.83729C19.3387 2.87359 19.2496 2.90329 19.1407 2.90329C19.0318 2.90329 18.9427 2.93299 18.9427 2.96929C18.9427 3.00559 18.8833 3.03529 18.8107 3.03529C18.7381 3.03529 18.6787 3.06499 18.6787 3.10129C18.6787 3.13759 18.6193 3.16729 18.5467 3.16729C18.4741 3.16729 18.4147 3.19699 18.4147 3.23329C18.4147 3.26959 18.3619 3.29929 18.2972 3.29929C18.2327 3.29929 18.137 3.35869 18.0847 3.43129C18.0324 3.50389 17.9219 3.56329 17.8392 3.56329C17.7564 3.56329 17.6887 3.59299 17.6887 3.62929C17.6887 3.66559 17.6293 3.69529 17.5567 3.69529C17.4841 3.69529 17.4247 3.72499 17.4247 3.76129C17.4247 3.79759 17.3653 3.82729 17.2927 3.82729C17.2201 3.82729 17.1571 3.85699 17.1525 3.89329C17.1478 3.92959 17.1368 3.98899 17.1277 4.02529C17.1186 4.06159 17.1076 4.12198 17.103 4.1596C17.0973 4.20613 17.0525 4.20531 16.9627 4.15729C16.8508 4.0974 16.8307 4.10713 16.8307 4.22098C16.8307 4.37394 16.8061 4.38202 16.6299 4.28781C16.5251 4.23171 16.5109 4.23897 16.5461 4.33071C16.5814 4.42261 16.559 4.43367 16.4126 4.39687C16.3083 4.3708 16.2367 4.38021 16.2367 4.41997C16.2367 4.4571 16.1773 4.48729 16.1047 4.48729C16.0314 4.48729 15.9727 4.53135 15.9727 4.58629C15.9727 4.64074 15.9199 4.68529 15.8552 4.68529C15.7907 4.68529 15.695 4.74469 15.6427 4.81729C15.5904 4.88989 15.5013 4.94929 15.4447 4.94929C15.3881 4.94929 15.299 5.00869 15.2467 5.08129C15.1944 5.15389 15.0987 5.21329 15.0342 5.21329C14.9695 5.21329 14.9167 5.24299 14.9167 5.27929C14.9167 5.31559 14.8639 5.34529 14.7992 5.34529C14.7347 5.34529 14.639 5.40469 14.5867 5.47729C14.5344 5.54989 14.4536 5.60929 14.4072 5.60929C14.3607 5.60929 14.3227 5.63899 14.3227 5.67529C14.3227 5.71159 14.2699 5.74129 14.2052 5.74129C14.1407 5.74129 14.045 5.80069 13.9927 5.87329C13.9404 5.94589 13.8513 6.00529 13.7947 6.00529C13.7381 6.00529 13.649 6.06469 13.5967 6.13729C13.5444 6.20989 13.4612 6.26929 13.4119 6.26929C13.3627 6.26929 13.2083 6.38809 13.0687 6.53329C12.9291 6.67849 12.7801 6.79729 12.7374 6.79729C12.6947 6.79729 12.5765 6.88639 12.4747 6.99529C12.3729 7.10419 12.2564 7.19329 12.2155 7.19329C12.1398 7.19329 11.5507 7.75149 11.5507 7.82326C11.5507 7.9023 11.3595 8.05129 11.258 8.05129C11.1232 8.05129 8.18471 10.9881 8.18471 11.1229C8.18471 11.2196 7.9047 11.5493 7.82253 11.5493C7.75274 11.5493 7.32671 12.0055 7.32671 12.0803C7.32671 12.1207 7.20791 12.2677 7.06271 12.4073C6.91751 12.5469 6.79871 12.6959 6.79871 12.7386C6.79871 12.7813 6.70961 12.8995 6.60071 13.0013C6.49181 13.1031 6.40271 13.2272 6.40271 13.2772C6.40271 13.3272 6.34331 13.411 6.27071 13.4633C6.19811 13.5156 6.13871 13.5994 6.13871 13.6494C6.13871 13.6994 6.04961 13.8235 5.94071 13.9253C5.83181 14.0271 5.74271 14.1578 5.74271 14.2157C5.74271 14.2738 5.71301 14.3213 5.67671 14.3213C5.64041 14.3213 5.61071 14.3658 5.61071 14.4203C5.61071 14.4747 5.58101 14.5193 5.54471 14.5193C5.50841 14.5193 5.47871 14.5721 5.47871 14.6368C5.47871 14.7013 5.41931 14.797 5.34671 14.8493C5.27411 14.9016 5.21471 14.9907 5.21471 15.0473C5.21471 15.1039 5.15531 15.193 5.08271 15.2453C5.01011 15.2976 4.95071 15.3933 4.95071 15.4578C4.95071 15.5225 4.92101 15.5753 4.88471 15.5753C4.84841 15.5753 4.81871 15.622 4.81871 15.6791C4.81871 15.7975 4.6646 15.9713 4.55949 15.9713C4.52055 15.9713 4.48871 16.0307 4.48871 16.1033C4.48871 16.1759 4.45901 16.2353 4.42271 16.2353C4.38641 16.2353 4.35671 16.2947 4.35671 16.3673C4.35671 16.4399 4.32701 16.4993 4.29071 16.4993C4.25441 16.4993 4.22471 16.5562 4.22471 16.6258C4.22471 16.6953 4.19072 16.7636 4.1493 16.7775C4.09304 16.7961 4.09353 16.8397 4.15161 16.9479C4.21712 17.0705 4.21217 17.0933 4.12026 17.0933C4.04271 17.0933 4.02159 17.1326 4.04684 17.2293C4.06911 17.3142 4.04568 17.3794 3.9848 17.4028C3.93101 17.4235 3.90312 17.4822 3.92276 17.5333C3.94239 17.5845 3.91269 17.6439 3.85676 17.6653C3.80082 17.6868 3.77145 17.7467 3.79125 17.7985C3.81501 17.8602 3.75957 17.9163 3.63005 17.9614C3.50415 18.0053 3.43271 18.0757 3.43271 18.1557C3.43271 18.2249 3.40301 18.2813 3.36671 18.2813C3.33041 18.2813 3.30071 18.3407 3.30071 18.4133C3.30071 18.4859 3.27101 18.5453 3.23471 18.5453C3.19841 18.5453 3.16871 18.6047 3.16871 18.6773C3.16871 18.7499 3.13901 18.8093 3.10271 18.8093C3.06641 18.8093 3.03671 18.8687 3.03671 18.9413C3.03671 19.0139 3.00701 19.0733 2.97071 19.0733C2.93441 19.0733 2.90471 19.1327 2.90471 19.2053C2.90471 19.2779 2.87501 19.3373 2.83871 19.3373C2.80241 19.3373 2.77271 19.4264 2.77271 19.5353C2.77271 19.6442 2.74301 19.7333 2.70671 19.7333C2.67041 19.7333 2.64071 19.7927 2.64071 19.8653C2.64071 19.9379 2.61101 19.9973 2.57471 19.9973C2.53841 19.9973 2.50871 20.0567 2.50871 20.1293C2.50871 20.2019 2.47901 20.2613 2.44271 20.2613C2.40641 20.2613 2.37671 20.3504 2.37671 20.4593C2.37671 20.5682 2.34701 20.6573 2.31071 20.6573C2.27441 20.6573 2.24471 20.7167 2.24471 20.7893C2.24471 20.8619 2.21501 20.9213 2.17871 20.9213C2.14241 20.9213 2.11271 21.0252 2.11271 21.1523C2.11271 21.2793 2.08301 21.3833 2.04671 21.3833C2.01041 21.3833 1.98071 21.5021 1.98071 21.6473C1.98071 21.7925 1.95101 21.9113 1.91471 21.9113C1.87841 21.9113 1.84871 21.9707 1.84871 22.0433C1.84871 22.1159 1.81901 22.1753 1.78271 22.1753C1.74641 22.1753 1.71671 22.2644 1.71671 22.3733C1.71671 22.4822 1.68701 22.5713 1.65071 22.5713C1.61441 22.5713 1.58471 22.6307 1.58471 22.7033C1.58471 22.7759 1.55501 22.8353 1.51871 22.8353C1.48241 22.8353 1.45271 22.9541 1.45271 23.0993C1.45271 23.2445 1.42301 23.3633 1.38671 23.3633C1.35041 23.3633 1.32071 23.4524 1.32071 23.5613C1.32071 23.6933 1.28771 23.7593 1.22171 23.7593C1.15043 23.7593 1.12271 23.8322 1.12271 24.0193C1.12271 24.1624 1.09301 24.2979 1.05671 24.3203C1.02041 24.3427 0.990707 24.4782 0.990707 24.6213C0.990707 24.7643 0.961007 24.8813 0.924707 24.8813C0.830162 24.8813 0.843032 25.3672 0.940052 25.4642C1.00457 25.5288 0.990872 25.5537 0.874052 25.5842C0.724892 25.6231 0.652622 25.9373 0.792707 25.9373C0.915962 25.9373 0.859367 26.1475 0.726707 26.1822C0.633152 26.2066 0.594707 26.2722 0.594707 26.4071C0.594707 26.5117 0.565007 26.5973 0.528707 26.5973C0.492077 26.5973 0.462707 26.7734 0.462707 26.9933C0.462707 27.2132 0.433337 27.3893 0.396707 27.3893C0.359417 27.3893 0.330707 27.5762 0.330707 27.8183C0.330707 28.0604 0.301997 28.2473 0.264707 28.2473C0.166202 28.2473 0.180557 29.2587 0.280712 29.3589C0.360407 29.4386 0.301172 29.5173 0.111092 29.5845C0.0266117 29.6143 -0.0347683 34.4513 0.0492167 34.4513C0.149042 34.4513 0.218837 34.7876 0.136337 34.8701C0.0449267 34.9615 0.0414617 36.6953 0.132707 36.6953C0.171152 36.6953 0.198707 36.9152 0.198707 37.2233C0.198707 37.5314 0.226262 37.7513 0.264707 37.7513C0.301997 37.7513 0.330707 37.9382 0.330707 38.1803C0.330707 38.4224 0.359417 38.6093 0.396707 38.6093C0.433007 38.6093 0.462707 38.7281 0.462707 38.8733C0.462707 39.0591 0.490922 39.1373 0.557747 39.1373C0.690572 39.1373 0.756242 39.2662 0.668132 39.3543C0.576887 39.4455 0.570452 40.0613 0.660707 40.0613C0.697007 40.0613 0.726707 40.1801 0.726707 40.3253C0.726707 40.4705 0.756407 40.5893 0.792707 40.5893C0.829007 40.5893 0.858707 40.7081 0.858707 40.8533C0.858707 40.9985 0.888407 41.1173 0.924707 41.1173C0.961007 41.1173 0.990707 41.1916 0.990707 41.2823C0.990707 41.382 1.02833 41.4473 1.08575 41.4473C1.21857 41.4473 1.28424 41.5762 1.19613 41.6643C1.08162 41.7788 1.10208 42.2393 1.22171 42.2393C1.28771 42.2393 1.32071 42.3053 1.32071 42.4373C1.32071 42.5462 1.35041 42.6353 1.38671 42.6353C1.42301 42.6353 1.45271 42.7541 1.45271 42.8993C1.45271 43.0445 1.48241 43.1633 1.51871 43.1633C1.55501 43.1633 1.58471 43.2227 1.58471 43.2953C1.58471 43.3679 1.61441 43.4273 1.65071 43.4273C1.68701 43.4273 1.71671 43.5164 1.71671 43.6253C1.71671 43.7342 1.74641 43.8233 1.78271 43.8233C1.81901 43.8233 1.84871 43.9124 1.84871 44.0213C1.84871 44.1302 1.87841 44.2193 1.91471 44.2193C1.95101 44.2193 1.98071 44.3232 1.98071 44.4503C1.98071 44.5773 2.01041 44.6813 2.04671 44.6813C2.08301 44.6813 2.11271 44.7704 2.11271 44.8793C2.11271 44.9882 2.14241 45.0773 2.17871 45.0773C2.21501 45.0773 2.24471 45.124 2.24471 45.1811C2.24471 45.3034 2.39997 45.4733 2.51168 45.4733C2.55969 45.4733 2.57784 45.5372 2.55854 45.6383C2.53808 45.7457 2.55689 45.8033 2.61266 45.8033C2.67387 45.8033 2.68757 45.8696 2.661 46.0343C2.63658 46.1843 2.64962 46.2653 2.69813 46.2653C2.73905 46.2653 2.77271 46.3544 2.77271 46.4633C2.77271 46.5722 2.80241 46.6613 2.83871 46.6613C2.87501 46.6613 2.90471 46.7207 2.90471 46.7933C2.90471 46.8659 2.93441 46.9253 2.97071 46.9253C3.00701 46.9253 3.03671 46.9781 3.03671 47.0428C3.03671 47.1073 3.09611 47.203 3.16871 47.2553C3.24131 47.3076 3.30071 47.3885 3.30071 47.4348C3.30071 47.4813 3.34559 47.5193 3.40053 47.5193C3.4799 47.5193 3.49161 47.5731 3.45812 47.7833C3.42974 47.9602 3.44046 48.0473 3.49029 48.0473C3.53121 48.0473 3.56471 48.1067 3.56471 48.1793C3.56471 48.2519 3.59441 48.3113 3.63071 48.3113C3.66701 48.3113 3.69671 48.3707 3.69671 48.4433C3.69671 48.5159 3.72641 48.5753 3.76271 48.5753C3.79901 48.5753 3.82871 48.6347 3.82871 48.7073C3.82871 48.7799 3.85841 48.8393 3.89471 48.8393C3.93101 48.8393 3.96071 48.886 3.96071 48.9431C3.96071 49.0616 4.11482 49.2353 4.21992 49.2353C4.25886 49.2353 4.29071 49.2668 4.29071 49.3053C4.29071 49.3437 4.31859 49.3579 4.35275 49.3368C4.38971 49.314 4.39961 49.3929 4.37717 49.5308C4.35258 49.682 4.36562 49.7633 4.41413 49.7633C4.45505 49.7633 4.48871 49.8227 4.48871 49.8953C4.48871 49.9679 4.52055 50.0273 4.55949 50.0273C4.6646 50.0273 4.81871 50.201 4.81871 50.3195C4.81871 50.3766 4.84841 50.4233 4.88471 50.4233C4.92101 50.4233 4.95071 50.4718 4.95071 50.531C4.95071 50.6578 5.19375 50.8853 5.32905 50.8853C5.39934 50.8853 5.41221 50.9355 5.37971 51.0833C5.35232 51.2079 5.36271 51.2813 5.40743 51.2813C5.4467 51.2813 5.47871 51.3341 5.47871 51.3988C5.47871 51.4633 5.53811 51.559 5.61071 51.6113C5.68331 51.6636 5.74271 51.7474 5.74271 51.7974C5.74271 51.8474 5.83181 51.9715 5.94071 52.0733C6.04961 52.1751 6.13871 52.2949 6.13871 52.3396C6.13871 52.4457 6.39578 52.6673 6.51903 52.6673C6.58619 52.6673 6.60368 52.7128 6.57695 52.8193C6.55038 52.925 6.57827 52.9994 6.66869 53.0648C6.7403 53.1163 6.79871 53.1988 6.79871 53.2481C6.79871 53.3664 7.31037 53.8553 7.43429 53.8553C7.59335 53.8553 7.85603 54.203 7.77287 54.3033C7.7199 54.3673 7.76214 54.443 7.94348 54.6092C8.07614 54.7306 8.18471 54.8643 8.18471 54.9059C8.18471 55.0367 8.64737 55.4532 8.74917 55.4141C8.81237 55.3898 8.84471 55.4208 8.84471 55.5056C8.84471 55.6427 11.1522 58.0133 11.2857 58.0133C11.3273 58.0133 11.506 58.1618 11.6827 58.3433C11.8594 58.5248 12.0381 58.6733 12.0795 58.6733C12.1211 58.6733 12.2691 58.7921 12.4087 58.9373C12.5483 59.0825 12.7027 59.2013 12.7519 59.2013C12.8012 59.2013 12.8837 59.2597 12.9352 59.3313C13.0006 59.4217 13.075 59.4496 13.1807 59.4231C13.2888 59.396 13.3327 59.4137 13.3327 59.4841C13.3327 59.6118 13.6878 59.9933 13.8066 59.9933C13.8566 59.9933 13.9404 60.0527 13.9927 60.1253C14.045 60.1979 14.1407 60.2573 14.2052 60.2573C14.2699 60.2573 14.3227 60.2903 14.3227 60.3304C14.3227 60.3753 14.3857 60.3878 14.4851 60.3629C14.6101 60.3316 14.6656 60.3561 14.7265 60.4698C14.8299 60.663 14.9548 60.7853 15.0487 60.7853C15.1439 60.7853 15.3127 60.9511 15.3127 61.0445C15.3127 61.0835 15.3655 61.1153 15.4302 61.1153C15.4947 61.1153 15.5904 61.1747 15.6427 61.2473C15.695 61.3199 15.7907 61.3793 15.8552 61.3793C15.9199 61.3793 15.9727 61.409 15.9727 61.4453C15.9727 61.4816 16.0321 61.5113 16.1047 61.5113C16.1773 61.5113 16.2367 61.541 16.2367 61.5773C16.2367 61.6136 16.2895 61.6433 16.3542 61.6433C16.4187 61.6433 16.5144 61.7027 16.5667 61.7753C16.619 61.8479 16.7147 61.9073 16.7792 61.9073C16.8439 61.9073 16.8967 61.937 16.8967 61.9733C16.8967 62.0096 16.9561 62.0393 17.0287 62.0393C17.1013 62.0393 17.1607 62.069 17.1607 62.1053C17.1607 62.1416 17.2135 62.1713 17.2782 62.1713C17.3427 62.1713 17.4384 62.2307 17.4907 62.3033C17.5526 62.3891 17.6615 62.4353 17.8022 62.4353C17.9214 62.4353 18.0187 62.465 18.0187 62.5013C18.0187 62.5376 18.0715 62.5673 18.1362 62.5673C18.2007 62.5673 18.2964 62.6267 18.3487 62.6993C18.401 62.7719 18.4967 62.8313 18.5612 62.8313C18.6259 62.8313 18.6787 62.861 18.6787 62.8973C18.6787 62.9336 18.7678 62.9633 18.8767 62.9633C18.9856 62.9633 19.0747 62.993 19.0747 63.0293C19.0747 63.0656 19.1341 63.0953 19.2067 63.0953C19.2793 63.0953 19.3387 63.1263 19.3387 63.1641C19.3387 63.2032 19.446 63.2247 19.5862 63.2136C19.7641 63.1997 19.8286 63.2189 19.8156 63.2818C19.8033 63.3403 19.839 63.356 19.9235 63.3293C20.0195 63.2987 20.0594 63.3289 20.0913 63.4563C20.1244 63.5883 20.1746 63.6233 20.33 63.6233C20.4381 63.6233 20.5267 63.653 20.5267 63.6893C20.5267 63.7256 20.6158 63.7553 20.7247 63.7553C20.8336 63.7553 20.9227 63.785 20.9227 63.8213C20.9227 63.8576 20.997 63.8873 21.0877 63.8873C21.1785 63.8873 21.2527 63.917 21.2527 63.9533C21.2527 63.9896 21.3864 64.0193 21.5497 64.0193C21.7131 64.0193 21.8467 64.049 21.8467 64.0853C21.8467 64.1216 21.8913 64.1513 21.9457 64.1513C22.0002 64.1513 22.0447 64.181 22.0447 64.2173C22.0447 64.2536 22.1338 64.2833 22.2427 64.2833C22.3747 64.2833 22.4407 64.3163 22.4407 64.3823C22.4407 64.4372 22.4994 64.4813 22.5727 64.4813C22.6453 64.4813 22.7047 64.511 22.7047 64.5473C22.7047 64.5836 22.7938 64.6133 22.9027 64.6133C23.0116 64.6133 23.1007 64.643 23.1007 64.6793C23.1007 64.7674 23.5368 64.7638 23.7039 64.6744C23.8147 64.6151 23.8424 64.626 23.8722 64.7404C23.8925 64.8177 23.9622 64.8773 24.0325 64.8773C24.1008 64.8773 24.1567 64.907 24.1567 64.9433C24.1567 64.9796 24.2607 65.0093 24.3877 65.0093C24.5148 65.0093 24.6187 65.039 24.6187 65.0753C24.6187 65.1116 24.7375 65.1413 24.8827 65.1413C25.0358 65.1413 25.1467 65.1728 25.1467 65.2164C25.1467 65.2682 25.2782 65.2809 25.5717 65.2573C25.8961 65.2312 26.0049 65.2448 26.0316 65.3142C26.0509 65.3644 26.127 65.4053 26.2006 65.4053C26.2743 65.4053 26.3347 65.435 26.3347 65.4713C26.3347 65.5076 26.4832 65.5373 26.6647 65.5373C26.8462 65.5373 26.9947 65.567 26.9947 65.6033C26.9947 65.6406 27.1816 65.6693 27.4237 65.6693C27.6658 65.6693 27.8527 65.698 27.8527 65.7353C27.8527 65.7738 28.0708 65.8013 28.3753 65.8013C28.7203 65.8013 28.9066 65.828 28.9239 65.8798C28.975 66.0333 35.6912 66.0455 35.8042 65.8922C35.8776 65.7929 35.9125 65.7846 35.9794 65.8508C36.0821 65.952 37.2247 65.9671 37.2247 65.8673C37.2247 65.8285 37.4557 65.8013 37.7857 65.8013C38.1157 65.8013 38.3467 65.7741 38.3467 65.7353C38.3467 65.699 38.4952 65.6693 38.6767 65.6693C38.8582 65.6693 39.0067 65.6396 39.0067 65.6033C39.0067 65.567 39.1404 65.5373 39.3037 65.5373C39.5128 65.5373 39.6007 65.5102 39.6007 65.4459C39.6007 65.374 39.6916 65.3617 40.0297 65.389C40.3264 65.4127 40.4587 65.4002 40.4587 65.3484C40.4587 65.3048 40.5696 65.2733 40.7227 65.2733C40.8679 65.2733 40.9867 65.2436 40.9867 65.2073C40.9867 65.171 41.1204 65.1413 41.2837 65.1413C41.4471 65.1413 41.5807 65.1116 41.5807 65.0753C41.5807 65.039 41.6995 65.0093 41.8447 65.0093C41.9899 65.0093 42.1087 64.9796 42.1087 64.9433C42.1087 64.907 42.1978 64.8773 42.3067 64.8773C42.4156 64.8773 42.5047 64.8476 42.5047 64.8113C42.5047 64.775 42.5938 64.7453 42.7027 64.7453C42.8116 64.7453 42.9007 64.7156 42.9007 64.6793C42.9007 64.643 42.9898 64.6133 43.0987 64.6133C43.2076 64.6133 43.2967 64.5836 43.2967 64.5473C43.2967 64.511 43.4155 64.4813 43.5607 64.4813C43.7514 64.4813 43.8247 64.4538 43.8247 64.3823C43.8247 64.3163 43.8907 64.2833 44.0227 64.2833C44.1316 64.2833 44.2207 64.2536 44.2207 64.2173C44.2207 64.181 44.2801 64.1513 44.3527 64.1513C44.4253 64.1513 44.4847 64.1216 44.4847 64.0853C44.4847 64.049 44.5887 64.0193 44.7157 64.0193C44.8428 64.0193 44.9467 63.9896 44.9467 63.9533C44.9467 63.917 45.0061 63.8873 45.0787 63.8873C45.1513 63.8873 45.2107 63.8576 45.2107 63.8213C45.2107 63.785 45.2998 63.7553 45.4087 63.7553C45.5176 63.7553 45.6067 63.7256 45.6067 63.6893C45.6067 63.653 45.6958 63.6233 45.8047 63.6233C45.9136 63.6233 46.0027 63.5936 46.0027 63.5573C46.0027 63.521 46.0621 63.4913 46.1347 63.4913C46.2073 63.4913 46.2667 63.4616 46.2667 63.4253C46.2667 63.389 46.3261 63.3593 46.3987 63.3593C46.4713 63.3593 46.5307 63.3296 46.5307 63.2933C46.5307 63.257 46.5901 63.2273 46.6627 63.2273C46.7353 63.2273 46.7947 63.1976 46.7947 63.1613C46.7947 63.125 46.8541 63.0953 46.9267 63.0953C46.9993 63.0953 47.0587 63.0656 47.0587 63.0293C47.0587 62.993 47.1033 62.9633 47.1577 62.9633C47.2122 62.9633 47.2567 62.9153 47.2567 62.8565C47.2567 62.7825 47.297 62.7604 47.3887 62.7844C47.478 62.8077 47.5207 62.7864 47.5207 62.7184C47.5207 62.6519 47.5634 62.629 47.6469 62.651C47.735 62.6739 47.784 62.643 47.8086 62.5488C47.8398 62.4294 47.8573 62.4246 47.9571 62.5069C48.0446 62.5792 48.0764 62.5817 48.0979 62.5178C48.1132 62.4724 48.2272 62.4353 48.3511 62.4353C48.4752 62.4353 48.5767 62.4056 48.5767 62.3693C48.5767 62.333 48.6295 62.3033 48.6942 62.3033C48.7587 62.3033 48.8544 62.2439 48.9067 62.1713C48.959 62.0987 49.0547 62.0393 49.1192 62.0393C49.1839 62.0393 49.2367 62.0096 49.2367 61.9733C49.2367 61.937 49.2961 61.9073 49.3687 61.9073C49.4413 61.9073 49.5007 61.8776 49.5007 61.8413C49.5007 61.805 49.5535 61.7753 49.6182 61.7753C49.6827 61.7753 49.7784 61.7159 49.8307 61.6433C49.883 61.5707 49.9787 61.5113 50.0432 61.5113C50.1079 61.5113 50.1607 61.4816 50.1607 61.4453C50.1607 61.409 50.2135 61.3793 50.2782 61.3793C50.3427 61.3793 50.4384 61.3199 50.4907 61.2473C50.543 61.1747 50.6387 61.1153 50.7032 61.1153C50.7679 61.1153 50.8207 61.0835 50.8207 61.0445C50.8207 60.9282 50.9999 60.7853 51.1459 60.7853C51.2212 60.7853 51.2827 60.7556 51.2827 60.7193C51.2827 60.683 51.3355 60.6533 51.4002 60.6533C51.4647 60.6533 51.5604 60.5939 51.6127 60.5213C51.665 60.4487 51.7488 60.3893 51.7988 60.3893C51.8488 60.3893 51.9729 60.3002 52.0747 60.1913C52.1765 60.0824 52.3006 59.9933 52.3506 59.9933C52.4006 59.9933 52.4844 59.9339 52.5367 59.8613C52.589 59.7887 52.6722 59.7293 52.7215 59.7293C52.7707 59.7293 52.9251 59.6105 53.0647 59.4653C53.2043 59.3201 53.3528 59.2013 53.3947 59.2013C53.5003 59.2013 53.9887 58.6834 53.9887 58.5712C53.9887 58.4527 54.2144 58.3327 54.3439 58.3824C54.4679 58.4299 54.985 57.9085 54.9373 57.7841C54.8969 57.679 55.2156 57.4193 55.3851 57.4193C55.458 57.4193 55.9209 57.007 56.4984 56.4277C57.4146 55.5084 57.5217 55.3778 57.4913 55.2152C57.474 55.122 57.8302 54.7793 57.9446 54.7793C58.0665 54.7791 58.4107 54.4973 58.4107 54.3977C58.4107 54.3595 58.4478 54.3158 58.4932 54.3005C58.558 54.2787 58.5585 54.252 58.4955 54.1757C58.4155 54.0785 58.5821 53.8553 58.7344 53.8553C58.8239 53.8553 59.2027 53.4826 59.2027 53.3946C59.2027 53.3519 59.3215 53.2029 59.4667 53.0633C59.6119 52.9237 59.7307 52.7747 59.7307 52.732C59.7307 52.6892 59.8198 52.5711 59.9287 52.4693C60.0376 52.3675 60.1267 52.2434 60.1267 52.1934C60.1267 52.1434 60.1861 52.0596 60.2587 52.0073C60.3313 51.955 60.3907 51.8659 60.3907 51.8093C60.3907 51.7527 60.4501 51.6636 60.5227 51.6113C60.5953 51.559 60.6547 51.4633 60.6547 51.3988C60.6547 51.3341 60.6844 51.2813 60.7207 51.2813C60.757 51.2813 60.7867 51.2368 60.7867 51.1823C60.7867 51.1279 60.8164 51.0833 60.8527 51.0833C60.889 51.0833 60.9187 51.0239 60.9187 50.9513C60.9187 50.8787 60.9505 50.8193 60.9895 50.8193C61.0888 50.8193 61.2487 50.648 61.2487 50.5416C61.2487 50.4926 61.3081 50.4096 61.3807 50.3573C61.4533 50.305 61.5127 50.2093 61.5127 50.1448C61.5127 50.0801 61.5424 50.0273 61.5787 50.0273C61.615 50.0273 61.6447 49.9679 61.6447 49.8953C61.6447 49.8227 61.6744 49.7633 61.7107 49.7633C61.747 49.7633 61.7767 49.7105 61.7767 49.6458C61.7767 49.5813 61.8361 49.4856 61.9087 49.4333C61.9813 49.381 62.0407 49.2853 62.0407 49.2208C62.0407 49.1561 62.0704 49.1033 62.1067 49.1033C62.143 49.1033 62.1727 49.0439 62.1727 48.9713C62.1727 48.8987 62.2024 48.8393 62.2387 48.8393C62.275 48.8393 62.3047 48.7799 62.3047 48.7073C62.3047 48.6347 62.3344 48.5753 62.3707 48.5753C62.407 48.5753 62.4367 48.5159 62.4367 48.4433C62.4367 48.3707 62.4664 48.3113 62.5027 48.3113C62.539 48.3113 62.5687 48.2073 62.5687 48.0803C62.5687 47.9533 62.6019 47.8493 62.6425 47.8493C62.6835 47.8493 62.7009 47.7911 62.6816 47.7173C62.6626 47.6447 62.6761 47.5853 62.7116 47.5853C62.8629 47.5853 62.9744 47.3842 62.9315 47.1888C62.8985 47.0387 62.9117 46.9913 62.9863 46.9913C63.0495 46.9913 63.0729 46.9476 63.052 46.8679C63.0282 46.777 63.0647 46.7331 63.1903 46.7016C63.3018 46.6735 63.3607 46.6136 63.3607 46.528C63.3607 46.4562 63.3904 46.3973 63.4267 46.3973C63.463 46.3973 63.4927 46.3082 63.4927 46.1993C63.4927 46.0904 63.5224 46.0013 63.5587 46.0013C63.595 46.0013 63.6247 45.9419 63.6247 45.8693C63.6247 45.7967 63.6544 45.7373 63.6907 45.7373C63.727 45.7373 63.7567 45.6482 63.7567 45.5393C63.7567 45.4304 63.7864 45.3413 63.8227 45.3413C63.859 45.3413 63.8887 45.2819 63.8887 45.2093C63.8887 45.1367 63.9184 45.0773 63.9547 45.0773C63.991 45.0773 64.0207 44.9882 64.0207 44.8793C64.0207 44.7704 64.0504 44.6813 64.0867 44.6813C64.123 44.6813 64.1527 44.607 64.1527 44.5163C64.1527 44.4255 64.1824 44.3513 64.2187 44.3513C64.255 44.3513 64.2847 44.2622 64.2847 44.1533C64.2847 44.0142 64.3167 43.9553 64.3924 43.9553C64.4799 43.9553 64.4934 43.906 64.4647 43.6913C64.438 43.4918 64.4518 43.4273 64.522 43.4273C64.6324 43.4273 64.6454 43.2204 64.5416 43.1166C64.4882 43.0631 64.5079 43.0224 64.6152 42.965C64.7373 42.8996 64.7556 42.848 64.7244 42.6561C64.6947 42.4723 64.7064 42.433 64.7828 42.4624C64.8467 42.4868 64.8787 42.4556 64.8787 42.3692C64.8787 42.2977 64.9084 42.2393 64.9447 42.2393C64.981 42.2393 65.0107 42.1205 65.0107 41.9753C65.0107 41.8301 65.0404 41.7113 65.0767 41.7113C65.113 41.7113 65.1427 41.6222 65.1427 41.5133C65.1427 41.4044 65.1724 41.3153 65.2087 41.3153C65.245 41.3153 65.2747 41.152 65.2747 40.9523C65.2747 40.7527 65.3044 40.5893 65.3407 40.5893C65.377 40.5893 65.4067 40.4705 65.4067 40.3253C65.4067 40.1722 65.4382 40.0613 65.4818 40.0613C65.5336 40.0613 65.5461 39.929 65.5224 39.6323C65.4951 39.2942 65.5074 39.2033 65.5793 39.2033C65.6397 39.2033 65.6707 39.1251 65.6707 38.9723C65.6707 38.8452 65.7004 38.7413 65.7367 38.7413C65.7748 38.7413 65.8027 38.5341 65.8027 38.2517C65.8027 37.9189 65.8291 37.7534 65.8852 37.7348C66.0205 37.6898 66.0042 28.5951 65.8687 28.5113C65.7895 28.4623 65.7743 28.3305 65.7928 27.8536C65.8085 27.4499 65.7925 27.2573 65.7433 27.2573C65.7002 27.2573 65.6707 27.1233 65.6707 26.9273C65.6707 26.7458 65.641 26.5973 65.6047 26.5973C65.5684 26.5973 65.5387 26.4933 65.5387 26.3663C65.5387 26.2102 65.5082 26.1353 65.4445 26.1353C65.3697 26.1353 65.358 26.0602 65.3877 25.7723C65.4135 25.5227 65.4016 25.4093 65.3499 25.4093C65.3036 25.4093 65.2747 25.2822 65.2747 25.0793C65.2747 24.8978 65.245 24.7493 65.2087 24.7493C65.1724 24.7493 65.1427 24.6453 65.1427 24.5183C65.1427 24.3912 65.113 24.2873 65.0767 24.2873C65.0404 24.2873 65.0107 24.2279 65.0107 24.1553C65.0107 24.0807 64.9666 24.0233 64.9094 24.0233C64.8261 24.0233 64.8158 23.9649 64.852 23.6933C64.882 23.4663 64.8724 23.3633 64.8213 23.3633C64.7782 23.3633 64.7467 23.2514 64.7467 23.0993C64.7467 22.9541 64.717 22.8353 64.6807 22.8353C64.6444 22.8353 64.6147 22.7462 64.6147 22.6373C64.6147 22.5284 64.585 22.4393 64.5487 22.4393C64.5124 22.4393 64.4827 22.3502 64.4827 22.2413C64.4827 22.1093 64.4497 22.0433 64.3837 22.0433C64.3288 22.0433 64.2847 21.9846 64.2847 21.9113C64.2847 21.8387 64.255 21.7793 64.2187 21.7793C64.1824 21.7793 64.1527 21.6902 64.1527 21.5813C64.1527 21.4724 64.123 21.3833 64.0867 21.3833C64.0504 21.3833 64.0207 21.2793 64.0207 21.1523C64.0207 21.0252 63.991 20.9213 63.9547 20.9213C63.9184 20.9213 63.8887 20.8619 63.8887 20.7893C63.8887 20.7167 63.859 20.6573 63.8227 20.6573C63.7864 20.6573 63.7567 20.5682 63.7567 20.4593C63.7567 20.3504 63.727 20.2613 63.6907 20.2613C63.6544 20.2613 63.6247 20.2019 63.6247 20.1293C63.6247 20.0567 63.595 19.9973 63.5587 19.9973C63.5224 19.9973 63.4927 19.9379 63.4927 19.8653C63.4927 19.7927 63.463 19.7333 63.4267 19.7333C63.3904 19.7333 63.3607 19.6442 63.3607 19.5353C63.3607 19.4264 63.331 19.3373 63.2947 19.3373C63.2584 19.3373 63.2287 19.2779 63.2287 19.2053C63.2287 19.1327 63.199 19.0733 63.1627 19.0733C63.1264 19.0733 63.0967 19.0139 63.0967 18.9413C63.0967 18.8687 63.067 18.8093 63.0307 18.8093C62.9944 18.8093 62.9647 18.7499 62.9647 18.6773C62.9647 18.6047 62.935 18.5453 62.8987 18.5453C62.8624 18.5453 62.8327 18.4986 62.8327 18.4415C62.8327 18.3262 62.6796 18.1493 62.5796 18.1493C62.5441 18.1493 62.5306 18.0899 62.5496 18.0173C62.5689 17.9435 62.5515 17.8853 62.5105 17.8853C62.4699 17.8853 62.4367 17.7813 62.4367 17.6543C62.4367 17.5272 62.407 17.4233 62.3707 17.4233C62.3344 17.4233 62.3047 17.3639 62.3047 17.2913C62.3047 17.2187 62.275 17.1593 62.2387 17.1593C62.2024 17.1593 62.1727 17.0999 62.1727 17.0273C62.1727 16.9547 62.143 16.8953 62.1067 16.8953C62.0704 16.8953 62.0407 16.8468 62.0407 16.7875C62.0407 16.6494 61.7929 16.4333 61.6346 16.4333C61.4979 16.4333 61.4721 16.3341 61.5899 16.2614C61.6406 16.23 61.6138 16.1937 61.5129 16.1564C61.3949 16.1129 61.3766 16.081 61.4355 16.0221C61.5515 15.9061 61.5287 15.7479 61.3807 15.6413C61.3081 15.589 61.2487 15.506 61.2487 15.457C61.2487 15.3506 61.0888 15.1793 60.9895 15.1793C60.9505 15.1793 60.9187 15.1326 60.9187 15.0755C60.9187 14.9552 60.8121 14.8369 60.6032 14.725C60.4895 14.6642 60.465 14.6087 60.4963 14.4837C60.5212 14.3843 60.5087 14.3213 60.4638 14.3213C60.4237 14.3213 60.3907 14.2685 60.3907 14.2038C60.3907 14.1393 60.3313 14.0436 60.2587 13.9913C60.1861 13.939 60.1267 13.8552 60.1267 13.8052C60.1267 13.7552 60.0376 13.6311 59.9287 13.5293C59.8198 13.4275 59.7307 13.2933 59.7307 13.2311C59.7307 13.1505 59.6928 13.1278 59.5987 13.1524C59.4938 13.1798 59.4667 13.1544 59.4667 13.0282C59.4667 12.9407 59.437 12.8693 59.4007 12.8693C59.3644 12.8693 59.3347 12.8224 59.3347 12.7652C59.3347 12.7078 59.2159 12.5469 59.0707 12.4073C58.9255 12.2677 58.8067 12.1197 58.8067 12.0781C58.8067 12.0367 58.6582 11.858 58.4767 11.6813C58.2952 11.5046 58.1467 11.3254 58.1467 11.2831C58.1467 11.1874 55 8.05129 54.904 8.05129C54.8653 8.05129 54.7358 7.94124 54.616 7.8066C54.4347 7.60282 54.3817 7.5756 54.2992 7.64407C54.2016 7.72509 53.9227 7.48072 53.9227 7.31424C53.9227 7.22844 53.4789 6.79729 53.3904 6.79729C53.3493 6.79729 53.2325 6.70819 53.1307 6.59929C53.0289 6.49039 52.9101 6.40129 52.8667 6.40129C52.8233 6.40129 52.7045 6.31219 52.6027 6.20329C52.5009 6.09439 52.3821 6.00529 52.3387 6.00529C52.2953 6.00529 52.1765 5.91619 52.0747 5.80729C51.9729 5.69839 51.8531 5.60929 51.8084 5.60929C51.7638 5.60929 51.6726 5.54643 51.6059 5.46954C51.5078 5.35635 51.4406 5.3382 51.2517 5.37351C51.0756 5.40651 51.0187 5.39479 51.0187 5.32533C51.0187 5.19927 50.793 4.94929 50.679 4.94929C50.6278 4.94929 50.543 4.88989 50.4907 4.81729C50.4384 4.74469 50.3427 4.68529 50.2782 4.68529C50.2135 4.68529 50.1607 4.64074 50.1607 4.58629C50.1607 4.53184 50.1148 4.48729 50.0589 4.48729C50.003 4.48729 49.8934 4.42789 49.8155 4.35529C49.6606 4.21108 49.5312 4.1865 49.4677 4.28929C49.3935 4.40958 49.3197 4.35793 49.2796 4.15729C49.2532 4.02513 49.2004 3.95929 49.1209 3.95929C49.0554 3.95929 48.959 3.89989 48.9067 3.82729C48.8544 3.75469 48.7587 3.69529 48.6942 3.69529C48.6295 3.69529 48.5767 3.66559 48.5767 3.62929C48.5767 3.59299 48.5173 3.56329 48.4447 3.56329C48.3721 3.56329 48.3127 3.53359 48.3127 3.49729C48.3127 3.46099 48.2533 3.43129 48.1807 3.43129C48.1081 3.43129 48.0487 3.3978 48.0487 3.35688C48.0487 3.30738 47.9627 3.29616 47.7918 3.32355C47.5575 3.361 47.5313 3.34995 47.4935 3.19996C47.4669 3.0937 47.4059 3.03529 47.3214 3.03529C47.2496 3.03529 47.1907 3.00559 47.1907 2.96929C47.1907 2.93299 47.1016 2.90329 46.9927 2.90329C46.8838 2.90329 46.7947 2.87359 46.7947 2.83729C46.7947 2.80099 46.7353 2.77129 46.6627 2.77129C46.5901 2.77129 46.5307 2.74159 46.5307 2.70529C46.5307 2.66899 46.4713 2.63929 46.3987 2.63929C46.3261 2.63929 46.2667 2.60959 46.2667 2.57329C46.2667 2.53699 46.1776 2.50729 46.0687 2.50729C45.9598 2.50729 45.8707 2.47759 45.8707 2.44129C45.8707 2.40499 45.8113 2.37529 45.7387 2.37529C45.6661 2.37529 45.6067 2.34559 45.6067 2.30929C45.6067 2.27299 45.5473 2.24329 45.4747 2.24329C45.4021 2.24329 45.3427 2.21359 45.3427 2.17729C45.3427 2.14099 45.2536 2.11129 45.1447 2.11129C45.0358 2.11129 44.9467 2.08159 44.9467 2.04529C44.9467 2.00899 44.8873 1.97929 44.8147 1.97929C44.7421 1.97929 44.6827 1.94959 44.6827 1.91329C44.6827 1.87699 44.5491 1.84729 44.3857 1.84729C44.2224 1.84729 44.0887 1.81759 44.0887 1.78129C44.0887 1.74499 43.9996 1.71529 43.8907 1.71529C43.7818 1.71529 43.6927 1.68559 43.6927 1.64929C43.6927 1.61299 43.6333 1.58329 43.5607 1.58329C43.4881 1.58329 43.4287 1.55359 43.4287 1.51729C43.4287 1.48099 43.3396 1.45129 43.2307 1.45129C43.1218 1.45129 43.0327 1.42159 43.0327 1.38529C43.0327 1.34899 42.9139 1.31929 42.7687 1.31929C42.578 1.31929 42.5047 1.29174 42.5047 1.22029C42.5047 1.14885 42.4314 1.12129 42.2407 1.12129C42.0955 1.12129 41.9767 1.09159 41.9767 1.05529C41.9767 1.01899 41.8894 0.989292 41.7827 0.989292C41.6759 0.989292 41.5701 0.959592 41.5477 0.923292C41.5253 0.886992 41.3898 0.857292 41.2467 0.857292C41.1037 0.857292 40.9867 0.827592 40.9867 0.791292C40.9867 0.754992 40.8679 0.725292 40.7227 0.725292C40.5775 0.725292 40.4587 0.695592 40.4587 0.659292C40.4587 0.564416 39.8406 0.577781 39.7438 0.674636C39.6792 0.739151 39.6543 0.725457 39.6238 0.608637C39.5936 0.492806 39.5375 0.461291 39.3619 0.461291C39.2392 0.461291 39.1387 0.431592 39.1387 0.395292C39.1387 0.358661 38.9627 0.329291 38.7427 0.329291C38.5228 0.329291 38.3467 0.299921 38.3467 0.263291C38.3467 0.164786 37.2696 0.178811 37.1698 0.278636C37.1052 0.343151 37.081 0.331436 37.0524 0.222371C36.9996 0.0207414 32.5813 -0.0828786 29.6251 0.0482964ZM40.8217 18.3473C40.8456 18.3861 41.2294 18.4133 41.7497 18.4133C42.297 18.4133 42.6367 18.4385 42.6367 18.4793C42.6367 18.5159 42.8128 18.5453 43.0327 18.5453C43.2526 18.5453 43.4287 18.5747 43.4287 18.6113C43.4287 18.6476 43.5475 18.6773 43.6927 18.6773C43.8379 18.6773 43.9567 18.707 43.9567 18.7433C43.9567 18.7796 44.0904 18.8093 44.2537 18.8093C44.4171 18.8093 44.5507 18.839 44.5507 18.8753C44.5507 18.9116 44.6101 18.9413 44.6827 18.9413C44.7553 18.9413 44.8147 18.971 44.8147 19.0073C44.8147 19.0436 44.902 19.0733 45.0087 19.0733C45.1155 19.0733 45.2213 19.0436 45.2437 19.0073C45.3185 18.8864 45.3978 18.9391 45.4417 19.1393C45.4716 19.2754 45.5247 19.3373 45.612 19.3373C45.6816 19.3373 45.7387 19.367 45.7387 19.4033C45.7387 19.4396 45.7981 19.4693 45.8707 19.4693C45.9433 19.4693 46.0027 19.499 46.0027 19.5353C46.0027 19.5716 46.0555 19.6013 46.1202 19.6013C46.1847 19.6013 46.2804 19.6607 46.3327 19.7333C46.385 19.8059 46.4807 19.8653 46.5452 19.8653C46.6099 19.8653 46.6627 19.8962 46.6627 19.9338C46.6627 19.9714 46.7434 19.9937 46.8419 19.9833C46.9737 19.9692 47.0277 19.9973 47.0465 20.0895C47.0737 20.2222 47.3453 20.5253 47.4372 20.5253C47.4671 20.5253 47.5344 20.5847 47.5867 20.6573C47.639 20.7299 47.7347 20.7893 47.7992 20.7893C47.8639 20.7893 47.9167 20.819 47.9167 20.8553C47.9167 20.8916 48.0355 20.9213 48.1807 20.9213C48.3259 20.9213 48.4447 20.8916 48.4447 20.8553C48.4447 20.819 48.501 20.7893 48.5696 20.7893C48.6384 20.7893 48.7127 20.7424 48.7346 20.685C48.7645 20.6073 48.8249 20.5918 48.9727 20.6243C49.1306 20.6589 49.1707 20.6456 49.1707 20.5583C49.1707 20.471 49.2108 20.4576 49.3687 20.4923C49.5227 20.5261 49.5667 20.5129 49.5667 20.4327C49.5667 20.3487 49.6212 20.3374 49.8637 20.3705C50.0653 20.3981 50.1607 20.3872 50.1607 20.3362C50.1607 20.295 50.2498 20.2613 50.3587 20.2613C50.4676 20.2613 50.5567 20.2316 50.5567 20.1953C50.5567 20.159 50.6161 20.1293 50.6887 20.1293C50.7613 20.1293 50.8207 20.0996 50.8207 20.0633C50.8207 20.027 50.8801 19.9973 50.9527 19.9973C51.0253 19.9973 51.0847 19.9676 51.0847 19.9313C51.0847 19.895 51.1887 19.8653 51.3157 19.8653C51.4428 19.8653 51.5467 19.8356 51.5467 19.7993C51.5467 19.763 51.6061 19.7333 51.6787 19.7333C51.7513 19.7333 51.8107 19.7036 51.8107 19.6673C51.8107 19.631 51.8701 19.6013 51.9427 19.6013C52.0153 19.6013 52.0747 19.5716 52.0747 19.5353C52.0747 19.499 52.1275 19.4693 52.1922 19.4693C52.2567 19.4693 52.3524 19.4099 52.4047 19.3373C52.457 19.2647 52.5527 19.2053 52.6172 19.2053C52.6819 19.2053 52.7347 19.1756 52.7347 19.1393C52.7347 19.103 52.8702 19.0733 53.0357 19.0733C53.2012 19.0733 53.3214 19.0976 53.3031 19.1273C53.2848 19.1569 53.3275 19.2229 53.3982 19.2738C53.5312 19.3696 53.5807 19.7333 53.4607 19.7333C53.4244 19.7333 53.3947 19.8224 53.3947 19.9313C53.3947 20.0402 53.365 20.1293 53.3287 20.1293C53.2924 20.1293 53.2627 20.1887 53.2627 20.2613C53.2627 20.3339 53.233 20.3933 53.1967 20.3933C53.1604 20.3933 53.1307 20.4824 53.1307 20.5913C53.1307 20.7002 53.101 20.7893 53.0647 20.7893C53.0284 20.7893 52.9987 20.8569 52.9987 20.9398C52.9987 21.0224 52.9393 21.133 52.8667 21.1853C52.7941 21.2376 52.7347 21.3333 52.7347 21.3978C52.7347 21.4625 52.705 21.5153 52.6687 21.5153C52.6324 21.5153 52.6027 21.5681 52.6027 21.6328C52.6027 21.6973 52.5433 21.793 52.4707 21.8453C52.3981 21.8976 52.3387 21.9808 52.3387 22.0301C52.3387 22.0793 52.2199 22.2337 52.0747 22.3733C51.72 22.7142 51.7059 22.9673 52.0417 22.9673C52.2082 22.9673 52.2727 22.9383 52.2727 22.863C52.2727 22.7815 52.3159 22.7683 52.4707 22.8023C52.6246 22.8361 52.6687 22.8229 52.6687 22.7427C52.6687 22.6587 52.7232 22.6474 52.9657 22.6805C53.1673 22.7081 53.2627 22.6972 53.2627 22.6462C53.2627 22.605 53.3221 22.5713 53.3947 22.5713C53.4673 22.5713 53.5267 22.5416 53.5267 22.5053C53.5267 22.469 53.5861 22.4393 53.6587 22.4393C53.7313 22.4393 53.7907 22.4096 53.7907 22.3733C53.7907 22.2299 54.3204 22.3028 54.4867 22.4693C54.6505 22.6332 54.7102 22.9673 54.5756 22.9673C54.5314 22.9673 54.518 23.0298 54.5421 23.1252C54.5746 23.2547 54.5517 23.2909 54.4151 23.325C54.2809 23.3587 54.2519 23.4021 54.2671 23.5466C54.2822 23.6928 54.256 23.7304 54.1265 23.7487C53.8884 23.7824 53.7565 23.9357 53.8592 24.0594C53.9493 24.1678 53.7838 24.4193 53.6224 24.4193C53.464 24.4193 53.1096 24.8094 53.1853 24.9006C53.2825 25.0176 51.7376 26.5498 51.5825 26.4902C51.4764 26.4495 51.2167 26.6813 51.2167 26.8167C51.2167 26.9758 51.008 27.1197 50.8867 27.044C50.6202 26.8776 50.5567 27.0956 50.5567 28.1765C50.5567 28.7958 50.5318 29.1713 50.4907 29.1713C50.4508 29.1713 50.4247 29.4572 50.4247 29.8973C50.4247 30.3374 50.3986 30.6233 50.3587 30.6233C50.3199 30.6233 50.2927 30.8543 50.2927 31.1843C50.2927 31.5143 50.2655 31.7453 50.2267 31.7453C50.1904 31.7453 50.1607 31.8938 50.1607 32.0753C50.1607 32.2778 50.1317 32.4053 50.0856 32.4053C50.0338 32.4053 50.0213 32.5376 50.045 32.8343C50.0723 33.1724 50.0601 33.2633 49.9881 33.2633C49.9302 33.2633 49.8967 33.3372 49.8967 33.4653C49.8967 33.5829 49.8691 33.6501 49.8307 33.6263C49.7908 33.6017 49.7647 33.6916 49.7647 33.8533C49.7647 34.0007 49.735 34.1213 49.6987 34.1213C49.6624 34.1213 49.6327 34.255 49.6327 34.4183C49.6327 34.5816 49.603 34.7153 49.5667 34.7153C49.5304 34.7153 49.5007 34.8044 49.5007 34.9133C49.5007 35.0222 49.471 35.1113 49.4347 35.1113C49.3984 35.1113 49.3687 35.2004 49.3687 35.3093C49.3687 35.4182 49.339 35.5073 49.3027 35.5073C49.2664 35.5073 49.2367 35.5964 49.2367 35.7053C49.2367 35.8142 49.207 35.9033 49.1707 35.9033C49.1344 35.9033 49.1047 35.9924 49.1047 36.1013C49.1047 36.2102 49.075 36.2993 49.0387 36.2993C49.0024 36.2993 48.9727 36.3884 48.9727 36.4973C48.9727 36.6062 48.9392 36.6953 48.8983 36.6953C48.8485 36.6953 48.8377 36.7824 48.8661 36.9593C48.8935 37.1307 48.8833 37.2233 48.8367 37.2233C48.7196 37.2233 48.5767 37.402 48.5767 37.5485C48.5767 37.6238 48.547 37.6853 48.5107 37.6853C48.4744 37.6853 48.4447 37.7447 48.4447 37.8173C48.4447 37.8899 48.415 37.9493 48.3787 37.9493C48.3424 37.9493 48.3127 38.0087 48.3127 38.0813C48.3127 38.1539 48.283 38.2133 48.2467 38.2133C48.2104 38.2133 48.1807 38.2727 48.1807 38.3453C48.1807 38.4179 48.151 38.4773 48.1147 38.4773C48.0784 38.4773 48.0487 38.5367 48.0487 38.6093C48.0487 38.6819 48.019 38.7413 47.9827 38.7413C47.9464 38.7413 47.9167 38.8007 47.9167 38.8733C47.9167 38.9459 47.887 39.0053 47.8507 39.0053C47.8144 39.0053 47.7847 39.0647 47.7847 39.1373C47.7847 39.2099 47.755 39.2693 47.7187 39.2693C47.6824 39.2693 47.6527 39.3287 47.6527 39.4013C47.6527 39.4739 47.623 39.5333 47.5867 39.5333C47.5504 39.5333 47.5207 39.5927 47.5207 39.6653C47.5207 39.7386 47.4766 39.7973 47.4217 39.7973C47.3673 39.7973 47.3227 39.8501 47.3227 39.9148C47.3227 39.9793 47.2633 40.075 47.1907 40.1273C47.1181 40.1796 47.0587 40.2753 47.0587 40.3398C47.0587 40.4045 47.029 40.4573 46.9927 40.4573C46.9564 40.4573 46.9267 40.5167 46.9267 40.5893C46.9267 40.6619 46.897 40.7213 46.8607 40.7213C46.8244 40.7213 46.7947 40.7659 46.7947 40.8203C46.7947 40.8748 46.765 40.9193 46.7287 40.9193C46.6924 40.9193 46.6627 40.9721 46.6627 41.0368C46.6627 41.1013 46.6033 41.197 46.5307 41.2493C46.4581 41.3016 46.3987 41.3907 46.3987 41.4473C46.3987 41.5039 46.3393 41.593 46.2667 41.6453C46.1941 41.6976 46.1347 41.7867 46.1347 41.8433C46.1347 41.8999 46.0753 41.989 46.0027 42.0413C45.9301 42.0936 45.8707 42.1893 45.8707 42.2538C45.8707 42.3185 45.8405 42.3713 45.8034 42.3713C45.7646 42.3713 45.7537 42.4411 45.7776 42.5363C45.8075 42.6558 45.7925 42.7013 45.723 42.7013C45.5387 42.7013 45.3534 42.9259 45.3882 43.1074C45.4158 43.2517 45.3891 43.2892 45.2148 43.3499C44.9432 43.4446 44.8071 43.588 44.7834 43.8048C44.7726 43.9035 44.6801 44.05 44.5748 44.1353C44.4708 44.2196 44.3499 44.3175 44.306 44.353C44.2621 44.3883 44.21 44.4173 44.1898 44.4173C44.0907 44.4173 42.3704 46.2171 42.2725 46.4232C42.1648 46.6506 42.0127 46.7359 41.9656 46.5955C41.9335 46.4991 41.6173 46.7943 41.5066 47.0243C41.4372 47.1682 41.3674 47.2205 41.2505 47.2155C41.0788 47.2083 40.8966 47.3411 40.9732 47.4178C41.042 47.4866 40.7864 47.6513 40.6112 47.6513C40.5273 47.6513 40.4587 47.681 40.4587 47.7173C40.4587 47.7536 40.4059 47.7833 40.3412 47.7833C40.2767 47.7833 40.181 47.8427 40.1287 47.9153C40.0764 47.9879 39.9873 48.0473 39.9307 48.0473C39.8741 48.0473 39.785 48.1067 39.7327 48.1793C39.6804 48.2519 39.5913 48.3113 39.5347 48.3113C39.4781 48.3113 39.389 48.3707 39.3367 48.4433C39.2844 48.5159 39.1887 48.5753 39.1242 48.5753C39.0595 48.5753 39.0067 48.605 39.0067 48.6413C39.0067 48.6776 38.9539 48.7073 38.8892 48.7073C38.8247 48.7073 38.729 48.7667 38.6767 48.8393C38.6244 48.9119 38.5287 48.9713 38.4642 48.9713C38.3995 48.9713 38.3467 49.001 38.3467 49.0373C38.3467 49.0736 38.2873 49.1033 38.2147 49.1033C38.1421 49.1033 38.0827 49.133 38.0827 49.1693C38.0827 49.2056 38.0233 49.2353 37.9507 49.2353C37.8781 49.2353 37.8187 49.265 37.8187 49.3013C37.8187 49.3376 37.7445 49.3673 37.6537 49.3673C37.563 49.3673 37.4887 49.397 37.4887 49.4333C37.4887 49.4696 37.4293 49.4993 37.3567 49.4993C37.2841 49.4993 37.2247 49.529 37.2247 49.5653C37.2247 49.6016 37.1653 49.6313 37.0927 49.6313C37.0201 49.6313 36.9607 49.661 36.9607 49.6973C36.9607 49.7336 36.9013 49.7633 36.8287 49.7633C36.7561 49.7633 36.6967 49.793 36.6967 49.8293C36.6967 49.8656 36.6373 49.8953 36.5647 49.8953C36.4921 49.8953 36.4327 49.925 36.4327 49.9613C36.4327 49.9976 36.3466 50.0273 36.2411 50.0273C36.0852 50.0273 36.036 50.0664 35.9763 50.2377C35.9197 50.3999 35.8851 50.4301 35.8247 50.3697C35.71 50.255 35.5529 50.2712 35.5995 50.3928C35.6227 50.4533 35.5938 50.5114 35.528 50.5367C35.467 50.5601 35.4061 50.5442 35.3917 50.5012C35.3602 50.4068 35.1127 50.3962 35.1127 50.4893C35.1127 50.5256 35.0236 50.5553 34.9147 50.5553C34.8058 50.5553 34.7167 50.585 34.7167 50.6213C34.7167 50.6576 34.6276 50.6873 34.5187 50.6873C34.3867 50.6873 34.3207 50.7203 34.3207 50.7863C34.3207 50.8596 34.2436 50.8853 34.0237 50.8853C33.8604 50.8853 33.7267 50.915 33.7267 50.9513C33.7267 50.9876 33.6376 51.0173 33.5287 51.0173C33.4198 51.0173 33.3307 51.047 33.3307 51.0833C33.3307 51.1196 33.2119 51.1493 33.0667 51.1493C32.9215 51.1493 32.8027 51.179 32.8027 51.2153C32.8027 51.2516 32.6839 51.2813 32.5387 51.2813C32.3935 51.2813 32.2747 51.311 32.2747 51.3473C32.2747 51.3836 32.1856 51.4133 32.0767 51.4133C31.9678 51.4133 31.8787 51.443 31.8787 51.4793C31.8787 51.5174 31.6696 51.5453 31.3837 51.5453C31.0978 51.5453 30.8887 51.5732 30.8887 51.6113C30.8887 51.6491 30.6907 51.6773 30.4267 51.6773C30.1627 51.6773 29.9647 51.7055 29.9647 51.7433C29.9647 51.7814 29.7556 51.8093 29.4697 51.8093C29.1178 51.8093 28.9747 51.8331 28.9747 51.8918C28.9749 51.9987 24.9413 51.97 24.875 51.8628C24.8484 51.8199 24.5484 51.8035 24.0658 51.8189C23.4809 51.8375 23.2987 51.8235 23.2987 51.7603C23.2987 51.706 23.1962 51.6773 23.0017 51.6773C22.8384 51.6773 22.7047 51.6476 22.7047 51.6113C22.7047 51.575 22.5562 51.5453 22.3747 51.5453C22.1803 51.5453 22.0447 51.5158 22.0447 51.4734C22.0447 51.4262 21.8922 51.409 21.6047 51.4239C21.2946 51.4397 21.1567 51.4219 21.1372 51.3638C21.122 51.3184 21.0379 51.2813 20.9503 51.2813C20.8625 51.2813 20.7907 51.2516 20.7907 51.2153C20.7907 51.179 20.6719 51.1493 20.5267 51.1493C20.3815 51.1493 20.2627 51.1196 20.2627 51.0833C20.2627 51.047 20.1736 51.0173 20.0647 51.0173C19.9558 51.0173 19.8667 50.9876 19.8667 50.9513C19.8667 50.915 19.734 50.8853 19.5719 50.8853C19.3593 50.8853 19.2859 50.8617 19.3093 50.8008C19.3301 50.7465 19.2763 50.7109 19.1587 50.7013C19.058 50.6929 18.9658 50.6568 18.9538 50.6208C18.9416 50.5847 18.8747 50.5553 18.8053 50.5553C18.7356 50.5553 18.6787 50.5256 18.6787 50.4893C18.6787 50.453 18.5896 50.4233 18.4807 50.4233C18.3718 50.4233 18.2827 50.3936 18.2827 50.3573C18.2827 50.321 18.2085 50.2913 18.1177 50.2913C18.027 50.2913 17.9527 50.2616 17.9527 50.2253C17.9527 50.189 17.8636 50.1593 17.7547 50.1593C17.6458 50.1593 17.5567 50.1296 17.5567 50.0933C17.5567 50.057 17.4991 50.0273 17.4287 50.0273C17.3582 50.0273 17.2821 50.057 17.2597 50.0933C17.1907 50.2048 17.0947 50.1666 17.0947 50.0273C17.0947 49.954 17.0507 49.8953 16.9957 49.8953C16.9413 49.8953 16.8967 49.8656 16.8967 49.8293C16.8967 49.793 16.8373 49.7633 16.7647 49.7633C16.6921 49.7633 16.6327 49.7336 16.6327 49.6973C16.6327 49.661 16.5733 49.6313 16.5007 49.6313C16.4281 49.6313 16.3687 49.6016 16.3687 49.5653C16.3687 49.529 16.3093 49.4993 16.2367 49.4993C16.1641 49.4993 16.1047 49.4696 16.1047 49.4333C16.1047 49.397 16.0453 49.3673 15.9727 49.3673C15.9001 49.3673 15.8407 49.3376 15.8407 49.3013C15.8407 49.265 15.7813 49.2353 15.7087 49.2353C15.6361 49.2353 15.5767 49.2056 15.5767 49.1693C15.5767 49.133 15.5173 49.1033 15.4447 49.1033C15.3721 49.1033 15.3127 49.0736 15.3127 49.0373C15.3127 49.001 15.2404 48.9713 15.1522 48.9713C15.0495 48.9713 14.9764 48.9236 14.9497 48.8393C14.9245 48.7598 14.8499 48.7073 14.7618 48.7073C14.6816 48.7073 14.573 48.6479 14.5207 48.5753C14.4684 48.5027 14.3727 48.4433 14.3082 48.4433C14.2435 48.4433 14.1907 48.4136 14.1907 48.3773C14.1907 48.341 14.1313 48.3113 14.0587 48.3113C13.9861 48.3113 13.9267 48.2811 13.9267 48.244C13.9267 48.2042 13.8554 48.1946 13.7521 48.2206C13.5898 48.2613 13.5807 48.2522 13.6215 48.0899C13.6474 47.9866 13.6378 47.9153 13.598 47.9153C13.5609 47.9153 13.5307 47.841 13.5307 47.7503C13.5307 47.6595 13.5604 47.5853 13.5967 47.5853C13.633 47.5853 13.6627 47.5386 13.6627 47.4815C13.6627 47.2469 13.831 47.1893 14.5159 47.1893C14.9151 47.1893 15.1807 47.2157 15.1807 47.2553C15.1807 47.2956 15.4888 47.3213 15.9727 47.3213C16.4567 47.3213 16.7647 47.2956 16.7647 47.2553C16.7647 47.2149 17.0837 47.1893 17.5897 47.1893C18.0958 47.1893 18.4147 47.1637 18.4147 47.1233C18.4147 47.0867 18.5908 47.0573 18.8107 47.0573C19.0307 47.0573 19.2067 47.0279 19.2067 46.9913C19.2067 46.955 19.3552 46.9253 19.5367 46.9253C19.7182 46.9253 19.8667 46.8956 19.8667 46.8593C19.8667 46.823 19.941 46.7933 20.0317 46.7933C20.1381 46.7933 20.1967 46.7562 20.1967 46.689C20.1967 46.6075 20.2399 46.5943 20.3947 46.6283C20.5487 46.6621 20.5927 46.6489 20.5927 46.5687C20.5927 46.4848 20.6472 46.4734 20.8897 46.5065C21.0913 46.5341 21.1867 46.5232 21.1867 46.4722C21.1867 46.4306 21.2893 46.3973 21.4177 46.3973C21.5448 46.3973 21.6487 46.3676 21.6487 46.3313C21.6487 46.295 21.7378 46.2653 21.8467 46.2653C21.9556 46.2653 22.0447 46.2356 22.0447 46.1993C22.0447 46.163 22.1041 46.1333 22.1767 46.1333C22.2493 46.1333 22.3087 46.1036 22.3087 46.0673C22.3087 46.031 22.3978 46.0013 22.5067 46.0013C22.6156 46.0013 22.7047 45.9716 22.7047 45.9353C22.7047 45.899 22.7641 45.8693 22.8367 45.8693C22.9093 45.8693 22.9687 45.8396 22.9687 45.8033C22.9687 45.767 23.0281 45.7373 23.1007 45.7373C23.1733 45.7373 23.2327 45.7076 23.2327 45.6713C23.2327 45.635 23.2921 45.6053 23.3647 45.6053C23.4373 45.6053 23.4967 45.5756 23.4967 45.5393C23.4967 45.503 23.5561 45.4733 23.6287 45.4733C23.7013 45.4733 23.7607 45.4436 23.7607 45.4073C23.7607 45.371 23.8135 45.3413 23.8782 45.3413C23.9427 45.3413 24.0384 45.2819 24.0907 45.2093C24.143 45.1367 24.226 45.0773 24.275 45.0773C24.3958 45.0773 24.5527 44.9123 24.5527 44.7851C24.5527 44.7254 24.4968 44.6813 24.4207 44.6813C24.3481 44.6813 24.2887 44.6516 24.2887 44.6153C24.2887 44.579 24.1996 44.5493 24.0907 44.5493C23.9818 44.5493 23.8927 44.5196 23.8927 44.4833C23.8927 44.447 23.8036 44.4173 23.6947 44.4173C23.5858 44.4173 23.4967 44.3838 23.4967 44.3427C23.4967 44.2934 23.3962 44.2795 23.1997 44.3016C22.9694 44.3275 22.9027 44.3137 22.9027 44.2398C22.9027 44.1767 22.861 44.1576 22.7793 44.1835C22.6819 44.2145 22.6474 44.1807 22.6159 44.0229C22.5872 43.8796 22.5384 43.8233 22.4424 43.8233C22.3689 43.8233 22.3087 43.7936 22.3087 43.7573C22.3087 43.721 22.2493 43.6913 22.1767 43.6913C22.1041 43.6913 22.0447 43.6616 22.0447 43.6253C22.0447 43.589 21.9919 43.5593 21.9272 43.5593C21.8627 43.5593 21.767 43.4999 21.7147 43.4273C21.6624 43.3547 21.5518 43.2953 21.4692 43.2953C21.3864 43.2953 21.3187 43.2659 21.3187 43.2301C21.3187 43.1942 21.2519 43.1719 21.1702 43.1806C21.0603 43.1922 21.0268 43.1659 21.0415 43.0793C21.0625 42.9549 20.914 42.7673 20.7945 42.7673C20.6927 42.7673 19.6027 41.6648 19.6027 41.5618C19.6027 41.5148 19.5433 41.4336 19.4707 41.3813C19.3981 41.329 19.3387 41.2399 19.3387 41.1833C19.3387 41.1267 19.2793 41.0376 19.2067 40.9853C19.1341 40.933 19.0747 40.8352 19.0747 40.768C19.0747 40.6074 18.9194 40.4573 18.7533 40.4573C18.5883 40.4573 18.5073 40.3383 18.6053 40.2403C18.6967 40.1489 18.702 39.9293 18.6127 39.9293C18.5764 39.9293 18.5467 39.8699 18.5467 39.7973C18.5467 39.7247 18.517 39.6653 18.4807 39.6653C18.4444 39.6653 18.4147 39.6059 18.4147 39.5333C18.4147 39.4607 18.385 39.4013 18.3487 39.4013C18.3124 39.4013 18.2827 39.3122 18.2827 39.2033C18.2827 39.0713 18.2497 39.0053 18.1837 39.0053C18.1222 39.0053 18.0847 38.9429 18.0847 38.8403C18.0847 38.7377 18.0473 38.6753 17.9857 38.6753C17.8323 38.6753 17.8681 38.5775 18.0811 38.4141C18.188 38.3323 18.2845 38.2039 18.2956 38.129C18.3235 37.9402 18.4279 37.9234 18.5964 38.0803C18.781 38.2522 19.4707 38.2767 19.4707 38.1113C19.4707 37.9793 19.1767 37.6853 19.0447 37.6853C18.9886 37.6853 18.9427 37.6408 18.9427 37.5863C18.9427 37.4675 18.8658 37.4586 18.7594 37.565C18.6594 37.665 18.4147 37.4588 18.4147 37.2743C18.4147 37.1528 18.2725 36.9593 18.1832 36.9593C18.1596 36.9593 18.0263 36.8405 17.8867 36.6953C17.7118 36.5133 17.5988 36.4447 17.5222 36.474C17.3965 36.5222 17.2952 36.4001 17.2937 36.1983C17.2932 36.1247 17.2333 36.0216 17.1607 35.9693C17.0881 35.917 17.0287 35.8279 17.0287 35.7713C17.0287 35.7147 16.9693 35.6256 16.8967 35.5733C16.8241 35.521 16.7647 35.4319 16.7647 35.3753C16.7647 35.3187 16.7053 35.2296 16.6327 35.1773C16.5601 35.125 16.5007 35.0359 16.5007 34.9793C16.5007 34.9227 16.4413 34.8336 16.3687 34.7813C16.2961 34.729 16.2367 34.6333 16.2367 34.5688C16.2367 34.5041 16.207 34.4513 16.1707 34.4513C16.1344 34.4513 16.1047 34.3771 16.1047 34.2863C16.1047 34.1955 16.075 34.1213 16.0387 34.1213C16.0024 34.1213 15.9727 34.0322 15.9727 33.9233C15.9727 33.8144 15.943 33.7253 15.9067 33.7253C15.8704 33.7253 15.8407 33.6659 15.8407 33.5933C15.8407 33.5207 15.811 33.4613 15.7747 33.4613C15.7384 33.4613 15.7087 33.3722 15.7087 33.2633C15.7087 33.1544 15.679 33.0653 15.6427 33.0653C15.6064 33.0653 15.5767 33.0208 15.5767 32.9663C15.5767 32.9114 15.518 32.8673 15.4447 32.8673C15.3054 32.8673 15.2672 32.7713 15.3787 32.7023C15.4648 32.6492 15.4648 32.1413 15.3787 32.1413C15.3403 32.1413 15.3127 31.9214 15.3127 31.6133C15.3127 31.3052 15.2852 31.0853 15.2467 31.0853C15.2097 31.0853 15.1807 30.9026 15.1807 30.6695C15.1807 30.4279 15.1466 30.2195 15.0994 30.1724C15.0348 30.1078 15.0472 30.0833 15.1593 30.054C15.237 30.0338 15.3147 29.9628 15.332 29.8965C15.3734 29.7379 15.8886 29.7935 16.0465 29.9735C16.1052 30.0405 16.2314 30.0953 16.327 30.0953C16.4225 30.0953 16.5007 30.125 16.5007 30.1613C16.5007 30.1976 16.5601 30.2273 16.6327 30.2273C16.7053 30.2273 16.7647 30.257 16.7647 30.2933C16.7647 30.3296 16.8835 30.3593 17.0287 30.3593C17.2685 30.3593 17.2927 30.3436 17.2927 30.1892C17.2927 30.0768 17.2028 29.9326 17.0287 29.7653C16.8835 29.6257 16.7647 29.4713 16.7647 29.4221C16.7647 29.3728 16.7053 29.2896 16.6327 29.2373C16.5601 29.185 16.5007 29.0893 16.5007 29.0248C16.5007 28.9601 16.471 28.9073 16.4347 28.9073C16.3984 28.9073 16.3687 28.8479 16.3687 28.7753C16.3687 28.7027 16.339 28.6433 16.3027 28.6433C16.2664 28.6433 16.2367 28.5839 16.2367 28.5113C16.2367 28.4387 16.207 28.3793 16.1707 28.3793C16.1344 28.3793 16.1047 28.3199 16.1047 28.2473C16.1047 28.1747 16.075 28.1153 16.0387 28.1153C16.0024 28.1153 15.9727 28.0262 15.9727 27.9173C15.9727 27.8084 15.943 27.7193 15.9067 27.7193C15.8704 27.7193 15.8407 27.6578 15.8407 27.5825C15.8407 27.4322 15.7381 27.3065 15.5602 27.2391C15.4325 27.1908 15.4087 27.0893 15.5107 27.0263C15.547 27.0039 15.5767 26.8684 15.5767 26.7253C15.5767 26.5823 15.547 26.4653 15.5107 26.4653C15.4744 26.4653 15.4447 26.3168 15.4447 26.1353C15.4447 25.9538 15.415 25.8053 15.3787 25.8053C15.3371 25.8053 15.3127 25.3544 15.3127 24.5843C15.3127 23.8142 15.3371 23.3633 15.3787 23.3633C15.415 23.3633 15.4447 23.2148 15.4447 23.0333C15.4447 22.8371 15.4742 22.7033 15.5173 22.7033C15.5853 22.7033 15.5782 22.2972 15.5059 22.0433C15.4879 21.9803 15.5198 21.9476 15.5932 21.9535C15.7275 21.9641 15.749 21.78 15.6274 21.6584C15.5628 21.5938 15.5765 21.5689 15.6934 21.5384C15.7744 21.5173 15.8407 21.4589 15.8407 21.4085C15.8407 21.3584 15.8704 21.3173 15.9067 21.3173C15.943 21.3173 15.9727 21.2579 15.9727 21.1853C15.9727 21.1127 16.0024 21.0533 16.0387 21.0533C16.075 21.0533 16.1047 20.9939 16.1047 20.9213C16.1047 20.8487 16.1344 20.7893 16.1707 20.7893C16.207 20.7893 16.2367 20.7299 16.2367 20.6573C16.2367 20.5847 16.2664 20.5253 16.3027 20.5253C16.339 20.5253 16.3687 20.4798 16.3687 20.4242C16.3687 20.2928 16.7962 19.8653 16.9276 19.8653C16.9832 19.8653 17.0287 19.8955 17.0287 19.9326C17.0287 19.9717 17.0992 19.9821 17.197 19.9575C17.3967 19.9075 17.593 20.105 17.4795 20.2418C17.4179 20.3159 17.6725 20.6573 17.7894 20.6573C17.8578 20.6573 18.0187 20.8413 18.0187 20.9196C18.0187 21.0391 18.3471 21.3321 18.4408 21.2962C18.5861 21.2402 18.8945 21.5531 18.8457 21.7069C18.8025 21.843 19.5722 22.7033 19.7372 22.7033C19.7761 22.7033 19.9829 22.8815 20.1967 23.0993C20.4105 23.3171 20.625 23.4953 20.6736 23.4953C20.7219 23.4953 20.8044 23.5547 20.8567 23.6273C20.909 23.6999 20.9899 23.7593 21.0362 23.7593C21.0828 23.7593 21.1207 23.789 21.1207 23.8253C21.1207 23.8616 21.1801 23.8913 21.2527 23.8913C21.3253 23.8913 21.3847 23.921 21.3847 23.9573C21.3847 23.9936 21.4441 24.0233 21.5167 24.0233C21.6046 24.0233 21.6487 24.0674 21.6487 24.1553C21.6487 24.2378 21.6928 24.2873 21.7662 24.2873C21.8307 24.2873 21.9264 24.3467 21.9787 24.4193C22.031 24.4919 22.114 24.5513 22.163 24.5513C22.2694 24.5513 22.4407 24.7112 22.4407 24.8105C22.4407 24.8495 22.5001 24.8813 22.5727 24.8813C22.6453 24.8813 22.7047 24.9115 22.7047 24.9486C22.7047 24.9884 22.7763 24.9978 22.8806 24.9717C23.0284 24.9346 23.0496 24.9456 23.0129 25.0407C22.9786 25.1304 22.9964 25.1455 23.0986 25.113C23.2509 25.0646 23.5051 25.1841 23.4909 25.2973C23.4683 25.4783 23.504 25.5413 23.6287 25.5413C23.7013 25.5413 23.7607 25.571 23.7607 25.6073C23.7607 25.6436 23.8201 25.6733 23.8927 25.6733C23.9653 25.6733 24.0247 25.703 24.0247 25.7393C24.0247 25.7756 24.0841 25.8053 24.1567 25.8053C24.2293 25.8053 24.2887 25.835 24.2887 25.8713C24.2887 25.9076 24.363 25.9373 24.4537 25.9373C24.5445 25.9373 24.6187 25.967 24.6187 26.0033C24.6187 26.0396 24.6781 26.0693 24.7507 26.0693C24.8233 26.0693 24.8827 26.099 24.8827 26.1353C24.8827 26.1716 24.9421 26.2013 25.0147 26.2013C25.0873 26.2013 25.1467 26.231 25.1467 26.2673C25.1467 26.3036 25.2061 26.3333 25.2787 26.3333C25.3513 26.3333 25.4107 26.363 25.4107 26.3993C25.4107 26.4356 25.4701 26.4653 25.5427 26.4653C25.6153 26.4653 25.6747 26.495 25.6747 26.5313C25.6747 26.5676 25.7341 26.5973 25.8067 26.5973C25.8793 26.5973 25.9387 26.627 25.9387 26.6633C25.9387 26.6996 26.0278 26.7293 26.1367 26.7293C26.2456 26.7293 26.3347 26.7613 26.3347 26.8004C26.3347 26.8425 26.4359 26.8628 26.5822 26.8499C26.7538 26.8349 26.8246 26.8535 26.8132 26.9108C26.8041 26.9562 26.8413 26.9933 26.8957 26.9933C26.9502 26.9933 26.9947 27.023 26.9947 27.0593C26.9947 27.0956 27.0541 27.1253 27.1267 27.1253C27.1993 27.1253 27.2587 27.155 27.2587 27.1913C27.2587 27.2276 27.3627 27.2573 27.4897 27.2573C27.6168 27.2573 27.7207 27.287 27.7207 27.3233C27.7207 27.3596 27.8395 27.3893 27.9847 27.3893C28.1378 27.3893 28.2487 27.4208 28.2487 27.4642C28.2487 27.5152 28.3441 27.5261 28.5457 27.4985C28.7823 27.466 28.8427 27.4777 28.8427 27.5556C28.8427 27.6158 28.9061 27.6533 29.0077 27.6533C29.0985 27.6533 29.1727 27.683 29.1727 27.7193C29.1727 27.7556 29.2618 27.7853 29.3707 27.7853C29.4796 27.7853 29.5687 27.815 29.5687 27.8513C29.5687 27.8876 29.7172 27.9173 29.8987 27.9173C30.148 27.9173 30.2287 27.9416 30.2287 28.0163C30.2287 28.14 30.8209 28.1567 30.9412 28.0364C31.0022 27.9754 31.0502 27.9902 31.1549 28.1024C31.2436 28.1976 31.368 28.2473 31.5183 28.2473C31.6439 28.2473 31.7467 28.277 31.7467 28.3133C31.7467 28.3529 32.0125 28.3793 32.4121 28.3793H33.0778L33.0594 27.0801C33.0459 26.1183 33.0616 25.7739 33.12 25.7545C33.1632 25.7401 33.1987 25.6565 33.1987 25.5689C33.1987 25.4811 33.2284 25.4093 33.2647 25.4093C33.301 25.4093 33.3307 25.2905 33.3307 25.1453C33.3307 25.0001 33.3604 24.8813 33.3967 24.8813C33.433 24.8813 33.4627 24.7476 33.4627 24.5843C33.4627 24.4209 33.4924 24.2873 33.5287 24.2873C33.565 24.2873 33.5947 24.2279 33.5947 24.1553C33.5947 24.0827 33.6244 24.0233 33.6607 24.0233C33.697 24.0233 33.7267 23.9342 33.7267 23.8253C33.7267 23.7164 33.7564 23.6273 33.7927 23.6273C33.829 23.6273 33.8587 23.5679 33.8587 23.4953C33.8587 23.4227 33.8884 23.3633 33.9247 23.3633C33.961 23.3633 33.9907 23.3039 33.9907 23.2313C33.9907 23.1587 34.0204 23.0993 34.0567 23.0993C34.093 23.0993 34.1227 23.0465 34.1227 22.9818C34.1227 22.9173 34.1821 22.8216 34.2547 22.7693C34.3273 22.717 34.3867 22.634 34.3867 22.585C34.3867 22.4766 34.5472 22.3073 34.6499 22.3073C34.691 22.3073 34.7076 22.2801 34.687 22.2466C34.6664 22.2132 34.6972 22.1382 34.7556 22.0798C34.8413 21.9941 34.8459 21.9545 34.7802 21.8752C34.672 21.7448 34.8695 21.5153 35.0899 21.5153C35.1751 21.5153 35.2447 21.4841 35.2447 21.4462C35.2447 21.408 35.4482 21.1762 35.697 20.9309C35.9458 20.6855 36.192 20.3974 36.2443 20.2905C36.318 20.14 36.3797 20.0991 36.518 20.1087C36.6163 20.1156 36.6967 20.0933 36.6967 20.0592C36.6967 20.0252 36.7495 19.9973 36.8142 19.9973C36.8787 19.9973 36.9744 19.9379 37.0267 19.8653C37.079 19.7927 37.1747 19.7333 37.2392 19.7333C37.3039 19.7333 37.3567 19.7036 37.3567 19.6673C37.3567 19.631 37.4095 19.6013 37.4742 19.6013C37.5387 19.6013 37.6344 19.5419 37.6867 19.4693C37.739 19.3967 37.8496 19.3373 37.9322 19.3373C38.0151 19.3373 38.0827 19.3076 38.0827 19.2713C38.0827 19.235 38.1718 19.2053 38.2807 19.2053C38.3896 19.2053 38.4787 19.1756 38.4787 19.1393C38.4787 19.103 38.5381 19.0733 38.6107 19.0733C38.6833 19.0733 38.7427 19.0436 38.7427 19.0073C38.7427 18.971 38.8318 18.9413 38.9407 18.9413C39.0496 18.9413 39.1387 18.9116 39.1387 18.8753C39.1387 18.839 39.2278 18.8093 39.3367 18.8093C39.4456 18.8093 39.5347 18.7796 39.5347 18.7433C39.5347 18.707 39.6535 18.6773 39.7987 18.6773C39.9439 18.6773 40.0627 18.6476 40.0627 18.6113C40.0627 18.575 40.1843 18.5453 40.3328 18.5453C40.5475 18.5453 40.6102 18.5182 40.6376 18.4133C40.6749 18.2707 40.7564 18.2415 40.8217 18.3473Z" fill="white"/>
<path fill-rule="evenodd" clip-rule="evenodd" d="M28.9197 0.168459C28.9496 0.311844 29.0666 0.320589 29.0935 0.181494C29.1073 0.109224 29.075 0.0659943 29.007 0.0659943C28.9436 0.0659943 28.9072 0.108729 28.9197 0.168459ZM37.0377 0.168459C37.0676 0.311844 37.1846 0.320589 37.2115 0.181494C37.2253 0.109224 37.193 0.0659943 37.125 0.0659943C37.0616 0.0659943 37.0252 0.108729 37.0377 0.168459ZM39.6117 0.564459C39.6416 0.707844 39.7586 0.716589 39.7855 0.577494C39.7993 0.505224 39.767 0.461994 39.699 0.461994C39.6356 0.461994 39.5992 0.504729 39.6117 0.564459ZM47.52 3.26699C47.52 3.32144 47.5645 3.36599 47.619 3.36599C47.6735 3.36599 47.718 3.32144 47.718 3.26699C47.718 3.21254 47.6735 3.16799 47.619 3.16799C47.5645 3.16799 47.52 3.21254 47.52 3.26699ZM16.896 4.0519C16.896 4.17664 17.0747 4.23752 17.1169 4.1273C17.1569 4.02319 17.1067 3.95999 16.9839 3.95999C16.9356 3.95999 16.896 4.00141 16.896 4.0519ZM16.533 4.25897C16.3825 4.38239 16.3627 4.4215 16.4505 4.42166C16.514 4.42183 16.566 4.39031 16.566 4.35154C16.566 4.31111 16.6223 4.2989 16.698 4.32299C16.801 4.35566 16.83 4.33487 16.83 4.22845C16.83 4.05371 16.7767 4.05916 16.533 4.25897ZM49.302 4.22944C49.302 4.39031 49.4563 4.36754 49.4883 4.20205C49.501 4.13687 49.4673 4.09199 49.4058 4.09199C49.3446 4.09199 49.302 4.14842 49.302 4.22944ZM51.018 5.31778C51.018 5.37932 51.0629 5.41298 51.1281 5.40028C51.2935 5.36827 51.3163 5.21399 51.1554 5.21399C51.0744 5.21399 51.018 5.25656 51.018 5.31778ZM53.922 7.32236C53.922 7.4834 54.2411 7.75813 54.288 7.63751C54.3188 7.55815 54.285 7.47796 54.1837 7.39001C54.0213 7.24927 53.922 7.22353 53.922 7.32236ZM60.4712 14.5984C60.5119 14.7208 60.654 14.7411 60.654 14.6244C60.654 14.567 60.607 14.52 60.5496 14.52C60.492 14.52 60.4568 14.5553 60.4712 14.5984ZM61.4127 16.0385C61.3901 16.075 61.4193 16.1233 61.4777 16.1456C61.6041 16.1941 61.6745 16.1406 61.6136 16.0424C61.5589 15.9537 61.4661 15.9519 61.4127 16.0385ZM61.556 16.2801C61.4724 16.3637 61.5125 16.434 61.644 16.434C61.7173 16.434 61.776 16.3899 61.776 16.335C61.776 16.2345 61.6364 16.1995 61.556 16.2801ZM3.79186 17.3931C3.65673 17.6665 3.56383 17.9078 3.58528 17.9292C3.65689 18.0008 3.82635 17.8924 3.79005 17.798C3.77041 17.7469 3.80011 17.6875 3.85605 17.666C3.91198 17.6446 3.94168 17.5852 3.92205 17.534C3.90241 17.4829 3.9303 17.4242 3.98409 17.4035C4.04497 17.3801 4.0684 17.3149 4.04613 17.23C4.02138 17.1349 4.042 17.094 4.11526 17.094C4.1811 17.094 4.20585 17.0574 4.18192 16.995C4.11312 16.8158 4.04035 16.8901 3.79186 17.3931ZM62.436 17.787C62.436 17.8414 62.4657 17.886 62.502 17.886C62.5383 17.886 62.568 17.8414 62.568 17.787C62.568 17.7325 62.5383 17.688 62.502 17.688C62.4657 17.688 62.436 17.7325 62.436 17.787ZM40.6375 18.4114C40.611 18.5133 40.6341 18.546 40.7331 18.546C40.8195 18.546 40.8565 18.5089 40.8423 18.4359C40.8106 18.2726 40.6779 18.2566 40.6375 18.4114ZM45.2541 18.986C45.165 19.075 45.2136 19.206 45.3359 19.206C45.4291 19.206 45.4527 19.1718 45.4271 19.074C45.3917 18.9387 45.3318 18.9082 45.2541 18.986ZM17.16 20.0152C17.16 20.1198 17.4083 20.2795 17.4913 20.2282C17.5847 20.1704 17.4115 19.932 17.2762 19.932C17.2123 19.932 17.16 19.9694 17.16 20.0152ZM46.8394 19.9746C46.7532 20.0607 46.7943 20.13 46.9314 20.13C47.0083 20.13 47.0575 20.0953 47.0428 20.0516C47.0106 19.9551 46.9006 19.9135 46.8394 19.9746ZM36.3132 20.1432C36.2149 20.2415 36.2097 20.394 36.3048 20.394C36.396 20.394 36.564 20.226 36.564 20.1348C36.564 20.0397 36.4115 20.0449 36.3132 20.1432ZM49.566 20.427C49.566 20.4814 49.6105 20.526 49.665 20.526C49.7194 20.526 49.764 20.4814 49.764 20.427C49.764 20.3725 49.7194 20.328 49.665 20.328C49.6105 20.328 49.566 20.3725 49.566 20.427ZM49.17 20.559C49.17 20.6134 49.2146 20.658 49.269 20.658C49.3234 20.658 49.368 20.6134 49.368 20.559C49.368 20.5045 49.3234 20.46 49.269 20.46C49.2146 20.46 49.17 20.5045 49.17 20.559ZM48.7521 20.636C48.6684 20.7197 48.7085 20.79 48.84 20.79C48.9133 20.79 48.972 20.7459 48.972 20.691C48.972 20.5905 48.8324 20.5555 48.7521 20.636ZM18.4447 21.3218C18.4178 21.3652 18.4853 21.4858 18.6011 21.6015C18.7742 21.7746 18.8108 21.7886 18.8466 21.6952C18.8872 21.5898 18.8382 21.517 18.6011 21.3314C18.5199 21.2677 18.4797 21.2652 18.4447 21.3218ZM15.6136 21.5746C15.5687 21.6472 15.7369 21.7952 15.7966 21.7354C15.8205 21.7115 15.84 21.6525 15.84 21.6039C15.84 21.5056 15.6699 21.4835 15.6136 21.5746ZM34.8135 21.6495C34.7223 21.7505 34.7114 21.8018 34.7688 21.8592C34.8566 21.947 35.112 21.7577 35.112 21.6048C35.112 21.4731 34.9515 21.4972 34.8135 21.6495ZM15.4852 21.9646C15.4217 22.0674 15.564 22.2144 15.6466 22.1318C15.6885 22.0899 15.7029 22.0232 15.6786 21.9838C15.6265 21.8995 15.5314 21.8901 15.4852 21.9646ZM52.668 22.737C52.668 22.7914 52.7125 22.836 52.767 22.836C52.8214 22.836 52.866 22.7914 52.866 22.737C52.866 22.6825 52.8214 22.638 52.767 22.638C52.7125 22.638 52.668 22.6825 52.668 22.737ZM52.272 22.869C52.272 22.9234 52.3165 22.968 52.371 22.968C52.4254 22.968 52.47 22.9234 52.47 22.869C52.47 22.8145 52.4254 22.77 52.371 22.77C52.3165 22.77 52.272 22.8145 52.272 22.869ZM54.384 23.1936C54.384 23.251 54.431 23.298 54.4884 23.298C54.6051 23.298 54.5848 23.1559 54.4624 23.1152C54.4193 23.1008 54.384 23.136 54.384 23.1936ZM54.12 23.628C54.12 23.7131 54.1535 23.7598 54.2025 23.7435C54.2479 23.7283 54.285 23.6763 54.285 23.628C54.285 23.5797 54.2479 23.5277 54.2025 23.5125C54.1535 23.4962 54.12 23.5429 54.12 23.628ZM64.812 23.8866C64.812 23.9676 64.8546 24.024 64.9158 24.024C64.9773 24.024 65.011 23.9791 64.9983 23.9139C64.9663 23.7484 64.812 23.7257 64.812 23.8866ZM53.6397 24.1568C53.5034 24.3159 53.4935 24.42 53.6148 24.42C53.7392 24.42 53.9439 24.1789 53.8916 24.0941C53.8284 23.9921 53.7677 24.0072 53.6397 24.1568ZM52.2816 25.6525C51.7635 26.1779 51.5533 26.4337 51.6006 26.481C51.6767 26.5571 53.2783 25.0279 53.2206 24.9343C53.146 24.8139 52.9935 24.9305 52.2816 25.6525ZM22.836 25.014C22.836 25.0503 22.8805 25.08 22.935 25.08C22.9894 25.08 23.034 25.0503 23.034 25.014C23.034 24.9777 22.9894 24.948 22.935 24.948C22.8805 24.948 22.836 24.9777 22.836 25.014ZM23.1 25.1508C23.1 25.2707 23.296 25.4248 23.3986 25.3854C23.5336 25.3338 23.5203 25.2297 23.3683 25.1483C23.2041 25.0604 23.1 25.0614 23.1 25.1508ZM0.726 25.509C0.726 25.577 0.76923 25.6093 0.8415 25.5955C0.980595 25.5686 0.97185 25.4516 0.828465 25.4217C0.768735 25.4092 0.726 25.4456 0.726 25.509ZM33.0441 25.7841C32.9609 25.867 33 26.07 33.099 26.07C33.1605 26.07 33.198 26.0076 33.198 25.905C33.198 25.7448 33.1338 25.6943 33.0441 25.7841ZM0.594 26.0748C0.594 26.2439 0.81246 26.2248 0.845625 26.0527C0.860805 25.9735 0.82533 25.938 0.730785 25.938C0.636405 25.938 0.594 25.9804 0.594 26.0748ZM65.34 26.037C65.34 26.0914 65.3845 26.136 65.439 26.136C65.4934 26.136 65.538 26.0914 65.538 26.037C65.538 25.9825 65.4934 25.938 65.439 25.938C65.3845 25.938 65.34 25.9825 65.34 26.037ZM50.9627 26.8349C50.9142 26.8899 50.8926 26.9818 50.9145 27.0394C50.9624 27.1641 51.216 26.9785 51.216 26.8188C51.216 26.701 51.0731 26.71 50.9627 26.8349ZM26.6284 26.8665C26.5675 26.9646 26.6379 27.0181 26.7643 26.9696C26.8227 26.9473 26.8519 26.899 26.8293 26.8625C26.7759 26.7759 26.6831 26.7777 26.6284 26.8665ZM15.477 27.06C15.4217 27.1494 15.4963 27.258 15.613 27.258C15.6653 27.258 15.708 27.1986 15.708 27.126C15.708 26.9894 15.5488 26.9438 15.477 27.06ZM28.644 27.555C28.644 27.6094 28.6885 27.654 28.743 27.654C28.7974 27.654 28.842 27.6094 28.842 27.555C28.842 27.5005 28.7974 27.456 28.743 27.456C28.6885 27.456 28.644 27.5005 28.644 27.555ZM30.921 28.05C30.8555 28.1559 30.949 28.248 31.1223 28.248C31.2764 28.248 31.2782 28.2427 31.1697 28.116C31.0436 27.9688 30.9814 27.9523 30.921 28.05ZM65.7477 28.3581C65.7797 28.5235 65.934 28.5463 65.934 28.3854C65.934 28.3044 65.8914 28.248 65.8302 28.248C65.7687 28.248 65.735 28.2929 65.7477 28.3581ZM0.066 29.436C0.066 29.5792 0.114675 29.5979 0.255915 29.5084C0.362505 29.4409 0.298815 29.304 0.16104 29.304C0.108735 29.304 0.066 29.3634 0.066 29.436ZM15.3574 29.8086C15.2712 29.8947 15.3123 29.964 15.4494 29.964C15.5263 29.964 15.5755 29.9293 15.5608 29.8856C15.5286 29.7891 15.4186 29.7475 15.3574 29.8086ZM15.0939 30.0722C15.0322 30.1338 15.1066 30.228 15.217 30.228C15.2693 30.228 15.312 30.1834 15.312 30.129C15.312 30.0297 15.1727 29.9934 15.0939 30.0722ZM15.3561 32.7141C15.2724 32.7977 15.3125 32.868 15.444 32.868C15.5173 32.868 15.576 32.8239 15.576 32.769C15.576 32.6685 15.4364 32.6335 15.3561 32.7141ZM49.9401 33.1101C49.864 33.186 49.8919 33.264 49.995 33.264C50.0494 33.264 50.094 33.2194 50.094 33.165C50.094 33.0619 50.016 33.034 49.9401 33.1101ZM0 34.7302C0 34.982 0.009735 34.9986 0.102795 34.9054C0.172425 34.836 0.1914 34.7459 0.1617 34.6272C0.09438 34.3588 0 34.4188 0 34.7302ZM17.292 36.2286C17.292 36.364 17.3776 36.498 17.4641 36.498C17.5829 36.498 17.5817 36.3823 17.4618 36.2622C17.3532 36.1538 17.292 36.1416 17.292 36.2286ZM48.708 37.0866C48.708 37.1676 48.7506 37.224 48.8118 37.224C48.8733 37.224 48.907 37.1791 48.8943 37.1139C48.8623 36.9484 48.708 36.9257 48.708 37.0866ZM18.414 37.3128C18.414 37.4657 18.6694 37.655 18.7572 37.5672C18.8146 37.5098 18.8037 37.4585 18.7125 37.3575C18.5745 37.2052 18.414 37.1811 18.414 37.3128ZM18.3274 37.9926C18.2366 38.0833 18.2838 38.2234 18.3975 38.2015C18.461 38.1892 18.513 38.1376 18.513 38.0866C18.513 37.9823 18.3965 37.9234 18.3274 37.9926ZM17.9301 38.5221C17.854 38.5979 17.8819 38.676 17.985 38.676C18.0394 38.676 18.084 38.6314 18.084 38.577C18.084 38.4739 18.006 38.446 17.9301 38.5221ZM0.462 39.27C0.462 39.3693 0.496485 39.405 0.5775 39.3895C0.641025 39.3772 0.693 39.3235 0.693 39.27C0.693 39.2165 0.641025 39.1627 0.5775 39.1505C0.496485 39.135 0.462 39.1707 0.462 39.27ZM65.472 39.303C65.472 39.3574 65.5165 39.402 65.571 39.402C65.6254 39.402 65.67 39.3574 65.67 39.303C65.67 39.2485 65.6254 39.204 65.571 39.204C65.5165 39.204 65.472 39.2485 65.472 39.303ZM18.5811 40.2565C18.5231 40.3504 18.5971 40.458 18.7197 40.458C18.7775 40.458 18.8107 40.4116 18.7983 40.3479C18.7727 40.2154 18.6409 40.1598 18.5811 40.2565ZM1.00138 41.5576C1.02927 41.7019 1.221 41.7224 1.221 41.5808C1.221 41.5269 1.16638 41.4723 1.09956 41.4594C1.01128 41.4424 0.98439 41.4693 1.00138 41.5576ZM64.6924 42.5081C64.7082 42.5558 64.7602 42.6078 64.8079 42.6236C64.8574 42.6401 64.8821 42.6154 64.8656 42.5659C64.8498 42.5182 64.7978 42.4662 64.7501 42.4504C64.7006 42.4339 64.6759 42.4586 64.6924 42.5081ZM45.606 42.603C45.606 42.6574 45.6505 42.702 45.705 42.702C45.7594 42.702 45.804 42.6574 45.804 42.603C45.804 42.5485 45.7594 42.504 45.705 42.504C45.6505 42.504 45.606 42.5485 45.606 42.603ZM64.5868 42.9866C64.494 43.0544 64.483 43.0909 64.5437 43.1284C64.6391 43.1873 64.7722 43.0775 64.7361 42.9695C64.7189 42.918 64.6736 42.9233 64.5868 42.9866ZM21.0339 43.0742C20.9811 43.1269 21.0406 43.23 21.124 43.23C21.1581 43.23 21.186 43.1854 21.186 43.131C21.186 43.0289 21.1081 42.9998 21.0339 43.0742ZM45.1605 43.1307C45.0636 43.2407 45.0523 43.362 45.1385 43.362C45.289 43.362 45.408 43.2714 45.408 43.1569C45.408 43.0105 45.2783 42.9969 45.1605 43.1307ZM44.5673 43.8773C44.4081 44.0692 44.3695 44.2472 44.4965 44.2048C44.5396 44.1905 44.6346 44.0987 44.7076 44.0012C44.8915 43.7545 44.7635 43.6413 44.5673 43.8773ZM22.638 44.0924C22.638 44.1989 22.667 44.2197 22.77 44.187C22.8655 44.1566 22.902 44.1751 22.902 44.254C22.902 44.3924 23.0599 44.3449 23.0883 44.1981C23.1026 44.1246 23.0653 44.088 22.9767 44.088C22.9037 44.088 22.8254 44.0583 22.803 44.022C22.7332 43.909 22.638 43.9496 22.638 44.0924ZM2.376 45.606C2.376 45.6793 2.42005 45.738 2.475 45.738C2.52994 45.738 2.574 45.6793 2.574 45.606C2.574 45.5327 2.52994 45.474 2.475 45.474C2.42005 45.474 2.376 45.5327 2.376 45.606ZM2.508 45.9084C2.508 45.966 2.54331 46.0012 2.58637 45.9868C2.7088 45.9461 2.7291 45.804 2.61244 45.804C2.55502 45.804 2.508 45.851 2.508 45.9084ZM42.0585 46.3647C41.9554 46.4818 41.9509 46.662 42.0512 46.662C42.1415 46.662 42.3009 46.464 42.3039 46.3485C42.3067 46.2383 42.1613 46.248 42.0585 46.3647ZM20.592 46.563C20.592 46.6175 20.6365 46.662 20.691 46.662C20.7454 46.662 20.79 46.6175 20.79 46.563C20.79 46.5085 20.7454 46.464 20.691 46.464C20.6365 46.464 20.592 46.5085 20.592 46.563ZM20.196 46.695C20.196 46.7494 20.2405 46.794 20.295 46.794C20.3494 46.794 20.394 46.7494 20.394 46.695C20.394 46.6405 20.3494 46.596 20.295 46.596C20.2405 46.596 20.196 46.6405 20.196 46.695ZM63.03 46.827C63.03 46.8814 63.0745 46.926 63.129 46.926C63.1834 46.926 63.228 46.8814 63.228 46.827C63.228 46.7725 63.1834 46.728 63.129 46.728C63.0745 46.728 63.03 46.7725 63.03 46.827ZM41.2665 47.0247C41.0972 47.2171 41.2533 47.3583 41.4348 47.1768C41.5384 47.0732 41.5364 46.9253 41.4315 46.9285C41.3861 46.93 41.3119 46.9732 41.2665 47.0247ZM62.898 47.091C62.898 47.1454 62.9425 47.19 62.997 47.19C63.0514 47.19 63.096 47.1454 63.096 47.091C63.096 47.0365 63.0514 46.992 62.997 46.992C62.9425 46.992 62.898 47.0365 62.898 47.091ZM40.7385 47.4528C40.57 47.5905 40.5507 47.652 40.6765 47.652C40.8274 47.652 41.0256 47.4695 40.953 47.3971C40.9091 47.3533 40.8372 47.372 40.7385 47.4528ZM3.3 47.619C3.3 47.6734 3.34455 47.718 3.399 47.718C3.45345 47.718 3.498 47.6734 3.498 47.619C3.498 47.5645 3.45345 47.52 3.399 47.52C3.34455 47.52 3.3 47.5645 3.3 47.619ZM62.568 47.949C62.568 48.0034 62.5977 48.048 62.634 48.048C62.6703 48.048 62.7 48.0034 62.7 47.949C62.7 47.8945 62.6703 47.85 62.634 47.85C62.5977 47.85 62.568 47.8945 62.568 47.949ZM13.596 48.147C13.596 48.2014 13.6405 48.246 13.695 48.246C13.7494 48.246 13.794 48.2014 13.794 48.147C13.794 48.0925 13.7494 48.048 13.695 48.048C13.6405 48.048 13.596 48.0925 13.596 48.147ZM4.22928 49.3569C4.22383 49.5181 4.35748 49.5287 4.40995 49.3711C4.42612 49.3225 4.40847 49.3025 4.37019 49.3263C4.33224 49.3497 4.2862 49.3315 4.26789 49.2858C4.24941 49.2403 4.23208 49.2723 4.22928 49.3569ZM17.094 50.0334C17.094 50.1943 17.2483 50.1715 17.2803 50.0061C17.293 49.9409 17.2593 49.896 17.1978 49.896C17.1366 49.896 17.094 49.9524 17.094 50.0334ZM35.7837 50.2625C35.8136 50.4058 35.9306 50.4146 35.9575 50.2755C35.9713 50.2032 35.939 50.16 35.871 50.16C35.8076 50.16 35.7712 50.2027 35.7837 50.2625ZM35.376 50.424C35.376 50.4966 35.4156 50.556 35.4639 50.556C35.5882 50.556 35.6369 50.4925 35.5954 50.3846C35.5415 50.2441 35.376 50.2738 35.376 50.424ZM5.214 50.985C5.214 51.0394 5.25855 51.084 5.313 51.084C5.36745 51.084 5.412 51.0394 5.412 50.985C5.412 50.9305 5.36745 50.886 5.313 50.886C5.25855 50.886 5.214 50.9305 5.214 50.985ZM21.1352 51.3604C21.1759 51.4828 21.318 51.5031 21.318 51.3864C21.318 51.329 21.271 51.282 21.2136 51.282C21.156 51.282 21.1208 51.3173 21.1352 51.3604ZM23.298 51.777C23.298 51.8314 23.3425 51.876 23.397 51.876C23.4514 51.876 23.496 51.8314 23.496 51.777C23.496 51.7225 23.4514 51.678 23.397 51.678C23.3425 51.678 23.298 51.7225 23.298 51.777ZM28.644 51.909C28.644 51.9705 28.7064 52.008 28.809 52.008C28.9116 52.008 28.974 51.9705 28.974 51.909C28.974 51.8475 28.9116 51.81 28.809 51.81C28.7064 51.81 28.644 51.8475 28.644 51.909ZM6.402 52.767C6.402 52.8214 6.44655 52.866 6.501 52.866C6.55545 52.866 6.6 52.8214 6.6 52.767C6.6 52.7125 6.55545 52.668 6.501 52.668C6.44655 52.668 6.402 52.7125 6.402 52.767ZM7.326 53.925C7.326 54.0523 7.6588 54.331 7.76308 54.2911C7.84839 54.2583 7.84014 54.2216 7.71061 54.0578C7.56079 53.868 7.326 53.787 7.326 53.925ZM58.5158 53.9903C58.4034 54.1035 58.4016 54.121 58.4974 54.1578C58.608 54.2002 58.806 54.0519 58.806 53.9268C58.806 53.8172 58.6544 53.8504 58.5158 53.9903ZM57.6746 54.9615C57.3774 55.2862 57.4438 55.4748 57.7546 55.189C58.0161 54.9485 58.0873 54.78 57.9274 54.78C57.8797 54.78 57.766 54.8617 57.6746 54.9615ZM55.0641 57.5804C54.9176 57.7074 54.8958 57.7579 54.9598 57.8229C55.0326 57.8968 55.44 57.5833 55.44 57.4537C55.44 57.3657 55.2303 57.4365 55.0641 57.5804ZM54.1035 58.4153C53.9773 58.4889 53.9453 58.674 54.0588 58.674C54.0976 58.674 54.1718 58.6316 54.2238 58.5798C54.4076 58.3958 54.3267 58.2853 54.1035 58.4153ZM13.134 59.499C13.134 59.5534 13.1785 59.598 13.233 59.598C13.2874 59.598 13.332 59.5534 13.332 59.499C13.332 59.4445 13.2874 59.4 13.233 59.4C13.1785 59.4 13.134 59.4445 13.134 59.499ZM14.52 60.4176C14.52 60.475 14.567 60.522 14.6244 60.522C14.7411 60.522 14.7208 60.3799 14.5984 60.3392C14.5553 60.3248 14.52 60.36 14.52 60.4176ZM47.8274 62.4805C47.7371 62.571 47.7891 62.7 47.916 62.7C47.9886 62.7 48.048 62.6739 48.048 62.6421C48.048 62.5555 47.8774 62.4306 47.8274 62.4805ZM47.52 62.733C47.52 62.7874 47.5645 62.832 47.619 62.832C47.6735 62.832 47.718 62.7874 47.718 62.733C47.718 62.6786 47.6735 62.634 47.619 62.634C47.5645 62.634 47.52 62.6786 47.52 62.733ZM47.256 62.865C47.256 62.9194 47.3005 62.964 47.355 62.964C47.4094 62.964 47.454 62.9194 47.454 62.865C47.454 62.8105 47.4094 62.766 47.355 62.766C47.3005 62.766 47.256 62.8105 47.256 62.865ZM19.602 63.261C19.602 63.329 19.6452 63.3613 19.7175 63.3475C19.8566 63.3206 19.8478 63.2036 19.7045 63.1737C19.6447 63.1612 19.602 63.1976 19.602 63.261ZM19.9101 63.3381C19.834 63.414 19.8619 63.492 19.965 63.492C20.0194 63.492 20.064 63.4474 20.064 63.393C20.064 63.2899 19.986 63.262 19.9101 63.3381ZM21.648 64.086C21.648 64.1223 21.6925 64.152 21.747 64.152C21.8014 64.152 21.846 64.1223 21.846 64.086C21.846 64.0497 21.8014 64.02 21.747 64.02C21.6925 64.02 21.648 64.0497 21.648 64.086ZM23.6989 64.677C23.5947 64.7414 23.6613 64.878 23.797 64.878C23.8973 64.878 23.9291 64.7107 23.8394 64.6553C23.8103 64.6374 23.7471 64.6472 23.6989 64.677ZM25.806 65.307C25.806 65.3614 25.8644 65.406 25.9359 65.406C26.0243 65.406 26.0537 65.3743 26.0279 65.307C26.007 65.2525 25.9486 65.208 25.8979 65.208C25.8474 65.208 25.806 65.2525 25.806 65.307ZM39.6 65.439C39.6 65.4934 39.6446 65.538 39.699 65.538C39.7534 65.538 39.798 65.4934 39.798 65.439C39.798 65.3846 39.7534 65.34 39.699 65.34C39.6446 65.34 39.6 65.3846 39.6 65.439ZM35.8174 65.8446C35.7312 65.9307 35.7723 66 35.9094 66C35.9863 66 36.0355 65.9653 36.0208 65.9216C35.9886 65.8251 35.8786 65.7835 35.8174 65.8446Z" fill="white"/>
</g>
<defs>
<clipPath id="clip0">
<rect width="66" height="66" fill="white"/>
</clipPath>
</defs>
</svg>
